AgbalumoETH.glyphspackage
{
glyphname = exclam;
layers = (
{
associatedMasterId = "935688F5-83D3-4ABE-8A3A-DDCBCDDAE821";
layerId = "A9E9AC5F-E30B-4CDD-AE13-AE6186D6A988";
name = "Sep 30, 23, 19:08";
shapes = (
{
closed = 1;
nodes = (
(244,438,o),
(329,648,o),
(367,708,c),
(334,817,o),
(181,791,o),
(173,747,c),
(163,687,o),
(112,413,o),
(105,265,c),
(112,214,o),
(205,224,o),
(236,249,c)
);
},
{
closed = 1;
nodes = (
(210,-6,o),
(259,40,o),
(259,98,cs),
(259,148,o),
(218,188,o),
(163,188,cs),
(102,188,o),
(54,141,o),
(54,84,cs),
(54,33,o),
(94,-6,o),
(149,-6,cs)
);
}
);
width = 372;
},
{
associatedMasterId = "935688F5-83D3-4ABE-8A3A-DDCBCDDAE821";
layerId = "9CDE263B-1989-441F-8173-6B0C6D0305D9";
name = "Sep 11, 23, 19:33";
shapes = (
{
closed = 1;
nodes = (
(244,438,o),
(329,648,o),
(367,708,c),
(334,817,o),
(181,791,o),
(173,747,c),
(163,687,o),
(112,413,o),
(105,265,c),
(112,214,o),
(205,224,o),
(236,249,c)
);
},
{
alignment = -1;
pos = (45,0);
ref = period;
}
);
width = 372;
},
{
associatedMasterId = "935688F5-83D3-4ABE-8A3A-DDCBCDDAE821";
layerId = "B6F814C6-ED38-41D1-9472-17FA43E1238D";
name = "Jun 8, 23, 14:07";
shapes = (
{
closed = 1;
nodes = (
(240,438,o),
(262,593,o),
(289,653,c),
(256,762,o),
(118,715,o),
(110,671,cs),
(100,611,o),
(67,386,o),
(62,287,cs),
(57,201,o),
(178,191,o),
(237,249,c)
);
},
{
closed = 1;
nodes = (
(187,-6,o),
(233,38,o),
(233,92,cs),
(233,140,o),
(195,178,o),
(142,178,cs),
(85,178,o),
(39,133,o),
(39,79,cs),
(39,31,o),
(77,-6,o),
(130,-6,cs)
);
}
);
width = 600;
},
{
layerId = "935688F5-83D3-4ABE-8A3A-DDCBCDDAE821";
shapes = (
{
closed = 1;
nodes = (
(192,228,o),
(221,237,o),
(236,249,c),
(244,438,o),
(329,648,o),
(367,708,c),
(350,765,o),
(300,785,o),
(255,785,cs),
(214,785,o),
(177,768,o),
(173,747,c),
(163,687,o),
(112,413,o),
(105,265,c),
(109,238,o),
(136,228,o),
(165,228,cs)
);
},
{
closed = 1;
nodes = (
(210,-6,o),
(259,40,o),
(259,96,cs),
(259,148,o),
(218,188,o),
(162,188,cs),
(102,188,o),
(54,141,o),
(54,85,cs),
(54,33,o),
(94,-6,o),
(150,-6,cs)
);
}
);
width = 372;
}
);
unicode = 33;
}
{
glyphname = ampersand;
layers = (
{
associatedMasterId = "935688F5-83D3-4ABE-8A3A-DDCBCDDAE821";
layerId = "DDF5E0FA-62F2-48A9-AD79-C49BDD8ABACC";
name = "Sep 29, 23, 14:43";
shapes = (
{
closed = 1;
nodes = (
(179,368,l),
(434,97,o),
(480,608,o),
(215,383,c),
(298,358,l),
(90,582,o),
(452,750,o),
(357,483,c),
(556,483,o),
(601,726,o),
(373,726,cs),
(55,726,o),
(-25,451,o),
(174,358,c),
(177,383,l),
(-40,324,o),
(-10,-7,o),
(309,-7,cs),
(497,-7,o),
(658,156,o),
(564,389,c),
(484,372,l),
(580,76,o),
(115,19,o),
(252,314,c)
);
},
{
closed = 1;
nodes = (
(571,386,l),
(516,613,o),
(291,326,o),
(509,326,c)
);
},
{
closed = 1;
nodes = (
(518,332,l),
(836,432,o),
(865,681,o),
(641,687,c),
(635,680,l),
(675,585,o),
(616,446,o),
(498,387,c)
);
}
);
width = 719;
},
{
associatedMasterId = "935688F5-83D3-4ABE-8A3A-DDCBCDDAE821";
layerId = "5DC57052-BB23-41B0-836D-1E478B749C1E";
name = "Sep 29, 23, 14:33";
shapes = (
{
closed = 1;
nodes = (
(385,-7,o),
(472,105,o),
(524,199,c),
(481,255,l),
(394,76,o),
(152,84,o),
(258,314,c),
(185,368,l),
(430,97,o),
(486,608,o),
(221,383,c),
(304,358,l),
(96,582,o),
(458,750,o),
(363,483,c),
(562,483,o),
(607,726,o),
(379,726,cs),
(61,726,o),
(-19,451,o),
(180,358,c),
(183,383,l),
(-34,324,o),
(-14,-7,o),
(254,-7,cs)
);
},
{
closed = 1;
nodes = (
(512,-156,o),
(605,-120,o),
(621,-60,c),
(577,25,o),
(561,75,o),
(545,173,c),
(740,368,o),
(436,659,o),
(462,184,c),
(445,110,o),
(442,7,o),
(454,-143,c)
);
}
);
width = 651;
},
{
associatedMasterId = "935688F5-83D3-4ABE-8A3A-DDCBCDDAE821";
layerId = "57F6DDF9-44B4-4911-9917-4ABB66F682AA";
name = "Jul 12, 23, 16:29";
shapes = (
{
closed = 1;
nodes = (
(362,-7,o),
(520,70,o),
(529,207,c),
(522,214,l),
(427,104,o),
(194,56,o),
(186,288,c),
(309,351,o),
(377,284,o),
(560,284,cs),
(693,284,o),
(735,379,o),
(707,464,c),
(623,400,o),
(552,432,o),
(403,446,c),
(406,420,l),
(613,512,o),
(614,723,o),
(425,723,cs),
(5,723,o),
(-166,-7,o),
(248,-7,cs)
);
},
{
closed = 1;
nodes = (
(223,537,o),
(296,621,o),
(366,621,cs),
(475,621,o),
(375,425,o),
(196,398,c)
);
},
{
closed = 1;
nodes = (
(474,404,l),
(406,250,o),
(403,7,o),
(455,-194,c),
(513,-207,o),
(606,-171,o),
(622,-111,c),
(538,25,o),
(522,215,o),
(557,393,c)
);
}
);
width = 734;
},
{
background = {
shapes = (
{
closed = 0;
nodes = (
(549,321,l),
(916,309,o),
(788,657,o),
(595,528,c),
(662,499,o),
(675,434,o),
(633,405,cs),
(610,390,o),
(570,392,o),
(559,397,c)
);
}
);
};
layerId = "935688F5-83D3-4ABE-8A3A-DDCBCDDAE821";
shapes = (
{
closed = 1;
nodes = (
(435,-7,o),
(620,118,o),
(620,308,cs),
(620,322,o),
(619,339,o),
(616,356,c),
(762,421,o),
(835,509,o),
(835,578,cs),
(835,640,o),
(775,687,o),
(655,687,c),
(648,680,l),
(667,653,o),
(675,622,o),
(675,591,cs),
(675,531,o),
(644,468,o),
(594,424,c),
(578,463,o),
(555,478,o),
(532,478,cs),
(494,478,o),
(457,438,o),
(457,398,cs),
(457,369,o),
(477,341,o),
(531,329,c),
(530,194,o),
(411,119,o),
(317,119,cs),
(258,119,o),
(210,149,o),
(210,213,cs),
(210,240,o),
(219,274,o),
(240,314,c),
(267,295,o),
(291,287,o),
(312,287,cs),
(365,287,o),
(397,338,o),
(397,382,cs),
(397,414,o),
(380,442,o),
(342,442,cs),
(322,442,o),
(296,434,o),
(263,414,c),
(251,440,o),
(246,465,o),
(246,487,cs),
(246,566,o),
(309,620,o),
(353,620,cs),
(376,620,o),
(393,605,o),
(393,570,cs),
(393,549,o),
(387,520,o),
(370,483,c),
(481,483,o),
(551,559,o),
(551,626,cs),
(551,679,o),
(508,726,o),
(388,726,cs),
(197,726,o),
(80,606,o),
(80,498,cs),
(80,450,o),
(103,405,o),
(151,373,c),
(69,338,o),
(25,264,o),
(25,191,cs),
(25,92,o),
(105,-7,o),
(260,-7,cs)
);
}
);
width = 822;
}
);
unicode = 38;
}
{
glyphname = parenleft;
layers = (
{
associatedMasterId = "935688F5-83D3-4ABE-8A3A-DDCBCDDAE821";
layerId = "A9E9AC5F-E30B-4CDD-AE13-AE6186D6A988";
name = "Sep 30, 23, 19:08";
shapes = (
{
closed = 1;
nodes = (
(186,222,o),
(280,588,o),
(463,731,c),
(471,798,o),
(360,835,o),
(305,782,cs),
(143,625,o),
(42,190,o),
(114,-8,cs),
(146,-95,o),
(212,-136,o),
(261,-95,c)
);
}
);
width = 363;
},
{
layerId = "935688F5-83D3-4ABE-8A3A-DDCBCDDAE821";
shapes = (
{
closed = 1;
nodes = (
(240,-111,o),
(254,-106,o),
(267,-95,c),
(249,-21,o),
(241,57,o),
(241,132,cs),
(241,382,o),
(329,622,o),
(469,731,c),
(474,776,o),
(426,807,o),
(377,807,cs),
(354,807,o),
(329,800,o),
(296,768,cs),
(185,660,o),
(96,371,o),
(96,157,cs),
(96,93,o),
(104,36,o),
(121,-9,cs),
(144,-72,o),
(185,-111,o),
(225,-111,cs)
);
}
);
width = 378;
}
);
unicode = 40;
}
{
glyphname = comma;
kernLeft = period;
kernRight = period;
layers = (
{
associatedMasterId = "935688F5-83D3-4ABE-8A3A-DDCBCDDAE821";
layerId = "A9E9AC5F-E30B-4CDD-AE13-AE6186D6A988";
name = "Sep 30, 23, 19:08";
shapes = (
{
closed = 1;
nodes = (
(249,-88,o),
(295,185,o),
(136,185,cs),
(72,185,o),
(32,148,o),
(32,89,cs),
(32,21,o),
(81,-67,o),
(-11,-128,c),
(-8,-137,o),
(-4,-145,o),
(2,-151,c)
);
}
);
width = 259;
},
{
associatedMasterId = "935688F5-83D3-4ABE-8A3A-DDCBCDDAE821";
layerId = "1860F6B7-6431-43B8-9A0D-423BC5C31D7A";
name = "Jun 2, 23, 16:57";
shapes = (
{
closed = 1;
nodes = (
(6,-61,l),
(194,-61,o),
(307,178,o),
(144,178,cs),
(94,178,o),
(67,159,o),
(67,110,cs),
(67,13,o),
(62,-18,o),
(5,-55,c)
);
}
);
width = 232;
},
{
associatedMasterId = "935688F5-83D3-4ABE-8A3A-DDCBCDDAE821";
layerId = "2EAFC5FF-F7FF-465E-8ED0-6B3C3433BFB8";
name = "Jun 1, 23, 16:18";
shapes = (
{
closed = 1;
nodes = (
(32,-100,l),
(167,-96,o),
(220,1,o),
(220,79,cs),
(220,155,o),
(194,178,o),
(150,178,cs),
(100,178,o),
(46,140,o),
(46,86,cs),
(46,31,o),
(122,-13,o),
(30,-93,c)
);
}
);
width = 245;
},
{
layerId = "935688F5-83D3-4ABE-8A3A-DDCBCDDAE821";
shapes = (
{
closed = 1;
nodes = (
(264,-113,o),
(340,4,o),
(340,89,cs),
(340,144,o),
(309,185,o),
(244,185,cs),
(183,185,o),
(143,148,o),
(143,88,cs),
(143,54,o),
(156,14,o),
(156,-26,cs),
(156,-63,o),
(145,-98,o),
(100,-128,c),
(103,-137,o),
(107,-145,o),
(113,-151,c)
);
}
);
width = 520;
}
);
unicode = 44;
}
{
glyphname = hyphen;
layers = (
{
associatedMasterId = "935688F5-83D3-4ABE-8A3A-DDCBCDDAE821";
layerId = "A9E9AC5F-E30B-4CDD-AE13-AE6186D6A988";
name = "Sep 30, 23, 19:08";
shapes = (
{
closed = 1;
nodes = (
(104,233,o),
(174,222,o),
(315,222,cs),
(414,222,o),
(439,289,o),
(400,362,c),
(355,331,o),
(247,352,o),
(145,352,cs),
(64,352,o),
(23,287,o),
(56,213,c)
);
}
);
width = 453;
},
{
associatedMasterId = "935688F5-83D3-4ABE-8A3A-DDCBCDDAE821";
layerId = "D6F22139-29CC-4AD8-AED1-FECE995EF53D";
name = "Jul 24, 23, 19:16";
shapes = (
{
closed = 1;
nodes = (
(48,297,o),
(40,261,o),
(48,216,c),
(177,235,o),
(256,236,o),
(389,226,c),
(416,263,o),
(424,299,o),
(411,336,c),
(277,346,o),
(198,345,o),
(70,326,c)
);
}
);
width = 452;
},
{
background = {
shapes = (
{
closed = 1;
nodes = (
(48,297,o),
(40,261,o),
(48,216,c),
(177,235,o),
(256,236,o),
(389,226,c),
(416,263,o),
(424,299,o),
(411,336,c),
(277,346,o),
(198,345,o),
(70,326,c)
);
}
);
};
layerId = "935688F5-83D3-4ABE-8A3A-DDCBCDDAE821";
shapes = (
{
closed = 1;
nodes = (
(79,223,o),
(107,225,o),
(143,225,cs),
(187,225,o),
(241,222,o),
(315,222,c),
(385,222,o),
(418,255,o),
(418,300,cs),
(418,319,o),
(412,340,o),
(400,362,c),
(381,349,o),
(350,345,o),
(313,345,cs),
(264,345,o),
(204,352,o),
(145,352,c),
(83,352,o),
(45,314,o),
(45,262,cs),
(45,247,o),
(48,230,o),
(56,213,c)
);
}
);
width = 453;
}
);
unicode = 45;
}
{
glyphname = period;
kernLeft = period;
kernRight = period;
layers = (
{
associatedMasterId = "935688F5-83D3-4ABE-8A3A-DDCBCDDAE821";
layerId = "C5A3B967-6751-4CE7-B1A0-5057E5F75F4E";
name = "Sep 7, 23, 17:24";
shapes = (
{
closed = 1;
nodes = (
(221,-6,o),
(270,40,o),
(270,98,cs),
(270,148,o),
(229,188,o),
(174,188,cs),
(113,188,o),
(65,141,o),
(65,84,cs),
(65,33,o),
(105,-6,o),
(160,-6,cs)
);
}
);
width = 314;
},
{
associatedMasterId = "935688F5-83D3-4ABE-8A3A-DDCBCDDAE821";
layerId = "A9E9AC5F-E30B-4CDD-AE13-AE6186D6A988";
name = "Sep 30, 23, 19:08";
shapes = (
{
closed = 1;
nodes = (
(162,-6,o),
(211,40,o),
(211,98,cs),
(211,148,o),
(170,188,o),
(115,188,cs),
(54,188,o),
(6,141,o),
(6,84,cs),
(6,33,o),
(46,-6,o),
(101,-6,cs)
);
}
);
width = 235;
},
{
layerId = "935688F5-83D3-4ABE-8A3A-DDCBCDDAE821";
shapes = (
{
closed = 1;
nodes = (
(256,-6,o),
(305,40,o),
(305,98,cs),
(305,148,o),
(264,188,o),
(209,188,cs),
(148,188,o),
(100,141,o),
(100,84,cs),
(100,33,o),
(140,-6,o),
(195,-6,cs)
);
}
);
width = 485;
}
);
unicode = 46;
}
{
glyphname = slash;
layers = (
{
associatedMasterId = "935688F5-83D3-4ABE-8A3A-DDCBCDDAE821";
layerId = "A9E9AC5F-E30B-4CDD-AE13-AE6186D6A988";
name = "Sep 30, 23, 19:08";
shapes = (
{
closed = 1;
nodes = (
(224,302,o),
(348,682,o),
(378,758,c),
(379,822,o),
(229,833,o),
(211,767,cs),
(195,708,o),
(74,220,o),
(41,-41,cs),
(29,-137,o),
(129,-166,o),
(175,-125,c)
);
}
);
width = 328;
},
{
layerId = "935688F5-83D3-4ABE-8A3A-DDCBCDDAE821";
shapes = (
{
closed = 1;
nodes = (
(143,-143,o),
(161,-137,o),
(175,-125,c),
(194,37,o),
(223,193,o),
(256,335,cs),
(305,547,o),
(359,711,o),
(378,758,c),
(379,792,o),
(335,812,o),
(293,812,cs),
(256,812,o),
(219,797,o),
(206,749,cs),
(202,734,o),
(161,571,o),
(121,388,cs),
(88,238,o),
(56,76,o),
(49,16,cs),
(33,-109,o),
(80,-143,o),
(124,-143,cs)
);
}
);
width = 328;
}
);
unicode = 47;
}
{
glyphname = one;
layers = (
{
associatedMasterId = "935688F5-83D3-4ABE-8A3A-DDCBCDDAE821";
layerId = "9BE5AAFA-EE03-4048-A3A5-4006C8DC542D";
name = "Sep 30, 23, 18:40";
shapes = (
{
closed = 1;
nodes = (
(396,198,o),
(402,350,o),
(398,464,c),
(344,419,l),
(475,489,o),
(424,579,o),
(350,579,cs),
(311,579,o),
(277,552,o),
(282,479,c),
(215,441,o),
(109,422,o),
(20,434,c),
(51,183,o),
(233,252,o),
(315,440,c),
(283,430,l),
(270,314,o),
(240,169,o),
(231,37,cs),
(227,-12,o),
(397,-19,o),
(414,36,c)
);
}
);
width = 491;
},
{
associatedMasterId = "935688F5-83D3-4ABE-8A3A-DDCBCDDAE821";
layerId = "129E4B06-1386-41C6-BF82-DABD182DA059";
name = "Jun 26, 23, 12:19";
shapes = (
{
closed = 1;
nodes = (
(52,174,o),
(235,243,o),
(317,421,c),
(285,411,l),
(272,305,o),
(242,169,o),
(233,37,cs),
(229,-12,o),
(390,-25,o),
(416,36,c),
(398,198,o),
(404,341,o),
(400,466,c),
(346,411,l),
(601,496,o),
(269,687,o),
(284,470,c),
(217,432,o),
(110,413,o),
(1,425,c)
);
}
);
width = 479;
},
{
associatedMasterId = "935688F5-83D3-4ABE-8A3A-DDCBCDDAE821";
layerId = "E1D7A948-1FEF-4C0B-B673-3ED8C8CBB1AC";
name = "Jun 15, 23, 14:05";
shapes = (
{
closed = 1;
nodes = (
(245,419,l),
(228,305,o),
(221,189,o),
(212,37,cs),
(209,-12,o),
(365,-25,o),
(391,36,c),
(370,199,o),
(364,344,o),
(385,449,c)
);
},
{
closed = 1;
nodes = (
(43,210,o),
(245,310,o),
(261,392,c),
(314,418,l),
(323,526,l),
(236,443,o),
(146,420,o),
(-5,409,c)
);
},
{
closed = 1;
nodes = (
(324,379,l),
(573,526,o),
(191,715,o),
(255,395,c)
);
}
);
width = 454;
},
{
layerId = "935688F5-83D3-4ABE-8A3A-DDCBCDDAE821";
shapes = (
{
closed = 1;
nodes = (
(362,-3,o),
(406,10,o),
(414,36,c),
(396,195,o),
(402,345,o),
(398,458,c),
(417,478,o),
(425,498,o),
(425,515,cs),
(425,552,o),
(391,579,o),
(350,579,cs),
(311,579,o),
(277,552,o),
(282,479,c),
(228,449,o),
(150,430,o),
(75,430,cs),
(57,430,o),
(38,432,o),
(20,434,c),
(34,319,o),
(80,271,o),
(134,271,cs),
(180,271,o),
(233,308,o),
(275,368,c),
(260,265,o),
(238,146,o),
(231,37,cs),
(229,12,o),
(274,-3,o),
(320,-3,cs)
);
}
);
width = 491;
}
);
unicode = 49;
}
{
glyphname = colon;
kernLeft = period;
kernRight = period;
layers = (
{
associatedMasterId = "935688F5-83D3-4ABE-8A3A-DDCBCDDAE821";
layerId = "A9E9AC5F-E30B-4CDD-AE13-AE6186D6A988";
name = "Sep 30, 23, 19:08";
shapes = (
{
closed = 1;
nodes = (
(177,-6,o),
(226,40,o),
(226,98,cs),
(226,148,o),
(185,188,o),
(130,188,cs),
(69,188,o),
(21,141,o),
(21,84,cs),
(21,33,o),
(61,-6,o),
(116,-6,cs)
);
},
{
closed = 1;
nodes = (
(206,307,o),
(255,353,o),
(255,411,cs),
(255,461,o),
(214,501,o),
(159,501,cs),
(98,501,o),
(50,454,o),
(50,397,cs),
(50,346,o),
(90,307,o),
(145,307,cs)
);
}
);
width = 281;
},
{
associatedMasterId = "935688F5-83D3-4ABE-8A3A-DDCBCDDAE821";
layerId = "4D3C2CDA-1832-4C31-935D-5DF0044AC2F2";
name = "Sep 14, 23, 13:20";
shapes = (
{
alignment = -1;
pos = (15,0);
ref = period;
},
{
alignment = -1;
pos = (44,313);
ref = period;
}
);
width = 281;
},
{
layerId = "935688F5-83D3-4ABE-8A3A-DDCBCDDAE821";
shapes = (
{
closed = 1;
nodes = (
(285,307,o),
(334,353,o),
(334,411,cs),
(334,461,o),
(293,501,o),
(238,501,cs),
(177,501,o),
(129,454,o),
(129,397,cs),
(129,346,o),
(169,307,o),
(224,307,cs)
);
},
{
closed = 1;
nodes = (
(256,-6,o),
(305,40,o),
(305,98,cs),
(305,148,o),
(264,188,o),
(209,188,cs),
(148,188,o),
(100,141,o),
(100,84,cs),
(100,33,o),
(140,-6,o),
(195,-6,cs)
);
}
);
width = 514;
}
);
unicode = 58;
}
{
glyphname = semicolon;
kernLeft = period;
kernRight = period;
layers = (
{
associatedMasterId = "935688F5-83D3-4ABE-8A3A-DDCBCDDAE821";
layerId = "A9E9AC5F-E30B-4CDD-AE13-AE6186D6A988";
name = "Sep 30, 23, 19:08";
shapes = (
{
closed = 1;
nodes = (
(214,307,o),
(263,353,o),
(263,411,cs),
(263,461,o),
(222,501,o),
(167,501,cs),
(106,501,o),
(58,454,o),
(58,397,cs),
(58,346,o),
(98,307,o),
(153,307,cs)
);
},
{
alignment = -1;
pos = (-2,0);
ref = comma;
}
);
width = 289;
},
{
layerId = "935688F5-83D3-4ABE-8A3A-DDCBCDDAE821";
shapes = (
{
closed = 1;
nodes = (
(264,-113,o),
(340,4,o),
(340,89,cs),
(340,144,o),
(309,185,o),
(244,185,cs),
(183,185,o),
(143,148,o),
(143,88,cs),
(143,54,o),
(156,14,o),
(156,-26,cs),
(156,-63,o),
(145,-98,o),
(100,-128,c),
(103,-137,o),
(107,-145,o),
(113,-151,c)
);
},
{
closed = 1;
nodes = (
(327,307,o),
(376,353,o),
(376,409,cs),
(376,461,o),
(335,501,o),
(279,501,cs),
(219,501,o),
(171,454,o),
(171,398,cs),
(171,346,o),
(211,307,o),
(267,307,cs)
);
}
);
width = 556;
}
);
unicode = 59;
}
{
glyphname = less;
layers = (
{
associatedMasterId = "935688F5-83D3-4ABE-8A3A-DDCBCDDAE821";
layerId = "D66ECED7-D51B-41BF-94B9-9C8BA66BF123";
name = "Aug 9, 23, 20:08";
shapes = (
{
closed = 1;
nodes = (
(370,10,o),
(415,63,o),
(439,102,c),
(292,152,o),
(209,225,o),
(185,280,c),
(180,240,l),
(210,295,o),
(291,343,o),
(449,393,c),
(449,450,o),
(436,510,o),
(376,510,cs),
(274,510,o),
(72,350,o),
(61,260,cs),
(49,170,o),
(208,10,o),
(310,10,cs)
);
}
);
width = 512;
},
{
layerId = "935688F5-83D3-4ABE-8A3A-DDCBCDDAE821";
shapes = (
{
closed = 1;
nodes = (
(374,10,o),
(418,63,o),
(442,102,c),
(294,152,o),
(210,225,o),
(185,280,c),
(180,240,l),
(209,295,o),
(290,343,o),
(447,393,c),
(446,450,o),
(432,510,o),
(372,510,cs),
(270,510,o),
(70,350,o),
(61,260,cs),
(51,170,o),
(212,10,o),
(314,10,cs)
);
}
);
width = 515;
}
);
unicode = 60;
}
{
glyphname = question;
layers = (
{
associatedMasterId = "935688F5-83D3-4ABE-8A3A-DDCBCDDAE821";
layerId = "A9E9AC5F-E30B-4CDD-AE13-AE6186D6A988";
name = "Sep 30, 23, 19:08";
shapes = (
{
closed = 1;
nodes = (
(234,424,o),
(503,358,o),
(514,571,cs),
(521,704,o),
(414,767,o),
(308,767,cs),
(58,767,o),
(2,500,o),
(223,502,c),
(169,675,o),
(365,706,o),
(365,587,cs),
(365,541,o),
(336,505,o),
(275,471,c),
(220,440,o),
(149,403,o),
(145,281,c),
(143,222,o),
(254,213,o),
(292,249,c)
);
},
{
closed = 1;
nodes = (
(259,-6,o),
(308,40,o),
(308,98,cs),
(308,148,o),
(267,188,o),
(212,188,cs),
(151,188,o),
(103,141,o),
(103,84,cs),
(103,33,o),
(143,-6,o),
(198,-6,cs)
);
}
);
width = 534;
},
{
associatedMasterId = "935688F5-83D3-4ABE-8A3A-DDCBCDDAE821";
layerId = "45E3A97E-EDC0-411D-9202-51FD22D7DD10";
name = "Sep 13, 23, 12:31";
shapes = (
{
closed = 1;
nodes = (
(234,424,o),
(503,358,o),
(514,571,cs),
(521,704,o),
(414,767,o),
(308,767,cs),
(58,767,o),
(2,500,o),
(223,502,c),
(169,675,o),
(365,706,o),
(365,587,cs),
(365,541,o),
(336,505,o),
(275,471,c),
(220,440,o),
(149,403,o),
(145,281,c),
(143,222,o),
(254,213,o),
(292,249,c)
);
},
{
alignment = -1;
pos = (97,0);
ref = period;
}
);
width = 534;
},
{
associatedMasterId = "935688F5-83D3-4ABE-8A3A-DDCBCDDAE821";
layerId = "6201EF9B-0E41-4EFF-A02F-F4674D6A4017";
name = "Jun 21, 23, 15:03";
shapes = (
{
closed = 1;
nodes = (
(130,403,o),
(201,440,o),
(256,471,cs),
(317,505,o),
(338,541,o),
(338,572,cs),
(338,618,o),
(306,649,o),
(272,649,cs),
(225,649,o),
(173,596,o),
(203,514,c),
(-7,514,o),
(39,767,o),
(289,767,cs),
(395,767,o),
(502,704,o),
(495,571,cs),
(484,358,o),
(215,414,o),
(273,249,c),
(235,213,o),
(124,222,o),
(126,281,c)
);
},
{
alignment = -1;
pos = (18,0);
ref = period;
}
);
width = 505;
},
{
layerId = "935688F5-83D3-4ABE-8A3A-DDCBCDDAE821";
shapes = (
{
closed = 1;
nodes = (
(251,228,o),
(277,235,o),
(292,249,c),
(286,266,o),
(284,281,o),
(284,293,cs),
(284,347,o),
(328,370,o),
(377,396,cs),
(441,429,o),
(514,467,o),
(514,583,cs),
(514,708,o),
(411,767,o),
(308,767,cs),
(165,767,o),
(85,679,o),
(85,605,cs),
(85,549,o),
(129,501,o),
(223,502,c),
(217,523,o),
(214,542,o),
(214,559,cs),
(214,625,o),
(258,658,o),
(299,658,cs),
(333,658,o),
(365,635,o),
(365,587,cs),
(365,541,o),
(336,505,o),
(275,471,cs),
(220,440,o),
(149,403,o),
(145,281,c),
(144,245,o),
(184,228,o),
(225,228,cs)
);
},
{
closed = 1;
nodes = (
(259,-6,o),
(308,40,o),
(308,98,cs),
(308,148,o),
(267,188,o),
(212,188,cs),
(151,188,o),
(103,141,o),
(103,84,cs),
(103,33,o),
(143,-6,o),
(198,-6,cs)
);
}
);
width = 534;
}
);
unicode = 63;
}
{
glyphname = A;
layers = (
{
anchors = (
{
name = bottom;
pos = (319,0);
},
{
name = ogonek;
pos = (658,10);
},
{
name = top;
pos = (361,710);
}
);
associatedMasterId = "935688F5-83D3-4ABE-8A3A-DDCBCDDAE821";
layerId = "F99B04F5-5ABE-4673-BAC4-D1F7099A7FEC";
name = "Oct 1, 23, 18:36";
shapes = (
{
closed = 1;
nodes = (
(142,-4,o),
(190,21,o),
(190,52,cs),
(190,92,o),
(198,134,o),
(210,176,c),
(228,177,o),
(247,178,o),
(268,178,cs),
(301,178,o),
(341,176,o),
(383,173,c),
(397,49,o),
(462,-4,o),
(523,-4,cs),
(588,-4,o),
(650,53,o),
(650,146,c),
(643,151,l),
(638,139,o),
(619,122,o),
(598,122,cs),
(500,122,o),
(551,468,o),
(513,605,cs),
(490,689,o),
(424,726,o),
(356,726,cs),
(267,726,o),
(174,664,o),
(174,550,c),
(185,548,l),
(193,593,o),
(215,617,o),
(230,617,cs),
(239,617,o),
(246,608,o),
(246,591,cs),
(246,448,o),
(14,245,o),
(14,61,cs),
(14,14,o),
(52,-4,o),
(93,-4,cs)
);
},
{
closed = 1;
nodes = (
(285,374,o),
(336,482,o),
(347,578,c),
(376,488,o),
(375,380,o),
(378,281,c),
(356,281,ls),
(313,281,o),
(276,278,o),
(243,269,c)
);
}
);
width = 670;
},
{
associatedMasterId = "935688F5-83D3-4ABE-8A3A-DDCBCDDAE821";
layerId = "407B0032-C0B8-49E8-9A17-A071C264D571";
name = "May 31, 23, 15:12";
shapes = (
{
closed = 1;
nodes = (
(646,181,l),
(611,131,o),
(575,133,o),
(575,210,cs),
(575,347,o),
(632,537,o),
(673,649,c),
(670,657,l),
(638,764,o),
(460,728,o),
(460,670,c),
(459,641,o),
(456,612,o),
(452,583,c),
(429,681,o),
(373,725,o),
(308,725,cs),
(7,725,o),
(-77,0,o),
(193,0,cs),
(265,0,o),
(345,65,o),
(400,215,c),
(385,205,l),
(383,182,o),
(381,160,o),
(381,140,cs),
(381,42,o),
(434,-1,o),
(494,-1,cs),
(570,-1,o),
(656,68,o),
(656,175,c)
);
},
{
closed = 1;
nodes = (
(185,153,o),
(235,587,o),
(352,587,cs),
(389,587,o),
(423,533,o),
(436,397,c),
(438,499,l),
(401,307,o),
(319,153,o),
(269,153,cs)
);
}
);
width = 693;
},
{
associatedMasterId = "935688F5-83D3-4ABE-8A3A-DDCBCDDAE821";
layerId = "92AB1A6D-14EA-4B4B-81BD-D554112B6E6B";
name = "May 31, 23, 15:10";
shapes = (
{
closed = 1;
nodes = (
(656,175,l),
(656,68,o),
(570,-1,o),
(494,-1,cs),
(434,-1,o),
(381,42,o),
(381,140,cs),
(381,273,o),
(451,479,o),
(460,670,c),
(460,728,o),
(648,764,o),
(680,657,c),
(683,649,l),
(642,537,o),
(585,347,o),
(585,210,cs),
(585,133,o),
(621,131,o),
(646,181,c)
);
},
{
closed = 1;
nodes = (
(438,370,l),
(428,526,o),
(391,587,o),
(352,587,cs),
(235,587,o),
(185,153,o),
(269,153,cs),
(323,153,o),
(413,330,o),
(446,541,c),
(458,495,l),
(424,144,o),
(300,0,o),
(193,0,cs),
(-77,0,o),
(7,725,o),
(308,725,cs),
(405,725,o),
(483,626,o),
(459,398,c)
);
}
);
width = 693;
},
{
associatedMasterId = "935688F5-83D3-4ABE-8A3A-DDCBCDDAE821";
layerId = "CB466463-4C26-4C76-92BD-C64ACD40A268";
name = "May 29, 23, 14:00";
shapes = (
{
closed = 1;
nodes = (
(190,206,o),
(329,445,o),
(358,578,c),
(342,574,l),
(371,493,o),
(353,373,o),
(365,249,cs),
(374,153,o),
(394,1,o),
(530,1,cs),
(604,1,o),
(656,67,o),
(656,147,c),
(649,152,l),
(643,140,o),
(625,123,o),
(604,123,cs),
(506,123,o),
(557,468,o),
(517,612,cs),
(496,690,o),
(431,725,o),
(359,725,cs),
(273,725,o),
(177,674,o),
(141,579,c),
(147,576,l),
(199,658,o),
(252,655,o),
(252,591,cs),
(252,448,o),
(-1,244,o),
(-1,82,cs),
(-1,-55,o),
(214,6,o),
(215,70,c)
);
},
{
closed = 1;
nodes = (
(107,159,l),
(156,171,o),
(206,178,o),
(274,178,cs),
(325,178,o),
(385,174,o),
(461,165,c),
(470,188,o),
(477,218,o),
(477,244,cs),
(477,255,o),
(475,265,o),
(472,275,c),
(432,278,o),
(395,281,o),
(362,281,cs),
(247,281,o),
(171,255,o),
(105,169,c)
);
}
);
width = 654;
},
{
anchors = (
{
name = bottom;
pos = (313,0);
},
{
name = ogonek;
pos = (652,10);
},
{
name = top;
pos = (376,720);
}
);
associatedMasterId = "935688F5-83D3-4ABE-8A3A-DDCBCDDAE821";
layerId = "0A4FAAAC-928F-4571-893B-44A107AAC89E";
name = "Aug 6, 23, 20:49";
shapes = (
{
closed = 1;
nodes = (
(135,-4,o),
(188,21,o),
(188,52,cs),
(188,231,o),
(346,437,o),
(346,608,c),
(330,604,l),
(421,375,o),
(289,-4,o),
(518,-4,cs),
(592,-4,o),
(644,62,o),
(644,142,c),
(637,147,l),
(632,135,o),
(613,118,o),
(592,118,cs),
(494,118,o),
(545,468,o),
(505,612,cs),
(484,690,o),
(419,725,o),
(347,725,cs),
(268,725,o),
(168,671,o),
(168,550,c),
(179,548,l),
(191,620,o),
(240,637,o),
(240,591,cs),
(240,448,o),
(8,245,o),
(8,61,cs),
(8,14,o),
(46,-4,o),
(87,-4,cs)
);
},
{
closed = 1;
nodes = (
(95,159,l),
(144,171,o),
(194,178,o),
(262,178,cs),
(313,178,o),
(373,174,o),
(449,165,c),
(458,188,o),
(465,218,o),
(465,244,cs),
(465,255,o),
(463,265,o),
(460,275,c),
(420,278,o),
(383,281,o),
(350,281,cs),
(235,281,o),
(159,255,o),
(93,169,c)
);
}
);
width = 670;
},
{
anchors = (
{
name = bottom;
pos = (307,0);
},
{
name = ogonek;
pos = (576,10);
},
{
name = top;
pos = (349,710);
}
);
associatedMasterId = "935688F5-83D3-4ABE-8A3A-DDCBCDDAE821";
layerId = "2AD15389-AC5E-44EC-9364-EE165967CBB1";
name = "Aug 30, 23, 21:36";
shapes = (
{
closed = 1;
nodes = (
(130,-4,o),
(178,21,o),
(178,52,cs),
(178,92,o),
(186,134,o),
(198,176,c),
(216,177,o),
(235,178,o),
(256,178,cs),
(289,178,o),
(329,176,o),
(371,173,c),
(385,49,o),
(450,-4,o),
(511,-4,cs),
(576,-4,o),
(638,53,o),
(638,146,c),
(631,151,l),
(626,139,o),
(607,122,o),
(586,122,cs),
(488,122,o),
(539,468,o),
(501,605,cs),
(478,689,o),
(412,726,o),
(344,726,cs),
(255,726,o),
(162,664,o),
(162,550,c),
(173,548,l),
(181,593,o),
(203,617,o),
(218,617,cs),
(227,617,o),
(234,608,o),
(234,591,cs),
(234,448,o),
(2,245,o),
(2,61,cs),
(2,14,o),
(40,-4,o),
(81,-4,cs)
);
},
{
closed = 1;
nodes = (
(273,374,o),
(324,482,o),
(335,578,c),
(364,488,o),
(363,380,o),
(366,281,c),
(344,281,ls),
(301,281,o),
(264,278,o),
(231,269,c)
);
}
);
width = 664;
},
{
anchors = (
{
name = bottom;
pos = (313,0);
},
{
name = ogonek;
pos = (582,10);
},
{
name = top;
pos = (355,710);
}
);
associatedMasterId = "935688F5-83D3-4ABE-8A3A-DDCBCDDAE821";
layerId = "16C9F4BB-E01A-4589-AA75-917230D14F94";
name = "Aug 29, 23, 12:45";
shapes = (
{
closed = 1;
nodes = (
(136,-4,o),
(184,21,o),
(184,52,cs),
(184,102,o),
(196,154,o),
(213,206,c),
(181,175,l),
(205,176,o),
(232,178,o),
(262,178,cs),
(295,178,o),
(335,176,o),
(377,173,c),
(391,49,o),
(456,-4,o),
(517,-4,cs),
(582,-4,o),
(644,53,o),
(644,146,c),
(637,151,l),
(632,139,o),
(613,122,o),
(592,122,cs),
(494,122,o),
(545,468,o),
(507,605,cs),
(484,689,o),
(418,726,o),
(350,726,cs),
(261,726,o),
(168,664,o),
(168,550,c),
(179,548,l),
(187,593,o),
(209,617,o),
(224,617,cs),
(233,617,o),
(240,608,o),
(240,591,cs),
(240,448,o),
(8,245,o),
(8,61,cs),
(8,14,o),
(46,-4,o),
(87,-4,cs)
);
},
{
closed = 1;
nodes = (
(226,241,l),
(271,360,o),
(334,483,o),
(342,591,c),
(336,592,l),
(373,491,o),
(368,363,o),
(373,252,c),
(415,281,l),
(350,281,ls),
(298,281,o),
(254,276,o),
(216,262,c)
);
}
);
width = 670;
},
{
layerId = "935688F5-83D3-4ABE-8A3A-DDCBCDDAE821";
shapes = (
{
closed = 1;
nodes = (
(142,-4,o),
(190,21,o),
(190,52,c),
(190,92,o),
(198,134,o),
(210,176,c),
(228,177,o),
(247,178,o),
(269,178,cs),
(301,178,o),
(341,176,o),
(383,173,c),
(397,49,o),
(462,-4,o),
(524,-4,cs),
(588,-4,o),
(650,53,o),
(650,146,c),
(643,151,l),
(638,139,o),
(619,122,o),
(597,122,cs),
(573,122,o),
(558,144,o),
(549,178,cs),
(534,230,o),
(533,311,o),
(529,473,c),
(529,473,o),
(527,554,o),
(513,605,cs),
(490,689,o),
(424,726,o),
(356,726,cs),
(267,726,o),
(174,664,o),
(174,550,c),
(185,548,l),
(193,593,o),
(215,617,o),
(230,617,cs),
(239,617,o),
(246,608,o),
(246,584,cs),
(246,448,o),
(14,245,o),
(14,61,c),
(14,14,o),
(52,-4,o),
(93,-4,cs)
);
},
{
closed = 1;
nodes = (
(285,374,o),
(336,482,o),
(347,578,c),
(376,488,o),
(375,380,o),
(378,281,c),
(356,281,ls),
(313,281,o),
(276,278,o),
(243,269,c)
);
}
);
width = 670;
}
);
unicode = 65;
}
{
glyphname = B;
layers = (
{
anchors = (
{
name = bottom;
pos = (303,0);
},
{
name = center;
pos = (334,355);
},
{
name = top;
pos = (365,710);
}
);
associatedMasterId = "935688F5-83D3-4ABE-8A3A-DDCBCDDAE821";
layerId = "F99B04F5-5ABE-4673-BAC4-D1F7099A7FEC";
name = "Oct 1, 23, 18:36";
shapes = (
{
closed = 1;
nodes = (
(486,-7,o),
(627,127,o),
(627,241,cs),
(627,306,o),
(582,364,o),
(482,387,c),
(565,425,o),
(609,482,o),
(609,549,cs),
(609,664,o),
(482,730,o),
(349,730,cs),
(204,730,o),
(51,651,o),
(51,475,c),
(57,472,l),
(98,540,o),
(138,580,o),
(163,580,cs),
(175,580,o),
(180,570,o),
(180,554,cs),
(180,478,o),
(74,257,o),
(62,163,cs),
(61,158,o),
(60,149,o),
(60,138,cs),
(60,35,o),
(145,-7,o),
(267,-7,cs)
);
},
{
closed = 1;
nodes = (
(248,115,o),
(234,133,o),
(234,161,cs),
(234,209,o),
(277,287,o),
(285,350,c),
(393,339,o),
(442,287,o),
(442,234,cs),
(442,175,o),
(381,115,o),
(295,115,cs)
);
},
{
closed = 1;
nodes = (
(313,457,o),
(318,495,o),
(318,534,cs),
(318,558,o),
(316,583,o),
(311,609,c),
(414,609,o),
(460,567,o),
(460,522,cs),
(460,470,o),
(398,415,o),
(306,417,c)
);
}
);
width = 658;
},
{
associatedMasterId = "935688F5-83D3-4ABE-8A3A-DDCBCDDAE821";
layerId = "4D56D242-6985-451F-A96F-75F13E053B2E";
name = "Jun 5, 23, 12:04";
shapes = (
{
closed = 1;
nodes = (
(83,549,o),
(125,579,o),
(146,579,cs),
(196,579,o),
(55,267,o),
(43,96,cs),
(34,-15,o),
(158,-25,o),
(220,33,c),
(212,236,o),
(314,405,o),
(285,601,c),
(416,602,o),
(492,530,o),
(433,415,c),
(264,516,o),
(285,196,o),
(440,317,c),
(516,262,o),
(458,64,o),
(261,64,c),
(258,59,l),
(474,-173,o),
(835,283,o),
(458,391,c),
(463,347,l),
(917,673,o),
(10,940,o),
(43,475,c)
);
}
);
width = 638;
},
{
associatedMasterId = "935688F5-83D3-4ABE-8A3A-DDCBCDDAE821";
layerId = "2106C7B1-C996-4470-AD82-731AC2F9169A";
name = "Jun 5, 23, 11:10";
shapes = (
{
closed = 1;
nodes = (
(82,551,o),
(110,587,o),
(158,602,c),
(155,410,o),
(63,273,o),
(50,96,cs),
(41,-15,o),
(170,-25,o),
(234,33,c),
(226,244,o),
(340,426,o),
(300,624,c),
(500,624,o),
(490,414,o),
(251,423,c),
(248,339,l),
(543,371,o),
(436,1,o),
(149,151,c),
(145,106,l),
(555,-293,o),
(863,503,o),
(285,389,c),
(281,363,l),
(677,380,o),
(731,734,o),
(290,734,cs),
(50,734,o),
(13,651,o),
(45,503,c)
);
}
);
width = 633;
},
{
associatedMasterId = "935688F5-83D3-4ABE-8A3A-DDCBCDDAE821";
layerId = "830150B3-2D11-4E28-BDB2-CD9EF1EB7A94";
name = "Jun 5, 23, 10:34";
shapes = (
{
closed = 1;
nodes = (
(82,551,o),
(110,587,o),
(158,602,c),
(155,410,o),
(63,273,o),
(50,96,cs),
(41,-15,o),
(170,-25,o),
(234,33,c),
(226,244,o),
(340,426,o),
(300,624,c),
(500,624,o),
(490,404,o),
(251,413,c),
(248,349,l),
(543,381,o),
(436,1,o),
(149,151,c),
(145,106,l),
(555,-293,o),
(863,503,o),
(285,389,c),
(281,363,l),
(677,380,o),
(731,734,o),
(290,734,cs),
(50,734,o),
(13,651,o),
(45,503,c)
);
}
);
width = 633;
},
{
associatedMasterId = "935688F5-83D3-4ABE-8A3A-DDCBCDDAE821";
layerId = "B7A9966C-4759-47C0-8F1F-CFE8257C0D4E";
name = "Jun 5, 23, 10:32";
shapes = (
{
closed = 1;
nodes = (
(75,551,o),
(102,587,o),
(148,602,c),
(146,410,o),
(57,273,o),
(44,96,cs),
(36,-15,o),
(160,-25,o),
(222,33,c),
(214,244,o),
(323,426,o),
(285,624,c),
(478,624,o),
(468,404,o),
(238,413,c),
(235,349,l),
(518,381,o),
(415,1,o),
(139,151,c),
(136,106,l),
(530,-293,o),
(827,503,o),
(270,389,c),
(267,363,l),
(648,380,o),
(699,734,o),
(275,734,cs),
(44,734,o),
(9,651,o),
(39,503,c)
);
}
);
width = 617;
},
{
associatedMasterId = "935688F5-83D3-4ABE-8A3A-DDCBCDDAE821";
layerId = "76BEF801-EAFA-4205-B74C-9A5E08CD37BD";
name = "Jun 2, 23, 16:41";
shapes = (
{
closed = 1;
nodes = (
(132,615,l),
(151,404,o),
(60,282,o),
(56,96,cs),
(54,-15,o),
(178,-25,o),
(237,33,c),
(218,245,o),
(319,409,o),
(267,608,c)
);
},
{
closed = 1;
nodes = (
(419,316,l),
(741,530,o),
(576,725,o),
(252,725,cs),
(23,725,o),
(0,630,o),
(0,504,c),
(76,570,o),
(157,599,o),
(237,599,c),
(413,642,o),
(473,510,o),
(381,380,c)
);
},
{
closed = 1;
nodes = (
(475,380,l),
(337,463,o),
(298,391,o),
(314,334,cs),
(329,280,o),
(394,240,o),
(474,358,c),
(468,378,l)
);
},
{
closed = 1;
nodes = (
(391,305,l),
(501,271,o),
(455,51,o),
(309,98,c),
(302,84,l),
(322,22,o),
(388,2,o),
(432,2,cs),
(538,2,o),
(602,59,o),
(598,173,cs),
(595,256,o),
(531,340,o),
(426,369,c)
);
}
);
width = 727;
},
{
associatedMasterId = "935688F5-83D3-4ABE-8A3A-DDCBCDDAE821";
layerId = "26A56B5C-A76B-4E0F-8BBE-005E923B0725";
name = "Jun 2, 23, 16:26";
shapes = (
{
closed = 1;
nodes = (
(132,601,l),
(151,414,o),
(60,282,o),
(56,96,cs),
(54,-15,o),
(178,-25,o),
(237,33,c),
(218,245,o),
(319,419,o),
(267,594,c)
);
},
{
closed = 1;
nodes = (
(23,725,o),
(0,663,o),
(0,537,c),
(306,663,o),
(566,500,o),
(368,343,c),
(389,296,l),
(736,452,o),
(576,725,o),
(152,725,cs)
);
},
{
closed = 1;
nodes = (
(445,334,l),
(259,532,o),
(245,151,o),
(438,315,c),
(438,334,l)
);
},
{
closed = 0;
nodes = (
(361,285,l),
(505,192,o),
(325,-8,o),
(130,273,c),
(122,268,l),
(128,91,o),
(270,2,o),
(402,2,cs),
(508,2,o),
(602,59,o),
(598,173,cs),
(595,256,o),
(501,320,o),
(396,349,c)
);
}
);
width = 727;
},
{
associatedMasterId = "935688F5-83D3-4ABE-8A3A-DDCBCDDAE821";
layerId = "58081218-977E-48E3-828F-43383D41521E";
name = "Jun 2, 23, 16:24";
shapes = (
{
closed = 1;
nodes = (
(132,601,l),
(151,414,o),
(60,282,o),
(56,96,cs),
(54,-15,o),
(178,-25,o),
(237,33,c),
(218,245,o),
(319,419,o),
(267,594,c)
);
},
{
closed = 1;
nodes = (
(23,725,o),
(0,663,o),
(0,537,c),
(306,663,o),
(566,500,o),
(368,343,c),
(389,296,l),
(736,452,o),
(576,725,o),
(152,725,cs)
);
}
);
width = 727;
},
{
associatedMasterId = "935688F5-83D3-4ABE-8A3A-DDCBCDDAE821";
layerId = "AB1352EB-EBE2-43AC-8921-AF8939609A6B";
name = "Jun 2, 23, 16:10";
shapes = (
{
closed = 1;
nodes = (
(96,611,l),
(75,487,o),
(32,230,o),
(27,74,cs),
(24,-12,o),
(152,-22,o),
(210,36,c),
(213,263,o),
(247,487,o),
(275,597,c)
);
},
{
closed = 1;
nodes = (
(527,722,l),
(509,724,o),
(489,726,o),
(468,726,cs),
(252,726,o),
(242,483,o),
(421,483,c),
(414,605,o),
(474,636,o),
(516,613,c)
);
},
{
closed = 0;
nodes = (
(240,717,l),
(219,719,o),
(200,720,o),
(182,720,cs),
(53,720,o),
(30,663,o),
(30,537,c),
(90,582,o),
(156,588,o),
(222,580,c)
);
},
{
closed = 1;
nodes = (
(516,613,l),
(566,585,o),
(592,480,o),
(451,358,c),
(540,383,l),
(326,608,o),
(254,87,o),
(570,358,c),
(488,314,l),
(583,242,o),
(468,42,o),
(282,137,c),
(267,113,l),
(329,12,o),
(397,-7,o),
(458,-7,cs),
(570,-7,o),
(683,54,o),
(706,173,cs),
(722,260,o),
(681,353,o),
(578,383,c),
(576,358,l),
(801,453,o),
(793,692,o),
(527,722,c)
);
}
);
width = 727;
},
{
anchors = (
{
name = bottom;
pos = (306,0);
},
{
name = center;
pos = (337,355);
},
{
name = top;
pos = (368,710);
}
);
associatedMasterId = "935688F5-83D3-4ABE-8A3A-DDCBCDDAE821";
layerId = "16C9F4BB-E01A-4589-AA75-917230D14F94";
name = "Aug 29, 23, 12:45";
shapes = (
{
closed = 1;
nodes = (
(489,-7,o),
(630,127,o),
(630,241,cs),
(630,313,o),
(574,377,o),
(448,394,c),
(449,373,l),
(556,410,o),
(612,474,o),
(612,544,cs),
(612,664,o),
(485,730,o),
(352,730,cs),
(207,730,o),
(54,651,o),
(54,475,c),
(60,472,l),
(101,540,o),
(141,580,o),
(166,580,cs),
(178,580,o),
(183,570,o),
(183,554,cs),
(183,478,o),
(77,257,o),
(65,167,cs),
(64,158,o),
(63,149,o),
(63,141,cs),
(63,35,o),
(148,-7,o),
(253,-7,cs)
);
},
{
closed = 1;
nodes = (
(251,115,o),
(237,133,o),
(237,160,cs),
(237,209,o),
(280,287,o),
(288,350,c),
(396,339,o),
(445,287,o),
(445,234,cs),
(445,175,o),
(384,115,o),
(293,115,cs)
);
},
{
closed = 1;
nodes = (
(316,457,o),
(321,495,o),
(321,533,cs),
(321,558,o),
(319,583,o),
(314,609,c),
(417,609,o),
(463,567,o),
(463,522,cs),
(463,470,o),
(401,415,o),
(309,417,c)
);
}
);
width = 656;
},
{
layerId = "935688F5-83D3-4ABE-8A3A-DDCBCDDAE821";
shapes = (
{
closed = 1;
nodes = (
(486,-7,o),
(627,127,o),
(627,241,cs),
(627,306,o),
(582,364,o),
(482,387,c),
(565,425,o),
(609,482,o),
(609,548,cs),
(609,663,o),
(482,730,o),
(349,730,cs),
(204,730,o),
(51,650,o),
(51,475,c),
(57,472,l),
(98,539,o),
(138,579,o),
(163,579,cs),
(175,579,o),
(180,569,o),
(180,553,cs),
(180,478,o),
(74,257,o),
(62,163,cs),
(61,158,o),
(60,149,o),
(60,138,cs),
(60,35,o),
(145,-7,o),
(267,-7,cs)
);
},
{
closed = 1;
nodes = (
(248,115,o),
(234,133,o),
(234,161,cs),
(234,209,o),
(277,287,o),
(285,350,c),
(393,339,o),
(442,287,o),
(442,234,cs),
(442,175,o),
(381,115,o),
(295,115,cs)
);
},
{
closed = 1;
nodes = (
(313,457,o),
(318,495,o),
(318,533,cs),
(318,557,o),
(316,582,o),
(311,608,c),
(414,608,o),
(460,566,o),
(460,521,cs),
(460,470,o),
(398,415,o),
(306,417,c)
);
}
);
width = 658;
}
);
unicode = 66;
}
{
glyphname = D;
layers = (
{
anchors = (
{
name = bottom;
pos = (295,0);
},
{
name = center;
pos = (356,355);
},
{
name = top;
pos = (387,710);
}
);
associatedMasterId = "935688F5-83D3-4ABE-8A3A-DDCBCDDAE821";
layerId = "8509E822-606B-4F7B-8CC3-887725812BD3";
name = "Sep 15, 23, 19:04";
shapes = (
{
closed = 1;
nodes = (
(531,-7,o),
(678,218,o),
(678,419,cs),
(678,584,o),
(580,733,o),
(351,733,cs),
(167,733,o),
(51,637,o),
(51,476,c),
(57,474,l),
(102,551,o),
(139,582,o),
(156,582,cs),
(165,582,o),
(169,573,o),
(169,558,cs),
(169,486,o),
(81,268,o),
(72,178,cs),
(71,169,o),
(71,163,o),
(71,157,cs),
(71,39,o),
(193,-7,o),
(298,-7,cs)
);
},
{
closed = 1;
nodes = (
(270,125,o),
(255,151,o),
(255,192,cs),
(255,271,o),
(310,408,o),
(310,532,cs),
(310,560,o),
(307,587,o),
(300,612,c),
(438,612,o),
(494,506,o),
(494,393,cs),
(494,264,o),
(421,125,o),
(315,125,cs)
);
}
);
width = 698;
},
{
anchors = (
{
name = bottom;
pos = (288,0);
},
{
name = center;
pos = (349,355);
},
{
name = top;
pos = (380,710);
}
);
associatedMasterId = "935688F5-83D3-4ABE-8A3A-DDCBCDDAE821";
layerId = "E4E9A73B-78A5-445E-A1F7-F1E2CF04AB21";
name = "Oct 1, 23, 18:37";
shapes = (
{
closed = 1;
nodes = (
(524,-7,o),
(671,218,o),
(671,419,cs),
(671,584,o),
(573,733,o),
(344,733,cs),
(160,733,o),
(44,637,o),
(44,476,c),
(50,474,l),
(95,551,o),
(132,582,o),
(149,582,cs),
(158,582,o),
(162,573,o),
(162,558,cs),
(162,486,o),
(74,268,o),
(65,178,cs),
(64,169,o),
(64,163,o),
(64,157,cs),
(64,39,o),
(186,-7,o),
(291,-7,cs)
);
},
{
closed = 1;
nodes = (
(263,125,o),
(248,151,o),
(248,192,cs),
(248,271,o),
(303,408,o),
(303,532,cs),
(303,560,o),
(300,587,o),
(293,612,c),
(431,612,o),
(487,506,o),
(487,393,cs),
(487,264,o),
(414,125,o),
(308,125,cs)
);
}
);
width = 688;
},
{
associatedMasterId = "935688F5-83D3-4ABE-8A3A-DDCBCDDAE821";
layerId = "DC6971C8-649D-484D-B0B7-858E3BEA5A5C";
name = "Jun 5, 23, 11:50";
shapes = (
{
closed = 1;
nodes = (
(611,-6,o),
(785,220,o),
(785,421,cs),
(785,764,o),
(237,848,o),
(141,510,c),
(144,509,l),
(207,569,o),
(238,583,o),
(254,583,cs),
(312,583,o),
(178,288,o),
(168,184,cs),
(154,45,o),
(275,-6,o),
(372,-6,cs)
);
},
{
closed = 1;
nodes = (
(261,132,o),
(446,397,o),
(406,595,c),
(710,595,o),
(622,132,o),
(383,132,cs)
);
}
);
width = 745;
},
{
associatedMasterId = "935688F5-83D3-4ABE-8A3A-DDCBCDDAE821";
layerId = "B06C0CCE-6ACE-4070-BCE2-C7941B909262";
name = "Jun 5, 23, 10:58";
shapes = (
{
closed = 1;
nodes = (
(211,31,l),
(757,19,o),
(731,734,o),
(290,734,cs),
(50,734,o),
(13,651,o),
(45,503,c),
(82,551,o),
(110,587,o),
(158,602,c),
(155,410,o),
(63,273,o),
(50,96,cs),
(41,-15,o),
(170,-25,o),
(234,33,c),
(226,244,o),
(340,426,o),
(300,624,c),
(500,624,o),
(570,94,o),
(181,91,c)
);
}
);
width = 745;
},
{
associatedMasterId = "935688F5-83D3-4ABE-8A3A-DDCBCDDAE821";
layerId = "F0856194-1714-485F-9806-EB4E865B72EC";
name = "Jun 5, 23, 10:53";
shapes = (
{
closed = 1;
nodes = (
(578,112,o),
(541,584,o),
(69,497,c),
(52,577,l),
(1006,700,o),
(570,-86,o),
(145,0,c),
(-19,43,o),
(150,327,o),
(87,431,c),
(87,438,l),
(167,528,o),
(281,505,o),
(281,382,cs),
(281,285,o),
(193,186,o),
(193,138,cs),
(193,134,o),
(193,131,o),
(194,128,c)
);
}
);
width = 600;
},
{
anchors = (
{
name = bottom;
pos = (328,0);
},
{
name = center;
pos = (359,355);
},
{
name = top;
pos = (390,710);
}
);
associatedMasterId = "935688F5-83D3-4ABE-8A3A-DDCBCDDAE821";
layerId = "16C9F4BB-E01A-4589-AA75-917230D14F94";
name = "Aug 29, 23, 12:45";
shapes = (
{
closed = 1;
nodes = (
(723,-7,o),
(864,733,o),
(318,733,cs),
(170,733,o),
(54,637,o),
(54,476,c),
(60,474,l),
(105,551,o),
(142,582,o),
(163,582,cs),
(212,582,o),
(86,287,o),
(75,183,cs),
(61,44,o),
(190,-7,o),
(287,-7,cs)
);
},
{
closed = 1;
nodes = (
(165,125,o),
(356,414,o),
(303,612,c),
(600,612,o),
(517,125,o),
(298,125,cs)
);
}
);
width = 699;
},
{
background = {
shapes = (
{
closed = 1;
nodes = (
(542,112,o),
(505,584,o),
(33,497,c),
(16,577,l),
(970,700,o),
(534,-86,o),
(109,0,c),
(-55,43,o),
(113,327,o),
(51,431,c),
(51,438,l),
(131,528,o),
(245,505,o),
(245,382,cs),
(245,285,o),
(157,186,o),
(157,138,cs),
(157,134,o),
(157,131,o),
(158,128,c)
);
}
);
};
layerId = "935688F5-83D3-4ABE-8A3A-DDCBCDDAE821";
shapes = (
{
closed = 1;
nodes = (
(524,-7,o),
(671,218,o),
(671,419,cs),
(671,584,o),
(573,733,o),
(344,733,cs),
(160,733,o),
(44,637,o),
(44,476,c),
(50,474,l),
(95,551,o),
(132,582,o),
(149,582,cs),
(158,582,o),
(162,573,o),
(162,558,cs),
(162,486,o),
(74,268,o),
(65,178,cs),
(64,169,o),
(64,163,o),
(64,157,cs),
(64,39,o),
(186,-7,o),
(291,-7,cs)
);
},
{
closed = 1;
nodes = (
(263,125,o),
(248,151,o),
(248,192,cs),
(248,271,o),
(303,408,o),
(303,532,cs),
(303,560,o),
(300,587,o),
(293,612,c),
(431,612,o),
(487,506,o),
(487,393,cs),
(487,264,o),
(414,125,o),
(308,125,cs)
);
}
);
width = 688;
}
);
unicode = 68;
}
{
glyphname = E;
layers = (
{
anchors = (
{
name = bottom;
pos = (214,0);
},
{
name = ogonek;
pos = (397,10);
},
{
name = top;
pos = (346,710);
},
{
name = topleft;
pos = (59,710);
}
);
associatedMasterId = "935688F5-83D3-4ABE-8A3A-DDCBCDDAE821";
layerId = "B71B26DC-89F4-429F-949B-B002724E0AEE";
name = "Oct 1, 23, 11:36";
shapes = (
{
closed = 1;
nodes = (
(353,-7,o),
(502,87,o),
(508,273,c),
(500,278,l),
(426,171,o),
(354,134,o),
(299,134,cs),
(241,134,o),
(203,177,o),
(203,224,cs),
(203,252,o),
(216,281,o),
(246,305,c),
(275,286,o),
(299,278,o),
(320,278,cs),
(372,278,o),
(399,326,o),
(399,370,cs),
(399,407,o),
(380,441,o),
(338,441,cs),
(318,441,o),
(293,433,o),
(263,414,c),
(246,445,o),
(239,474,o),
(239,500,cs),
(239,571,o),
(293,620,o),
(334,620,cs),
(359,620,o),
(379,602,o),
(379,561,cs),
(379,541,o),
(374,515,o),
(363,483,c),
(470,483,o),
(532,553,o),
(532,617,cs),
(532,674,o),
(485,726,o),
(379,726,cs),
(177,726,o),
(71,616,o),
(71,511,cs),
(71,459,o),
(98,408,o),
(153,373,c),
(63,335,o),
(13,248,o),
(13,166,cs),
(13,76,o),
(75,-7,o),
(214,-7,cs)
);
}
);
width = 537;
},
{
associatedMasterId = "935688F5-83D3-4ABE-8A3A-DDCBCDDAE821";
layerId = "F988320A-4D31-4F53-911F-FE7672E9B28D";
name = "Jun 21, 23, 14:43";
shapes = (
{
closed = 1;
nodes = (
(181,358,l),
(436,87,o),
(482,608,o),
(217,383,c),
(300,358,l),
(92,582,o),
(434,750,o),
(359,483,c),
(538,483,o),
(583,726,o),
(367,726,cs),
(67,726,o),
(-23,451,o),
(176,358,c),
(179,383,l),
(-38,324,o),
(-38,-7,o),
(210,-7,cs),
(349,-7,o),
(498,87,o),
(504,273,c),
(496,278,l),
(291,-17,o),
(102,216,o),
(254,314,c)
);
}
);
width = 542;
},
{
anchors = (
{
name = bottom;
pos = (249,0);
},
{
name = ogonek;
pos = (398,10);
},
{
name = top;
pos = (312,720);
},
{
name = topleft;
pos = (61,720);
}
);
associatedMasterId = "935688F5-83D3-4ABE-8A3A-DDCBCDDAE821";
layerId = "A2B95169-B3E7-4EDB-B80E-7CB461240CC0";
name = "Aug 9, 23, 20:54";
shapes = (
{
closed = 1;
nodes = (
(354,-7,o),
(503,87,o),
(509,273,c),
(501,278,l),
(296,-17,o),
(107,216,o),
(259,314,c),
(186,358,l),
(441,87,o),
(487,608,o),
(222,383,c),
(305,358,l),
(97,582,o),
(459,750,o),
(364,483,c),
(563,483,o),
(608,726,o),
(380,726,cs),
(62,726,o),
(-18,451,o),
(181,358,c),
(184,383,l),
(-33,324,o),
(-63,-7,o),
(215,-7,cs)
);
}
);
width = 541;
},
{
anchors = (
{
name = bottom;
pos = (228,0);
},
{
name = ogonek;
pos = (466,10);
},
{
name = top;
pos = (347,710);
},
{
name = topleft;
pos = (60,710);
}
);
associatedMasterId = "935688F5-83D3-4ABE-8A3A-DDCBCDDAE821";
layerId = "16C9F4BB-E01A-4589-AA75-917230D14F94";
name = "Aug 29, 23, 12:45";
shapes = (
{
closed = 1;
nodes = (
(354,-7,o),
(503,87,o),
(509,273,c),
(501,278,l),
(427,171,o),
(355,134,o),
(300,134,cs),
(242,134,o),
(204,177,o),
(204,224,cs),
(204,252,o),
(217,281,o),
(247,305,c),
(276,286,o),
(300,278,o),
(321,278,cs),
(373,278,o),
(400,326,o),
(400,370,cs),
(400,407,o),
(381,441,o),
(339,441,cs),
(319,441,o),
(294,433,o),
(264,414,c),
(247,445,o),
(240,474,o),
(240,500,cs),
(240,571,o),
(294,620,o),
(335,620,cs),
(360,620,o),
(380,602,o),
(380,561,cs),
(380,541,o),
(375,515,o),
(364,483,c),
(471,483,o),
(533,553,o),
(533,617,cs),
(533,674,o),
(486,726,o),
(380,726,cs),
(178,726,o),
(72,616,o),
(72,511,cs),
(72,459,o),
(99,408,o),
(154,373,c),
(64,335,o),
(14,248,o),
(14,166,cs),
(14,76,o),
(76,-7,o),
(215,-7,cs)
);
}
);
width = 541;
},
{
background = {
shapes = (
{
closed = 1;
nodes = (
(353,-7,o),
(502,87,o),
(508,273,c),
(500,278,l),
(434,183,o),
(342,136,o),
(274,136,cs),
(221,136,o),
(183,164,o),
(183,219,cs),
(183,254,o),
(199,286,o),
(236,312,c),
(270,288,o),
(296,278,o),
(320,278,cs),
(372,278,o),
(399,326,o),
(399,370,cs),
(399,407,o),
(380,441,o),
(338,441,cs),
(318,441,o),
(293,433,o),
(263,414,c),
(246,445,o),
(239,474,o),
(239,500,cs),
(239,571,o),
(293,620,o),
(334,620,cs),
(359,620,o),
(379,602,o),
(379,561,cs),
(379,541,o),
(374,515,o),
(363,483,c),
(470,483,o),
(532,553,o),
(532,618,cs),
(532,674,o),
(485,726,o),
(360,726,cs),
(177,726,o),
(71,616,o),
(71,512,cs),
(71,459,o),
(98,408,o),
(153,373,c),
(63,335,o),
(13,248,o),
(13,167,cs),
(13,76,o),
(75,-7,o),
(210,-7,cs)
);
}
);
};
layerId = "935688F5-83D3-4ABE-8A3A-DDCBCDDAE821";
shapes = (
{
closed = 1;
nodes = (
(353,-7,o),
(502,87,o),
(508,273,c),
(500,278,l),
(434,183,o),
(343,136,o),
(276,136,cs),
(222,136,o),
(183,164,o),
(183,219,cs),
(183,254,o),
(202,285,o),
(240,311,c),
(273,288,o),
(297,278,o),
(321,278,cs),
(371,278,o),
(397,325,o),
(397,368,cs),
(397,404,o),
(379,438,o),
(339,438,cs),
(319,438,o),
(294,430,o),
(266,411,c),
(249,442,o),
(241,474,o),
(241,500,cs),
(241,571,o),
(294,620,o),
(335,620,cs),
(359,620,o),
(379,602,o),
(379,561,cs),
(379,541,o),
(374,515,o),
(363,483,c),
(470,483,o),
(532,553,o),
(532,618,cs),
(532,674,o),
(485,726,o),
(360,726,cs),
(177,726,o),
(71,616,o),
(71,512,cs),
(71,459,o),
(98,408,o),
(153,373,c),
(63,335,o),
(13,248,o),
(13,167,cs),
(13,76,o),
(75,-7,o),
(211,-7,cs)
);
}
);
width = 537;
}
);
unicode = 69;
}
{
glyphname = F;
layers = (
{
anchors = (
{
name = bottom;
pos = (266,0);
},
{
name = top;
pos = (328,710);
}
);
associatedMasterId = "935688F5-83D3-4ABE-8A3A-DDCBCDDAE821";
layerId = "81244A48-7123-46C3-9862-79512F94EEF2";
name = "Sep 15, 23, 17:39";
shapes = (
{
closed = 1;
nodes = (
(239,132,o),
(258,229,o),
(274,321,c),
(344,316,o),
(411,301,o),
(461,275,c),
(468,278,l),
(492,328,o),
(500,388,o),
(482,427,c),
(453,434,o),
(363,427,o),
(285,389,c),
(294,454,o),
(298,517,o),
(283,578,c),
(356,564,o),
(427,540,o),
(486,540,cs),
(621,540,o),
(632,691,o),
(564,735,c),
(506,666,o),
(308,720,o),
(199,720,cs),
(73,720,o),
(50,668,o),
(50,542,c),
(83,567,o),
(118,580,o),
(154,585,c),
(164,409,o),
(76,274,o),
(76,125,cs),
(76,-19,o),
(189,-29,o),
(248,29,c)
);
}
);
width = 576;
},
{
anchors = (
{
name = bottom;
pos = (266,0);
},
{
name = top;
pos = (367,710);
}
);
associatedMasterId = "935688F5-83D3-4ABE-8A3A-DDCBCDDAE821";
layerId = "4F0A94A4-15FF-4AEB-AA64-A3E4E45EAF7C";
name = "Oct 1, 23, 18:38";
shapes = (
{
closed = 1;
nodes = (
(246,47,o),
(246,66,o),
(246,84,cs),
(246,166,o),
(261,245,o),
(274,321,c),
(344,316,o),
(411,301,o),
(461,275,c),
(468,278,l),
(483,309,o),
(492,345,o),
(492,376,cs),
(492,395,o),
(489,412,o),
(482,427,c),
(476,429,o),
(466,429,o),
(455,429,cs),
(414,429,o),
(346,419,o),
(285,389,c),
(290,423,o),
(293,456,o),
(293,489,cs),
(293,519,o),
(290,549,o),
(283,578,c),
(356,564,o),
(427,540,o),
(486,540,cs),
(569,540,o),
(605,597,o),
(605,651,cs),
(605,685,o),
(590,718,o),
(564,735,c),
(541,708,o),
(498,700,o),
(446,700,cs),
(365,700,o),
(266,720,o),
(199,720,cs),
(73,720,o),
(50,668,o),
(50,542,c),
(83,567,o),
(118,580,o),
(154,585,c),
(164,409,o),
(76,274,o),
(76,125,cs),
(76,33,o),
(122,-4,o),
(170,-4,cs),
(198,-4,o),
(227,8,o),
(248,29,c)
);
}
);
width = 576;
},
{
associatedMasterId = "935688F5-83D3-4ABE-8A3A-DDCBCDDAE821";
layerId = "5BBF5342-E635-46A8-A4E3-9E04C3ADD97B";
name = "Jun 9, 23, 17:54";
shapes = (
{
closed = 1;
nodes = (
(186,642,o),
(361,535,o),
(486,535,cs),
(621,535,o),
(632,691,o),
(564,735,c),
(506,666,o),
(308,720,o),
(199,720,cs),
(73,720,o),
(50,663,o),
(50,537,c)
);
},
{
closed = 1;
nodes = (
(152,601,l),
(171,414,o),
(80,282,o),
(74,96,cs),
(71,-15,o),
(195,-25,o),
(254,33,c),
(235,245,o),
(336,419,o),
(284,594,c)
);
},
{
closed = 1;
nodes = (
(218,322,l),
(309,323,o),
(405,303,o),
(468,278,c),
(485,321,o),
(496,381,o),
(482,427,c),
(444,436,o),
(299,422,o),
(216,341,c)
);
}
);
width = 595;
},
{
associatedMasterId = "935688F5-83D3-4ABE-8A3A-DDCBCDDAE821";
layerId = "93BD2E6C-F53C-4120-968D-69A73ACAC4D9";
name = "Jun 1, 23, 16:52";
shapes = (
{
closed = 1;
nodes = (
(145,620,o),
(358,535,o),
(532,535,cs),
(654,535,o),
(654,702,o),
(586,725,c),
(528,656,o),
(311,720,o),
(202,720,cs),
(73,720,o),
(50,663,o),
(50,537,c)
);
},
{
closed = 1;
nodes = (
(152,601,l),
(171,414,o),
(80,282,o),
(77,130,cs),
(74,-15,o),
(198,-25,o),
(257,33,c),
(238,245,o),
(339,419,o),
(287,594,c)
);
},
{
closed = 1;
nodes = (
(152,280,l),
(323,308,o),
(358,300,o),
(440,268,c),
(457,311,o),
(469,381,o),
(455,427,c),
(401,440,o),
(256,406,o),
(154,288,c)
);
}
);
width = 682;
},
{
anchors = (
{
name = bottom;
pos = (266,0);
},
{
name = top;
pos = (328,710);
}
);
associatedMasterId = "935688F5-83D3-4ABE-8A3A-DDCBCDDAE821";
layerId = "16C9F4BB-E01A-4589-AA75-917230D14F94";
name = "Aug 29, 23, 12:45";
shapes = (
{
closed = 1;
nodes = (
(229,241,o),
(330,424,o),
(278,599,c),
(152,606,l),
(171,419,o),
(76,280,o),
(76,125,cs),
(76,-19,o),
(189,-29,o),
(248,29,c)
);
},
{
closed = 1;
nodes = (
(468,278,l),
(492,328,o),
(500,388,o),
(482,427,c),
(444,436,o),
(299,422,o),
(216,341,c),
(218,322,l),
(308,323,o),
(398,308,o),
(461,275,c)
);
},
{
closed = 1;
nodes = (
(621,540,o),
(632,691,o),
(564,735,c),
(506,666,o),
(308,720,o),
(199,720,cs),
(73,720,o),
(50,668,o),
(50,542,c),
(186,647,o),
(361,540,o),
(486,540,cs)
);
}
);
width = 576;
},
{
layerId = "935688F5-83D3-4ABE-8A3A-DDCBCDDAE821";
shapes = (
{
closed = 1;
nodes = (
(170,-4,o),
(199,8,o),
(220,29,c),
(218,47,o),
(218,66,o),
(218,84,cs),
(218,166,o),
(233,245,o),
(246,321,c),
(316,316,o),
(383,301,o),
(433,275,c),
(440,278,l),
(455,309,o),
(464,345,o),
(464,376,cs),
(464,395,o),
(461,412,o),
(454,427,c),
(446,429,o),
(437,430,o),
(426,430,cs),
(376,430,o),
(299,410,o),
(257,389,c),
(262,423,o),
(265,456,o),
(265,489,cs),
(265,519,o),
(262,549,o),
(255,578,c),
(328,564,o),
(399,540,o),
(458,540,cs),
(541,540,o),
(577,597,o),
(577,651,cs),
(577,685,o),
(562,718,o),
(536,735,c),
(513,708,o),
(470,700,o),
(418,700,cs),
(337,700,o),
(238,720,o),
(171,720,cs),
(45,720,o),
(22,668,o),
(22,542,c),
(55,567,o),
(90,580,o),
(126,585,c),
(136,409,o),
(48,274,o),
(48,125,cs),
(48,33,o),
(94,-4,o),
(142,-4,cs)
);
}
);
width = 548;
}
);
unicode = 70;
}
{
glyphname = G;
layers = (
{
anchors = (
{
name = bottom;
pos = (297,0);
},
{
name = top;
pos = (376,710);
}
);
associatedMasterId = "935688F5-83D3-4ABE-8A3A-DDCBCDDAE821";
layerId = "4F0A94A4-15FF-4AEB-AA64-A3E4E45EAF7C";
name = "Oct 1, 23, 18:38";
shapes = (
{
closed = 1;
nodes = (
(489,-152,o),
(552,-116,o),
(565,-69,c),
(531,12,o),
(517,51,o),
(517,87,cs),
(517,97,o),
(518,108,o),
(521,119,c),
(570,149,o),
(589,189,o),
(589,227,cs),
(589,288,o),
(538,345,o),
(489,345,cs),
(442,345,o),
(396,293,o),
(396,143,cs),
(396,142,l),
(380,136,o),
(365,133,o),
(350,133,cs),
(274,133,o),
(217,210,o),
(217,358,cs),
(217,475,o),
(279,601,o),
(357,601,cs),
(390,601,o),
(415,586,o),
(415,536,cs),
(415,513,o),
(410,483,o),
(397,444,c),
(523,444,o),
(582,510,o),
(582,579,cs),
(582,670,o),
(497,725,o),
(394,725,cs),
(237,725,o),
(39,600,o),
(39,301,cs),
(39,98,o),
(158,-6,o),
(285,-6,cs),
(319,-6,o),
(352,1,o),
(385,16,c),
(386,-35,o),
(390,-93,o),
(398,-150,c),
(407,-152,o),
(416,-152,o),
(425,-152,cs)
);
}
);
width = 621;
},
{
associatedMasterId = "935688F5-83D3-4ABE-8A3A-DDCBCDDAE821";
layerId = "6BCBD752-4CEC-44B5-8550-E74F34970C73";
name = "May 30, 23, 12:32";
shapes = (
{
closed = 1;
nodes = (
(770,273,o),
(342,533,o),
(396,132,c),
(382,75,o),
(450,-151,o),
(399,-162,c),
(400,-170,l),
(472,-183,o),
(570,-125,o),
(577,-69,cs),
(585,2,o),
(511,62,o),
(523,109,c)
);
},
{
closed = 1;
nodes = (
(449,169,l),
(415,145,o),
(382,133,o),
(352,133,cs),
(276,133,o),
(219,210,o),
(219,358,cs),
(219,475,o),
(281,601,o),
(359,601,cs),
(406,601,o),
(439,568,o),
(399,444,c),
(658,444,o),
(635,726,o),
(392,726,cs),
(157,726,o),
(25,501,o),
(25,301,cs),
(25,-13,o),
(316,-76,o),
(471,73,c)
);
}
);
width = 607;
},
{
anchors = (
{
name = bottom;
pos = (301,0);
},
{
name = top;
pos = (363,710);
}
);
associatedMasterId = "935688F5-83D3-4ABE-8A3A-DDCBCDDAE821";
layerId = "16C9F4BB-E01A-4589-AA75-917230D14F94";
name = "Aug 29, 23, 12:45";
shapes = (
{
closed = 1;
nodes = (
(353,-6,o),
(418,21,o),
(473,73,c),
(451,169,l),
(417,145,o),
(384,133,o),
(354,133,cs),
(278,133,o),
(221,210,o),
(221,358,cs),
(221,475,o),
(283,601,o),
(361,601,cs),
(394,601,o),
(419,586,o),
(419,536,cs),
(419,513,o),
(414,483,o),
(401,444,c),
(527,444,o),
(586,510,o),
(586,579,cs),
(586,670,o),
(501,725,o),
(398,725,cs),
(241,725,o),
(43,600,o),
(43,301,cs),
(43,98,o),
(162,-6,o),
(289,-6,cs)
);
},
{
closed = 1;
nodes = (
(493,-152,o),
(556,-116,o),
(569,-69,c),
(535,12,o),
(521,51,o),
(521,87,cs),
(521,97,o),
(522,108,o),
(525,119,c),
(574,149,o),
(593,189,o),
(593,227,cs),
(593,288,o),
(542,345,o),
(493,345,cs),
(446,345,o),
(400,293,o),
(400,143,c),
(393,114,o),
(389,73,o),
(389,25,cs),
(389,-28,o),
(394,-90,o),
(402,-150,c),
(411,-152,o),
(420,-152,o),
(429,-152,cs)
);
}
);
width = 645;
},
{
layerId = "935688F5-83D3-4ABE-8A3A-DDCBCDDAE821";
shapes = (
{
closed = 1;
nodes = (
(489,-152,o),
(552,-116,o),
(565,-69,c),
(531,12,o),
(517,51,o),
(517,87,cs),
(517,97,o),
(518,108,o),
(521,119,c),
(570,149,o),
(589,189,o),
(589,227,cs),
(589,288,o),
(538,345,o),
(489,345,cs),
(442,345,o),
(396,293,o),
(396,143,cs),
(396,142,l),
(380,136,o),
(365,133,o),
(350,133,cs),
(274,133,o),
(217,210,o),
(217,340,cs),
(217,475,o),
(279,601,o),
(362,601,cs),
(390,601,o),
(415,586,o),
(415,536,cs),
(415,513,o),
(410,483,o),
(397,444,c),
(523,444,o),
(582,510,o),
(582,583,cs),
(582,670,o),
(497,725,o),
(393,725,cs),
(237,725,o),
(39,600,o),
(39,317,cs),
(39,98,o),
(158,-6,o),
(286,-6,cs),
(319,-6,o),
(352,1,o),
(385,16,c),
(386,-35,o),
(390,-93,o),
(398,-150,c),
(407,-152,o),
(416,-152,o),
(425,-152,cs)
);
}
);
width = 621;
}
);
unicode = 71;
}
{
glyphname = H;
layers = (
{
anchors = (
{
name = bottom;
pos = (323,0);
},
{
name = center;
pos = (354,355);
},
{
name = top;
pos = (385,710);
},
{
name = topleft;
pos = (47,710);
}
);
associatedMasterId = "935688F5-83D3-4ABE-8A3A-DDCBCDDAE821";
layerId = "4F0A94A4-15FF-4AEB-AA64-A3E4E45EAF7C";
name = "Oct 1, 23, 18:38";
shapes = (
{
closed = 1;
nodes = (
(181,-4,o),
(223,24,o),
(244,76,c),
(236,100,o),
(233,126,o),
(233,153,cs),
(233,201,o),
(243,253,o),
(255,306,c),
(279,309,o),
(306,310,o),
(336,310,cs),
(364,310,o),
(394,309,o),
(425,307,c),
(411,249,o),
(400,193,o),
(400,146,cs),
(400,40,o),
(456,-4,o),
(516,-4,cs),
(584,-4,o),
(657,53,o),
(660,138,c),
(654,141,l),
(644,122,o),
(628,112,o),
(609,112,cs),
(579,112,o),
(567,138,o),
(567,179,cs),
(567,296,o),
(664,534,o),
(664,632,cs),
(664,694,o),
(625,722,o),
(581,722,cs),
(542,722,o),
(500,699,o),
(480,663,c),
(480,655,l),
(483,639,o),
(485,622,o),
(485,602,cs),
(485,546,o),
(470,480,o),
(453,413,c),
(427,413,ls),
(370,413,o),
(319,406,o),
(274,387,c),
(289,450,o),
(302,513,o),
(302,571,cs),
(302,680,o),
(256,720,o),
(200,720,cs),
(125,720,o),
(48,648,o),
(45,532,c),
(52,530,l),
(72,568,o),
(94,587,o),
(111,587,cs),
(128,587,o),
(140,569,o),
(138,517,cs),
(134,388,o),
(50,248,o),
(50,126,cs),
(50,37,o),
(94,-4,o),
(142,-4,cs)
);
}
);
width = 685;
},
{
associatedMasterId = "935688F5-83D3-4ABE-8A3A-DDCBCDDAE821";
layerId = "AAD27031-684F-4344-B87C-75E314537CDD";
name = "Jun 7, 23, 12:41";
shapes = (
{
closed = 1;
nodes = (
(43,-63,o),
(255,-17,o),
(260,118,cs),
(261,168,o),
(245,187,o),
(247,253,cs),
(250,341,o),
(306,455,o),
(310,572,cs),
(318,804,o),
(47,742,o),
(40,531,c),
(49,529,l),
(69,586,o),
(138,599,o),
(136,532,cs),
(133,448,o),
(55,254,o),
(50,133,cs)
);
},
{
closed = 1;
nodes = (
(393,-76,o),
(667,-17,o),
(672,144,c),
(666,147,l),
(655,127,o),
(639,117,o),
(621,118,cs),
(596,119,o),
(587,146,o),
(588,182,cs),
(592,287,o),
(680,511,o),
(683,611,cs),
(688,739,o),
(566,754,o),
(480,663,c),
(480,655,l),
(490,633,o),
(494,603,o),
(493,566,cs),
(490,489,o),
(443,369,o),
(414,247,cs),
(407,218,o),
(402,186,o),
(401,154,cs)
);
},
{
closed = 1;
nodes = (
(178,299,l),
(228,311,o),
(278,318,o),
(346,318,cs),
(397,318,o),
(457,314,o),
(532,305,c),
(542,328,o),
(550,358,o),
(551,384,cs),
(552,395,o),
(550,405,o),
(547,415,c),
(507,418,o),
(470,421,o),
(437,421,cs),
(322,421,o),
(246,395,o),
(177,309,c)
);
}
);
width = 709;
},
{
associatedMasterId = "935688F5-83D3-4ABE-8A3A-DDCBCDDAE821";
layerId = "B7779941-B07D-4B91-8F6E-FD00A18DEBFC";
name = "Jun 1, 23, 16:27";
shapes = (
{
closed = 1;
nodes = (
(43,-63,o),
(255,-17,o),
(260,118,cs),
(261,168,o),
(245,187,o),
(247,253,cs),
(250,341,o),
(306,455,o),
(310,572,cs),
(318,804,o),
(47,742,o),
(40,531,c),
(49,529,l),
(69,586,o),
(138,599,o),
(136,532,cs),
(133,448,o),
(55,254,o),
(50,133,cs)
);
},
{
closed = 1;
nodes = (
(393,-76,o),
(667,-17,o),
(672,144,c),
(666,147,l),
(655,127,o),
(639,117,o),
(621,118,cs),
(596,119,o),
(587,146,o),
(588,182,cs),
(592,287,o),
(680,511,o),
(683,611,cs),
(688,739,o),
(566,754,o),
(480,663,c),
(480,655,l),
(490,633,o),
(494,603,o),
(493,566,cs),
(490,489,o),
(443,369,o),
(414,247,cs),
(407,218,o),
(402,186,o),
(401,154,cs)
);
},
{
closed = 1;
nodes = (
(178,299,l),
(228,311,o),
(278,318,o),
(346,318,cs),
(397,318,o),
(457,314,o),
(532,305,c),
(542,328,o),
(550,358,o),
(551,384,cs),
(552,395,o),
(550,405,o),
(547,415,c),
(507,418,o),
(470,421,o),
(437,421,cs),
(322,421,o),
(246,395,o),
(177,309,c)
);
}
);
width = 709;
},
{
anchors = (
{
name = bottom;
pos = (336,0);
},
{
name = center;
pos = (367,355);
},
{
name = top;
pos = (398,710);
},
{
name = topleft;
pos = (60,710);
}
);
associatedMasterId = "935688F5-83D3-4ABE-8A3A-DDCBCDDAE821";
layerId = "16C9F4BB-E01A-4589-AA75-917230D14F94";
name = "Aug 29, 23, 12:45";
shapes = (
{
closed = 1;
nodes = (
(597,-4,o),
(670,53,o),
(673,138,c),
(667,141,l),
(657,122,o),
(641,112,o),
(622,112,cs),
(592,112,o),
(580,138,o),
(580,179,cs),
(580,296,o),
(677,534,o),
(677,632,cs),
(677,694,o),
(638,722,o),
(594,722,cs),
(555,722,o),
(513,699,o),
(493,663,c),
(493,655,l),
(496,639,o),
(498,622,o),
(498,602,cs),
(498,469,o),
(413,277,o),
(413,146,cs),
(413,40,o),
(469,-4,o),
(529,-4,cs)
);
},
{
closed = 1;
nodes = (
(194,-4,o),
(236,24,o),
(257,76,c),
(249,100,o),
(246,126,o),
(246,153,cs),
(246,280,o),
(315,438,o),
(315,571,cs),
(315,680,o),
(269,720,o),
(213,720,cs),
(138,720,o),
(61,648,o),
(58,532,c),
(65,530,l),
(85,568,o),
(107,587,o),
(124,587,cs),
(141,587,o),
(153,569,o),
(151,517,cs),
(147,388,o),
(63,248,o),
(63,126,cs),
(63,37,o),
(107,-4,o),
(155,-4,cs)
);
},
{
closed = 1;
nodes = (
(176,291,l),
(226,303,o),
(276,310,o),
(349,310,cs),
(405,310,o),
(465,306,o),
(540,297,c),
(551,322,o),
(559,354,o),
(559,379,cs),
(559,391,o),
(557,399,o),
(555,407,c),
(515,410,o),
(478,413,o),
(440,413,cs),
(330,413,o),
(244,387,o),
(175,301,c)
);
}
);
width = 715;
},
{
anchors = (
{
name = bottom;
pos = (326,0);
},
{
name = center;
pos = (358,360);
},
{
name = top;
pos = (389,720);
},
{
name = topleft;
pos = (52,720);
}
);
associatedMasterId = "935688F5-83D3-4ABE-8A3A-DDCBCDDAE821";
layerId = "BB3B2A57-C3FC-4165-9E99-89617A8865BE";
name = "Aug 14, 23, 11:41";
shapes = (
{
closed = 1;
nodes = (
(494,116,o),
(667,503,o),
(667,625,cs),
(667,757,o),
(524,739,o),
(483,663,c),
(483,655,l),
(512,521,o),
(403,294,o),
(403,148,cs),
(403,-82,o),
(658,-23,o),
(663,138,c),
(657,141,l),
(646,121,o),
(630,111,o),
(612,112,cs)
);
},
{
closed = 1;
nodes = (
(210,208,o),
(305,397,o),
(311,576,cs),
(315,677,o),
(267,720,o),
(211,720,cs),
(138,720,o),
(61,648,o),
(58,532,c),
(65,530,l),
(104,606,o),
(154,604,o),
(152,535,cs),
(147,388,o),
(63,248,o),
(63,107,cs),
(63,-18,o),
(202,-50,o),
(253,76,c)
);
},
{
closed = 1;
nodes = (
(176,291,l),
(226,303,o),
(276,310,o),
(344,310,cs),
(395,310,o),
(455,306,o),
(530,297,c),
(540,320,o),
(548,350,o),
(549,376,cs),
(550,387,o),
(548,397,o),
(545,407,c),
(505,410,o),
(468,413,o),
(435,413,cs),
(320,413,o),
(244,387,o),
(175,301,c)
);
}
);
width = 705;
},
{
background = {
shapes = (
{
closed = 1;
nodes = (
(456,116,o),
(633,520,o),
(636,611,cs),
(639,685,o),
(606,720,o),
(558,720,cs),
(523,720,o),
(481,702,o),
(445,663,c),
(445,655,l),
(474,521,o),
(365,294,o),
(365,148,cs),
(365,-82,o),
(620,-23,o),
(625,138,c),
(619,141,l),
(608,121,o),
(592,111,o),
(574,112,cs)
);
},
{
closed = 1;
nodes = (
(172,208,o),
(267,397,o),
(273,576,cs),
(277,677,o),
(229,720,o),
(173,720,cs),
(100,720,o),
(14,648,o),
(11,532,c),
(18,530,l),
(57,606,o),
(107,604,o),
(105,535,cs),
(100,388,o),
(16,248,o),
(16,107,cs),
(16,-18,o),
(164,-50,o),
(215,76,c)
);
},
{
closed = 1;
nodes = (
(138,291,l),
(188,303,o),
(238,310,o),
(306,310,cs),
(357,310,o),
(417,306,o),
(492,297,c),
(502,320,o),
(510,350,o),
(511,376,cs),
(512,387,o),
(510,397,o),
(507,407,c),
(467,410,o),
(430,413,o),
(397,413,cs),
(282,413,o),
(206,387,o),
(137,301,c)
);
}
);
};
layerId = "935688F5-83D3-4ABE-8A3A-DDCBCDDAE821";
shapes = (
{
closed = 1;
nodes = (
(156,-4,o),
(198,24,o),
(219,76,c),
(211,100,o),
(208,126,o),
(208,153,cs),
(208,201,o),
(218,253,o),
(230,306,c),
(254,309,o),
(281,310,o),
(310,310,cs),
(339,310,o),
(369,309,o),
(400,307,c),
(386,249,o),
(375,193,o),
(375,146,cs),
(375,40,o),
(431,-4,o),
(491,-4,cs),
(559,-4,o),
(632,53,o),
(635,138,c),
(629,141,l),
(619,122,o),
(603,112,o),
(584,112,cs),
(554,112,o),
(542,138,o),
(542,179,cs),
(542,240,o),
(568,334,o),
(595,429,cs),
(617,506,o),
(639,585,o),
(639,632,cs),
(639,694,o),
(600,722,o),
(556,722,cs),
(517,722,o),
(475,699,o),
(455,663,c),
(455,655,l),
(458,639,o),
(460,622,o),
(460,602,cs),
(460,546,o),
(445,480,o),
(428,413,c),
(402,413,ls),
(345,413,o),
(294,406,o),
(249,387,c),
(264,450,o),
(277,513,o),
(277,571,cs),
(277,680,o),
(231,720,o),
(175,720,cs),
(100,720,o),
(23,648,o),
(20,532,c),
(27,530,l),
(47,568,o),
(69,587,o),
(86,587,cs),
(102,587,o),
(113,572,o),
(113,527,cs),
(113,461,o),
(90,391,o),
(63,306,cs),
(46,254,o),
(25,188,o),
(25,126,cs),
(25,37,o),
(69,-4,o),
(117,-4,cs)
);
}
);
width = 654;
}
);
unicode = 72;
}
{
glyphname = I;
layers = (
{
anchors = (
{
name = bottom;
pos = (107,0);
},
{
name = ogonek;
pos = (225,10);
},
{
name = top;
pos = (209,710);
},
{
name = topleft;
pos = (42,710);
}
);
associatedMasterId = "935688F5-83D3-4ABE-8A3A-DDCBCDDAE821";
layerId = "4F0A94A4-15FF-4AEB-AA64-A3E4E45EAF7C";
name = "Oct 1, 23, 18:38";
shapes = (
{
closed = 1;
nodes = (
(124,-5,o),
(160,16,o),
(176,33,c),
(189,314,o),
(260,597,o),
(279,657,c),
(268,705,o),
(236,723,o),
(202,723,cs),
(162,723,o),
(119,698,o),
(107,664,cs),
(85,605,o),
(19,203,o),
(19,113,cs),
(19,21,o),
(53,-5,o),
(90,-5,cs)
);
}
);
width = 268;
},
{
associatedMasterId = "935688F5-83D3-4ABE-8A3A-DDCBCDDAE821";
layerId = "B0AE9535-E2C8-4345-ADD6-0DA79D074476";
name = "May 31, 23, 15:17";
shapes = (
{
closed = 1;
nodes = (
(248,713,o),
(202,733,o),
(118,713,c),
(50,615,o),
(-93,-1,o),
(105,-1,cs),
(154,-1,o),
(205,33,o),
(205,63,c),
(156,210,o),
(225,560,o),
(277,677,c)
);
}
);
width = 268;
},
{
associatedMasterId = "935688F5-83D3-4ABE-8A3A-DDCBCDDAE821";
layerId = "F04672F7-6692-47A7-A6CF-C4AA2299EFC7";
name = "May 31, 23, 14:55";
shapes = (
{
closed = 1;
nodes = (
(183,238,o),
(276,471,o),
(276,602,cs),
(276,733,o),
(149,762,o),
(66,662,c),
(66,655,l),
(115,459,o),
(25,264,o),
(25,127,cs),
(25,-47,o),
(241,-30,o),
(241,106,c)
);
}
);
width = 296;
},
{
associatedMasterId = "935688F5-83D3-4ABE-8A3A-DDCBCDDAE821";
layerId = "41215010-7EA2-4922-AFD9-EE4522974D66";
name = "May 29, 23, 14:22";
shapes = (
{
closed = 1;
nodes = (
(68,551,l),
(141,633,o),
(261,612,o),
(261,500,cs),
(261,379,o),
(159,90,o),
(239,90,c),
(259,10,o),
(40,-81,o),
(40,129,cs),
(40,240,o),
(117,464,o),
(68,545,c)
);
}
);
width = 281;
},
{
associatedMasterId = "935688F5-83D3-4ABE-8A3A-DDCBCDDAE821";
layerId = "44E94DCE-3556-45A0-886F-910ABF5F49F1";
name = "Jun 7, 23, 12:22";
shapes = (
{
closed = 1;
nodes = (
(217,317,o),
(269,593,o),
(296,653,c),
(263,762,o),
(118,715,o),
(110,671,cs),
(100,611,o),
(37,265,o),
(30,74,cs),
(27,-12,o),
(155,-22,o),
(214,36,c)
);
}
);
width = 296;
},
{
associatedMasterId = "935688F5-83D3-4ABE-8A3A-DDCBCDDAE821";
layerId = "6101C71B-1DBB-4756-9B14-7A2435633191";
name = "Jul 5, 23, 17:52";
shapes = (
{
closed = 1;
nodes = (
(200,317,o),
(252,593,o),
(279,653,c),
(246,762,o),
(118,715,o),
(110,671,cs),
(100,611,o),
(37,265,o),
(30,74,cs),
(27,-12,o),
(138,-22,o),
(197,36,c)
);
}
);
width = 289;
},
{
anchors = (
{
name = bottom;
pos = (115,0);
},
{
name = ogonek;
pos = (257,10);
},
{
name = top;
pos = (227,710);
},
{
name = topleft;
pos = (60,710);
}
);
associatedMasterId = "935688F5-83D3-4ABE-8A3A-DDCBCDDAE821";
layerId = "16C9F4BB-E01A-4589-AA75-917230D14F94";
name = "Aug 29, 23, 12:45";
shapes = (
{
closed = 1;
nodes = (
(142,-5,o),
(178,16,o),
(194,33,c),
(207,314,o),
(278,597,o),
(297,657,c),
(286,705,o),
(254,723,o),
(220,723,cs),
(180,723,o),
(137,698,o),
(125,664,cs),
(103,605,o),
(37,203,o),
(37,113,cs),
(37,21,o),
(71,-5,o),
(108,-5,cs)
);
}
);
width = 309;
},
{
anchors = (
{
name = bottom;
pos = (110,0);
},
{
name = ogonek;
pos = (243,10);
},
{
name = top;
pos = (243,720);
},
{
name = topleft;
pos = (61,720);
}
);
associatedMasterId = "935688F5-83D3-4ABE-8A3A-DDCBCDDAE821";
layerId = "91C8457D-E5EF-4D1B-A10E-CD1C519FBB95";
name = "Aug 14, 23, 12:12";
shapes = (
{
closed = 1;
nodes = (
(215,314,o),
(291,597,o),
(311,657,c),
(299,706,o),
(266,723,o),
(232,723,cs),
(191,723,o),
(148,698,o),
(139,675,cs),
(116,615,o),
(49,262,o),
(32,71,cs),
(28,21,o),
(64,-4,o),
(107,-4,cs),
(137,-4,o),
(171,9,o),
(197,33,c)
);
}
);
width = 323;
},
{
background = {
shapes = (
{
closed = 1;
nodes = (
(85,546,l),
(158,628,o),
(278,607,o),
(278,495,cs),
(278,374,o),
(177,90,o),
(256,90,c),
(256,10,o),
(57,-81,o),
(57,129,c),
(58,240,o),
(134,459,o),
(85,540,c)
);
}
);
};
layerId = "935688F5-83D3-4ABE-8A3A-DDCBCDDAE821";
shapes = (
{
closed = 1;
nodes = (
(135,-5,o),
(171,16,o),
(187,33,c),
(188,64,o),
(191,95,o),
(193,118,cs),
(215,373,o),
(273,604,o),
(290,657,c),
(279,705,o),
(247,723,o),
(213,723,cs),
(173,723,o),
(130,698,o),
(115,658,cs),
(95,601,o),
(43,272,o),
(31,138,c),
(31,133,o),
(30,121,o),
(30,106,cs),
(30,21,o),
(64,-5,o),
(101,-5,cs)
);
}
);
width = 315;
}
);
unicode = 73;
}
{
glyphname = J;
layers = (
{
anchors = (
{
name = bottom;
pos = (253,0);
},
{
name = top;
pos = (315,710);
}
);
associatedMasterId = "935688F5-83D3-4ABE-8A3A-DDCBCDDAE821";
layerId = "55CAA28B-DF93-4083-B444-11F1C9A93AAB";
name = "Oct 1, 23, 18:39";
shapes = (
{
closed = 1;
nodes = (
(90,-14,o),
(58,-2,o),
(27,21,c),
(15,15,l),
(15,-74,o),
(98,-139,o),
(188,-139,cs),
(297,-139,o),
(416,-46,o),
(416,206,cs),
(416,284,o),
(404,370,o),
(404,443,cs),
(404,481,o),
(407,514,o),
(417,538,c),
(436,531,o),
(451,529,o),
(467,529,cs),
(528,529,o),
(555,582,o),
(555,633,cs),
(555,683,o),
(530,726,o),
(483,726,cs),
(454,726,o),
(415,719,o),
(369,665,c),
(293,713,o),
(229,732,o),
(176,732,cs),
(76,732,o),
(22,662,o),
(22,591,cs),
(22,519,o),
(79,446,o),
(200,446,c),
(181,474,o),
(173,503,o),
(173,528,cs),
(173,576,o),
(203,611,o),
(248,611,cs),
(271,611,o),
(296,599,o),
(313,587,c),
(265,522,o),
(254,450,o),
(254,185,cs),
(254,52,o),
(193,-14,o),
(120,-14,cs)
);
}
);
width = 532;
},
{
associatedMasterId = "935688F5-83D3-4ABE-8A3A-DDCBCDDAE821";
layerId = "56FB0772-0F85-4B33-946A-C60FA4A9470E";
name = "May 25, 23, 12:38";
shapes = (
{
closed = 1;
nodes = (
(151,-114,o),
(106,390,o),
(212,489,c),
(163,539,o),
(111,473,o),
(111,391,c),
(-116,391,o),
(-16,738,o),
(264,549,c),
(429,729,o),
(481,360,o),
(305,455,c),
(260,391,o),
(285,266,o),
(285,167,cs),
(285,-96,o),
(194,-171,o),
(70,-171,cs),
(-148,-171,o),
(-153,49,o),
(34,49,c),
(5,-13,o),
(4,-114,o),
(45,-114,cs)
);
}
);
width = 393;
},
{
associatedMasterId = "935688F5-83D3-4ABE-8A3A-DDCBCDDAE821";
layerId = "E1DE46D6-7831-45C0-944F-B96E6EE47388";
name = "May 25, 23, 12:33";
shapes = (
{
closed = 1;
nodes = (
(168,-114,o),
(52,347,o),
(247,483,c),
(221,481,o),
(186,493,o),
(162,493,cs),
(114,493,o),
(83,440,o),
(135,374,c),
(44,325,o),
(-30,409,o),
(-30,487,cs),
(-30,548,o),
(13,607,o),
(111,607,cs),
(208,607,o),
(238,557,o),
(305,557,cs),
(325,557,o),
(345,608,o),
(362,620,c),
(399,610,o),
(435,539,o),
(423,507,c),
(288,485,o),
(285,307,o),
(285,185,cs),
(285,-78,o),
(194,-171,o),
(70,-171,cs),
(-148,-171,o),
(-153,49,o),
(34,49,c),
(5,-13,o),
(4,-114,o),
(62,-114,cs)
);
}
);
width = 393;
},
{
associatedMasterId = "935688F5-83D3-4ABE-8A3A-DDCBCDDAE821";
layerId = "013F168D-6436-45D4-BC27-EF3B974312B5";
name = "Jun 7, 23, 12:16";
shapes = (
{
closed = 1;
nodes = (
(406,284,o),
(394,370,o),
(394,443,cs),
(394,493,o),
(399,534,o),
(418,558,c),
(368,556,l),
(409,534,o),
(432,529,o),
(457,529,cs),
(518,529,o),
(545,582,o),
(545,633,cs),
(545,683,o),
(520,726,o),
(473,726,cs),
(438,726,o),
(387,716,o),
(327,621,c),
(393,642,l),
(309,703,o),
(220,727,o),
(163,727,cs),
(69,727,o),
(17,658,o),
(17,589,cs),
(17,523,o),
(68,446,o),
(170,446,c),
(161,470,o),
(157,493,o),
(157,513,cs),
(157,573,o),
(191,609,o),
(234,609,cs),
(258,609,o),
(307,599,o),
(325,566,c),
(313,609,l),
(250,536,o),
(238,480,o),
(238,227,cs),
(238,55,o),
(161,-17,o),
(83,-17,cs),
(59,-17,o),
(35,-3,o),
(17,21,c),
(5,15,l),
(5,-182,o),
(406,-256,o),
(406,206,cs)
);
}
);
width = 515;
},
{
anchors = (
{
name = bottom;
pos = (253,0);
},
{
name = top;
pos = (315,710);
}
);
associatedMasterId = "935688F5-83D3-4ABE-8A3A-DDCBCDDAE821";
layerId = "16C9F4BB-E01A-4589-AA75-917230D14F94";
name = "Aug 29, 23, 12:45";
shapes = (
{
closed = 1;
nodes = (
(90,-14,o),
(58,-2,o),
(27,21,c),
(15,15,l),
(15,-182,o),
(416,-256,o),
(416,206,cs),
(416,284,o),
(404,370,o),
(404,443,cs),
(404,493,o),
(409,534,o),
(428,558,c),
(378,556,l),
(419,534,o),
(442,529,o),
(467,529,cs),
(528,529,o),
(555,582,o),
(555,633,cs),
(555,683,o),
(530,726,o),
(483,726,cs),
(448,726,o),
(397,716,o),
(337,621,c),
(403,642,l),
(5,926,o),
(-111,446,o),
(200,446,c),
(146,529,o),
(180,611,o),
(248,611,cs),
(285,611,o),
(327,580,o),
(335,566,c),
(331,609,l),
(268,536,o),
(254,480,o),
(254,185,cs),
(254,52,o),
(193,-14,o),
(120,-14,cs)
);
}
);
width = 550;
},
{
layerId = "935688F5-83D3-4ABE-8A3A-DDCBCDDAE821";
shapes = (
{
closed = 1;
nodes = (
(297,-139,o),
(416,-46,o),
(416,204,cs),
(416,284,o),
(404,370,o),
(404,444,cs),
(404,481,o),
(407,514,o),
(417,538,c),
(436,531,o),
(451,529,o),
(464,529,cs),
(528,529,o),
(555,582,o),
(555,633,cs),
(555,683,o),
(530,726,o),
(476,726,cs),
(454,726,o),
(415,719,o),
(369,665,c),
(293,713,o),
(228,732,o),
(177,732,cs),
(76,732,o),
(22,662,o),
(22,591,cs),
(22,519,o),
(79,446,o),
(200,446,c),
(181,474,o),
(173,503,o),
(173,528,cs),
(173,576,o),
(203,611,o),
(245,611,cs),
(271,611,o),
(296,599,o),
(313,587,c),
(265,522,o),
(253,450,o),
(253,331,cs),
(253,52,o),
(193,-14,o),
(121,-14,cs),
(90,-14,o),
(58,-2,o),
(27,21,c),
(15,15,l),
(15,-74,o),
(98,-139,o),
(189,-139,cs)
);
}
);
width = 532;
}
);
unicode = 74;
}
{
glyphname = K;
layers = (
{
anchors = (
{
name = bottom;
pos = (293,0);
},
{
name = top;
pos = (345,710);
}
);
associatedMasterId = "935688F5-83D3-4ABE-8A3A-DDCBCDDAE821";
layerId = "55CAA28B-DF93-4083-B444-11F1C9A93AAB";
name = "Oct 1, 23, 18:39";
shapes = (
{
closed = 1;
nodes = (
(587,-7,o),
(636,84,o),
(636,193,c),
(630,196,l),
(621,174,o),
(598,154,o),
(572,154,cs),
(488,154,o),
(502,369,o),
(391,421,c),
(544,487,o),
(603,559,o),
(603,616,cs),
(603,680,o),
(528,725,o),
(431,725,c),
(437,715,o),
(440,703,o),
(440,688,cs),
(440,620,o),
(380,507,o),
(291,429,c),
(303,482,o),
(313,534,o),
(313,580,cs),
(313,682,o),
(263,720,o),
(207,720,cs),
(122,720,o),
(53,634,o),
(50,532,c),
(57,530,l),
(77,568,o),
(100,587,o),
(119,587,cs),
(136,587,o),
(148,571,o),
(148,527,cs),
(148,394,o),
(41,250,o),
(41,119,cs),
(41,32,o),
(89,-4,o),
(140,-4,cs),
(169,-4,o),
(199,8,o),
(221,29,c),
(219,44,o),
(219,59,o),
(219,74,cs),
(219,170,o),
(248,269,o),
(275,366,c),
(378,308,o),
(314,-7,o),
(497,-7,cs)
);
}
);
width = 652;
},
{
associatedMasterId = "935688F5-83D3-4ABE-8A3A-DDCBCDDAE821";
layerId = "B49421E7-D27E-473F-997D-63615F034935";
name = "May 31, 23, 14:39";
shapes = (
{
closed = 1;
nodes = (
(213,0,o),
(272,43,o),
(272,107,cs),
(272,147,o),
(261,187,o),
(261,222,cs),
(261,341,o),
(323,428,o),
(323,576,cs),
(323,679,o),
(270,720,o),
(209,720,cs),
(126,720,o),
(39,634,o),
(40,532,c),
(47,530,l),
(83,606,o),
(149,604,o),
(149,535,cs),
(149,451,o),
(57,252,o),
(57,129,cs),
(57,36,o),
(105,0,o),
(157,0,cs)
);
},
{
closed = 1;
nodes = (
(601,0,o),
(651,89,o),
(651,192,c),
(645,195,l),
(637,178,o),
(623,170,o),
(609,170,cs),
(578,170,o),
(529,192,o),
(460,302,cs),
(408,383,o),
(386,434,o),
(299,434,c),
(241,391,l),
(264,391,o),
(261,385,o),
(332,223,cs),
(383,105,o),
(435,0,o),
(513,0,cs)
);
},
{
closed = 1;
nodes = (
(343,345,l),
(412,507,o),
(536,545,o),
(603,500,c),
(733,732,o),
(416,912,o),
(320,363,c)
);
}
);
width = 706;
},
{
associatedMasterId = "935688F5-83D3-4ABE-8A3A-DDCBCDDAE821";
layerId = "CB54F40A-32D0-460D-9E8A-41A8B2B85CC4";
name = "May 31, 23, 14:27";
shapes = (
{
closed = 1;
nodes = (
(247,0,o),
(286,229,o),
(379,372,c),
(454,546,o),
(572,553,o),
(620,483,c),
(688,600,o),
(655,726,o),
(563,726,cs),
(322,726,o),
(172,126,o),
(155,126,cs),
(115,126,o),
(395,720,o),
(160,720,cs),
(99,720,o),
(-1,676,o),
(-1,538,c),
(10,537,l),
(25,626,o),
(94,648,o),
(94,566,cs),
(94,491,o),
(21,207,o),
(21,120,cs),
(21,34,o),
(80,0,o),
(132,0,cs)
);
},
{
closed = 1;
nodes = (
(612,0,o),
(654,89,o),
(662,192,c),
(653,196,l),
(645,179,o),
(634,170,o),
(620,170,cs),
(489,170,o),
(461,434,o),
(330,434,c),
(296,385,l),
(376,385,o),
(362,0,o),
(524,0,cs)
);
}
);
width = 706;
},
{
associatedMasterId = "935688F5-83D3-4ABE-8A3A-DDCBCDDAE821";
layerId = "4851CFA6-7831-4FFF-BC74-5CE5FBA70C1B";
name = "Jun 6, 23, 09:34";
shapes = (
{
closed = 1;
nodes = (
(328,679,o),
(276,720,o),
(215,720,cs),
(133,720,o),
(43,634,o),
(40,532,c),
(47,530,l),
(86,606,o),
(151,604,o),
(149,535,cs),
(144,388,o),
(40,251,o),
(40,123,cs),
(40,-15,o),
(172,-25,o),
(232,33,c),
(213,211,o),
(318,397,o),
(324,576,cs)
);
},
{
closed = 1;
nodes = (
(620,-137,o),
(669,-53,o),
(669,66,c),
(663,69,l),
(654,47,o),
(636,34,o),
(616,34,cs),
(563,34,o),
(517,192,o),
(452,302,cs),
(403,383,o),
(382,434,o),
(295,434,c),
(236,391,l),
(259,391,o),
(256,385,o),
(321,223,cs),
(368,105,o),
(386,-137,o),
(530,-137,cs)
);
},
{
closed = 1;
nodes = (
(336,345,l),
(411,507,o),
(536,545,o),
(602,500,c),
(740,732,o),
(429,912,o),
(314,363,c)
);
}
);
width = 669;
},
{
associatedMasterId = "935688F5-83D3-4ABE-8A3A-DDCBCDDAE821";
layerId = "24B7273D-A8F4-4F89-8667-B9CB06F3510B";
name = "Jun 6, 23, 09:18";
shapes = (
{
closed = 1;
nodes = (
(194,0,o),
(255,43,o),
(257,107,cs),
(258,147,o),
(249,187,o),
(250,222,cs),
(254,341,o),
(319,428,o),
(324,576,cs),
(328,679,o),
(276,720,o),
(215,720,cs),
(133,720,o),
(43,634,o),
(40,532,c),
(47,530,l),
(86,606,o),
(151,604,o),
(149,535,cs),
(146,451,o),
(47,252,o),
(43,129,cs),
(39,36,o),
(87,0,o),
(138,0,cs)
);
},
{
closed = 1;
nodes = (
(582,-6,o),
(635,83,o),
(639,186,c),
(633,189,l),
(624,172,o),
(610,164,o),
(596,164,cs),
(565,164,o),
(517,192,o),
(452,302,cs),
(403,383,o),
(382,434,o),
(295,434,c),
(236,391,l),
(259,391,o),
(256,385,o),
(321,223,cs),
(368,105,o),
(416,-6,o),
(494,-6,cs)
);
},
{
closed = 1;
nodes = (
(336,345,l),
(411,507,o),
(536,545,o),
(602,500,c),
(740,732,o),
(429,912,o),
(314,363,c)
);
}
);
width = 669;
},
{
associatedMasterId = "935688F5-83D3-4ABE-8A3A-DDCBCDDAE821";
layerId = "5A706FF9-BE4A-403C-9CF3-E503616981ED";
name = "Jun 26, 23, 19:16";
shapes = (
{
closed = 1;
nodes = (
(209,144,o),
(247,265,o),
(279,382,c),
(256,348,l),
(375,348,o),
(311,-7,o),
(497,-7,cs),
(587,-7,o),
(636,77,o),
(636,196,c),
(630,199,l),
(621,177,o),
(603,164,o),
(583,164,cs),
(530,164,o),
(516,192,o),
(451,302,cs),
(401,387,o),
(369,412,o),
(311,412,c),
(311,373,l),
(719,520,o),
(627,726,o),
(431,725,c),
(469,668,o),
(388,500,o),
(264,407,c),
(287,412,l),
(300,467,o),
(312,522,o),
(313,576,cs),
(317,679,o),
(265,720,o),
(204,720,cs),
(122,720,o),
(43,634,o),
(40,532,c),
(47,530,l),
(86,606,o),
(151,604,o),
(149,535,cs),
(144,388,o),
(40,247,o),
(40,119,cs),
(40,-19,o),
(161,-29,o),
(221,29,c)
);
}
);
width = 658;
},
{
associatedMasterId = "935688F5-83D3-4ABE-8A3A-DDCBCDDAE821";
layerId = "91C92BC0-8017-4F0C-AA3F-8A7890CD618B";
name = "Jun 14, 23, 14:36";
shapes = (
{
closed = 1;
nodes = (
(323,679,o),
(271,720,o),
(210,720,cs),
(128,720,o),
(43,634,o),
(40,532,c),
(47,530,l),
(86,606,o),
(151,604,o),
(149,535,cs),
(144,388,o),
(40,251,o),
(40,123,cs),
(40,-15,o),
(167,-25,o),
(227,33,c),
(208,211,o),
(313,397,o),
(319,576,cs)
);
},
{
closed = 1;
nodes = (
(583,-7,o),
(632,77,o),
(632,196,c),
(626,199,l),
(617,177,o),
(599,164,o),
(579,164,cs),
(526,164,o),
(512,192,o),
(447,302,cs),
(398,383,o),
(377,434,o),
(290,434,c),
(231,391,l),
(254,391,o),
(251,385,o),
(316,223,cs),
(363,105,o),
(381,-7,o),
(493,-7,cs)
);
},
{
closed = 1;
nodes = (
(222,336,l),
(753,483,o),
(640,726,o),
(427,725,c),
(472,659,o),
(366,454,o),
(204,378,c)
);
}
);
width = 664;
},
{
associatedMasterId = "935688F5-83D3-4ABE-8A3A-DDCBCDDAE821";
layerId = "0B9A73B9-C7C5-4904-9FE2-A23B6905C991";
name = "Jun 14, 23, 14:34";
shapes = (
{
closed = 1;
nodes = (
(323,679,o),
(271,720,o),
(210,720,cs),
(128,720,o),
(43,634,o),
(40,532,c),
(47,530,l),
(86,606,o),
(151,604,o),
(149,535,cs),
(144,388,o),
(40,251,o),
(40,123,cs),
(40,-15,o),
(167,-25,o),
(227,33,c),
(208,211,o),
(313,397,o),
(319,576,cs)
);
},
{
closed = 1;
nodes = (
(583,-7,o),
(632,77,o),
(632,196,c),
(626,199,l),
(617,177,o),
(599,164,o),
(579,164,cs),
(526,164,o),
(512,192,o),
(447,302,cs),
(398,383,o),
(377,434,o),
(290,434,c),
(231,391,l),
(254,391,o),
(251,385,o),
(316,223,cs),
(363,105,o),
(381,-7,o),
(493,-7,cs)
);
},
{
closed = 1;
nodes = (
(222,336,l),
(809,496,o),
(638,824,o),
(407,685,c),
(452,619,o),
(366,454,o),
(204,378,c)
);
}
);
width = 664;
},
{
associatedMasterId = "935688F5-83D3-4ABE-8A3A-DDCBCDDAE821";
layerId = "6F0E2A42-C026-4B79-B2DA-457CF3C5A0D9";
name = "Jun 14, 23, 14:33";
shapes = (
{
closed = 1;
nodes = (
(323,679,o),
(271,720,o),
(210,720,cs),
(128,720,o),
(43,634,o),
(40,532,c),
(47,530,l),
(86,606,o),
(151,604,o),
(149,535,cs),
(144,388,o),
(40,251,o),
(40,123,cs),
(40,-15,o),
(167,-25,o),
(227,33,c),
(208,211,o),
(313,397,o),
(319,576,cs)
);
},
{
closed = 1;
nodes = (
(583,-7,o),
(632,77,o),
(632,196,c),
(626,199,l),
(617,177,o),
(599,164,o),
(579,164,cs),
(526,164,o),
(512,192,o),
(447,302,cs),
(398,383,o),
(377,434,o),
(290,434,c),
(231,391,l),
(254,391,o),
(251,385,o),
(316,223,cs),
(363,105,o),
(381,-7,o),
(493,-7,cs)
);
},
{
closed = 1;
nodes = (
(251,305,l),
(326,467,o),
(541,545,o),
(607,500,c),
(745,732,o),
(476,921,o),
(229,323,c)
);
}
);
width = 664;
},
{
associatedMasterId = "935688F5-83D3-4ABE-8A3A-DDCBCDDAE821";
layerId = "E4E76F37-4684-44AA-9A6D-066076336BBB";
name = "Jun 14, 23, 14:32";
shapes = (
{
closed = 1;
nodes = (
(323,679,o),
(271,720,o),
(210,720,cs),
(128,720,o),
(43,634,o),
(40,532,c),
(47,530,l),
(86,606,o),
(151,604,o),
(149,535,cs),
(144,388,o),
(40,251,o),
(40,123,cs),
(40,-15,o),
(167,-25,o),
(227,33,c),
(208,211,o),
(313,397,o),
(319,576,cs)
);
},
{
closed = 1;
nodes = (
(583,-7,o),
(632,77,o),
(632,196,c),
(626,199,l),
(617,177,o),
(599,164,o),
(579,164,cs),
(526,164,o),
(512,192,o),
(447,302,cs),
(398,383,o),
(377,434,o),
(290,434,c),
(231,391,l),
(254,391,o),
(251,385,o),
(316,223,cs),
(363,105,o),
(381,-7,o),
(493,-7,cs)
);
},
{
closed = 1;
nodes = (
(341,345,l),
(416,507,o),
(541,545,o),
(607,500,c),
(745,732,o),
(434,912,o),
(319,363,c)
);
}
);
width = 664;
},
{
anchors = (
{
name = bottom;
pos = (301,0);
},
{
name = top;
pos = (373,710);
}
);
associatedMasterId = "935688F5-83D3-4ABE-8A3A-DDCBCDDAE821";
layerId = "16C9F4BB-E01A-4589-AA75-917230D14F94";
name = "Aug 29, 23, 12:45";
shapes = (
{
closed = 1;
nodes = (
(595,-7,o),
(644,84,o),
(644,193,c),
(638,196,l),
(629,174,o),
(606,154,o),
(580,154,cs),
(485,154,o),
(515,432,o),
(346,432,c),
(329,393,l),
(534,467,o),
(611,551,o),
(611,616,cs),
(611,680,o),
(536,725,o),
(439,725,c),
(445,715,o),
(448,703,o),
(448,688,cs),
(448,613,o),
(375,484,o),
(272,407,c),
(295,412,l),
(309,471,o),
(321,529,o),
(321,579,cs),
(321,682,o),
(271,720,o),
(215,720,cs),
(130,720,o),
(61,634,o),
(58,532,c),
(65,530,l),
(85,568,o),
(108,587,o),
(127,587,cs),
(145,587,o),
(158,569,o),
(156,520,cs),
(152,388,o),
(49,247,o),
(49,119,cs),
(49,32,o),
(97,-4,o),
(148,-4,cs),
(177,-4,o),
(207,8,o),
(229,29,c),
(227,44,o),
(227,59,o),
(227,74,cs),
(227,175,o),
(259,280,o),
(287,382,c),
(258,374,l),
(396,354,o),
(309,-7,o),
(505,-7,cs)
);
}
);
width = 666;
},
{
anchors = (
{
name = bottom;
pos = (316,0);
},
{
name = top;
pos = (379,720);
}
);
associatedMasterId = "935688F5-83D3-4ABE-8A3A-DDCBCDDAE821";
layerId = "5F6DF86C-B8A9-4B2A-9C18-5FF3138A0ABE";
name = "Aug 14, 23, 12:32";
shapes = (
{
closed = 1;
nodes = (
(605,-7,o),
(654,77,o),
(654,196,c),
(648,199,l),
(639,177,o),
(621,164,o),
(601,164,cs),
(548,164,o),
(533,226,o),
(479,342,cs),
(439,427,o),
(414,432,o),
(356,432,c),
(339,393,l),
(747,540,o),
(645,726,o),
(449,725,c),
(487,668,o),
(406,500,o),
(282,407,c),
(305,412,l),
(318,467,o),
(330,522,o),
(331,576,cs),
(335,679,o),
(283,720,o),
(222,720,cs),
(140,720,o),
(61,634,o),
(58,532,c),
(65,530,l),
(104,606,o),
(169,604,o),
(167,535,cs),
(162,388,o),
(58,247,o),
(58,119,cs),
(58,-19,o),
(179,-29,o),
(239,29,c),
(227,144,o),
(265,265,o),
(297,382,c),
(268,374,l),
(377,354,o),
(329,-7,o),
(515,-7,cs)
);
}
);
width = 676;
},
{
layerId = "935688F5-83D3-4ABE-8A3A-DDCBCDDAE821";
shapes = (
{
closed = 1;
nodes = (
(571,-7,o),
(620,84,o),
(620,193,c),
(614,196,l),
(605,174,o),
(582,154,o),
(556,154,cs),
(514,154,o),
(496,205,o),
(474,270,cs),
(454,325,o),
(430,394,o),
(374,421,c),
(527,487,o),
(587,559,o),
(587,616,cs),
(587,680,o),
(511,725,o),
(413,725,c),
(419,715,o),
(422,703,o),
(422,688,cs),
(422,620,o),
(363,507,o),
(275,429,c),
(287,482,o),
(297,534,o),
(297,580,cs),
(297,682,o),
(247,720,o),
(191,720,cs),
(106,720,o),
(37,634,o),
(34,532,c),
(41,530,l),
(61,568,o),
(84,587,o),
(103,587,cs),
(120,587,o),
(132,571,o),
(132,527,cs),
(132,394,o),
(25,250,o),
(25,119,cs),
(25,32,o),
(73,-4,o),
(124,-4,cs),
(153,-4,o),
(183,8,o),
(205,29,c),
(203,44,o),
(203,59,o),
(203,74,cs),
(203,170,o),
(232,269,o),
(259,366,c),
(302,342,o),
(316,274,o),
(329,203,cs),
(350,101,o),
(373,-7,o),
(480,-7,cs)
);
}
);
width = 630;
}
);
unicode = 75;
}
{
glyphname = L;
layers = (
{
associatedMasterId = "935688F5-83D3-4ABE-8A3A-DDCBCDDAE821";
layerId = "8E1C6335-02AE-4198-B19C-19DDAD45DA3A";
name = "Jun 8, 23, 11:36";
shapes = (
{
closed = 1;
nodes = (
(226,153,l),
(278,261,o),
(346,501,o),
(348,614,cs),
(350,693,o),
(306,725,o),
(260,725,cs),
(219,725,o),
(177,700,o),
(161,657,c),
(162,654,l),
(170,640,o),
(172,632,o),
(171,584,cs),
(169,475,o),
(130,284,o),
(85,179,c)
);
},
{
closed = 1;
nodes = (
(145,75,l),
(252,69,o),
(384,-6,o),
(463,-6,cs),
(598,-6,o),
(611,163,o),
(544,207,c),
(447,91,o),
(293,201,o),
(176,211,c)
);
},
{
closed = 1;
nodes = (
(219,178,l),
(-134,443,o),
(-78,-235,o),
(221,114,c)
);
}
);
width = 600;
},
{
associatedMasterId = "935688F5-83D3-4ABE-8A3A-DDCBCDDAE821";
layerId = "168D330F-1767-4167-A624-4EE835B55DF4";
name = "Jun 7, 23, 12:04";
shapes = (
{
closed = 1;
nodes = (
(160,75,l),
(267,69,o),
(370,-137,o),
(538,-137,cs),
(673,-137,o),
(686,19,o),
(619,63,c),
(498,-58,o),
(409,211,o),
(207,211,c)
);
},
{
closed = 1;
nodes = (
(234,178,l),
(-119,443,o),
(-63,-235,o),
(236,114,c)
);
},
{
closed = 1;
nodes = (
(326,641,o),
(541,606,o),
(511,434,c),
(517,432,l),
(810,703,o),
(173,919,o),
(173,443,cs),
(173,333,o),
(157,254,o),
(110,179,c),
(259,151,l),
(259,152,o),
(326,261,o),
(326,404,cs)
);
}
);
width = 638;
},
{
associatedMasterId = "935688F5-83D3-4ABE-8A3A-DDCBCDDAE821";
layerId = "5BB26FF2-C984-41A1-8F48-3D0090BD97AE";
name = "Jun 6, 23, 09:14";
shapes = (
{
closed = 1;
nodes = (
(145,75,l),
(252,69,o),
(414,-26,o),
(493,-26,cs),
(628,-26,o),
(641,130,o),
(574,174,c),
(523,113,o),
(309,201,o),
(192,211,c)
);
},
{
closed = 1;
nodes = (
(219,178,l),
(-134,443,o),
(-78,-235,o),
(221,114,c)
);
},
{
closed = 1;
nodes = (
(311,629,o),
(506,600,o),
(476,434,c),
(482,432,l),
(775,703,o),
(158,919,o),
(158,443,cs),
(158,333,o),
(142,254,o),
(95,179,c),
(234,175,l),
(234,176,o),
(233,178,o),
(234,179,c),
(288,248,o),
(311,303,o),
(311,444,cs)
);
}
);
width = 600;
},
{
anchors = (
{
name = bottom;
pos = (290,0);
},
{
name = center;
pos = (322,360);
},
{
name = top;
pos = (323,720);
},
{
name = topright;
pos = (474,720);
}
);
associatedMasterId = "935688F5-83D3-4ABE-8A3A-DDCBCDDAE821";
layerId = "107956B8-9CCA-4C36-A462-8C1D2674CE2F";
name = "Aug 6, 23, 20:50";
shapes = (
{
closed = 1;
nodes = (
(110,165,l),
(155,270,o),
(194,475,o),
(196,584,cs),
(197,632,o),
(195,640,o),
(187,654,c),
(186,657,l),
(202,700,o),
(244,725,o),
(285,725,cs),
(331,725,o),
(365,693,o),
(363,614,cs),
(361,501,o),
(294,247,o),
(241,139,c)
);
},
{
closed = 1;
nodes = (
(246,100,l),
(-53,-249,o),
(-109,429,o),
(244,164,c)
);
},
{
closed = 1;
nodes = (
(399,-7,o),
(277,55,o),
(170,61,c),
(202,197,l),
(319,187,o),
(462,90,o),
(559,206,c),
(626,162,o),
(613,-7,o),
(478,-7,cs)
);
}
);
width = 623;
},
{
anchors = (
{
name = bottom;
pos = (270,0);
},
{
name = center;
pos = (321,355);
},
{
name = top;
pos = (302,710);
},
{
name = topright;
pos = (643,710);
}
);
associatedMasterId = "935688F5-83D3-4ABE-8A3A-DDCBCDDAE821";
layerId = "16C9F4BB-E01A-4589-AA75-917230D14F94";
name = "Aug 29, 23, 12:45";
shapes = (
{
closed = 1;
nodes = (
(613,-7,o),
(626,162,o),
(559,206,c),
(478,109,o),
(365,161,o),
(262,186,c),
(310,309,o),
(361,515,o),
(363,614,cs),
(365,693,o),
(331,725,o),
(285,725,cs),
(244,725,o),
(202,700,o),
(186,657,c),
(187,654,l),
(195,640,o),
(197,632,o),
(196,584,cs),
(194,493,o),
(167,334,o),
(131,223,c),
(-79,274,o),
(-23,-155,o),
(205,57,c),
(303,42,o),
(408,-7,o),
(478,-7,cs)
);
}
);
width = 623;
},
{
layerId = "935688F5-83D3-4ABE-8A3A-DDCBCDDAE821";
shapes = (
{
closed = 1;
nodes = (
(560,-7,o),
(596,58,o),
(596,118,cs),
(596,154,o),
(583,189,o),
(557,206,c),
(521,163,o),
(480,150,o),
(436,150,cs),
(379,150,o),
(318,172,o),
(260,186,c),
(309,312,o),
(361,524,o),
(361,619,cs),
(361,695,o),
(328,725,o),
(283,725,cs),
(242,725,o),
(200,700,o),
(184,657,c),
(185,654,l),
(192,642,o),
(194,635,o),
(194,608,cs),
(194,507,o),
(167,339,o),
(129,223,c),
(117,226,o),
(106,227,o),
(97,227,cs),
(29,227,o),
(-2,170,o),
(-2,113,cs),
(-2,56,o),
(29,-2,o),
(87,-2,cs),
(118,-2,o),
(157,14,o),
(203,57,c),
(301,42,o),
(406,-7,o),
(478,-7,cs)
);
}
);
width = 624;
}
);
unicode = 76;
}
{
glyphname = M;
layers = (
{
anchors = (
{
name = bottom;
pos = (481,0);
},
{
name = top;
pos = (533,690);
}
);
associatedMasterId = "935688F5-83D3-4ABE-8A3A-DDCBCDDAE821";
layerId = "6F6F5B49-E926-401C-B42F-EC2183A02888";
name = "Oct 1, 23, 18:40";
shapes = (
{
closed = 1;
nodes = (
(860,0,o),
(937,64,o),
(937,196,c),
(930,199,l),
(919,160,o),
(894,142,o),
(876,142,cs),
(840,142,o),
(828,188,o),
(828,254,cs),
(828,348,o),
(854,482,o),
(872,574,c),
(886,576,o),
(901,577,o),
(916,577,cs),
(946,577,o),
(979,573,o),
(1013,564,c),
(1013,640,o),
(936,728,o),
(834,728,cs),
(724,728,o),
(585,626,o),
(483,298,c),
(431,618,o),
(319,728,o),
(225,728,cs),
(143,728,o),
(74,643,o),
(72,541,c),
(79,538,l),
(102,577,o),
(128,592,o),
(154,592,cs),
(169,592,o),
(184,587,o),
(197,578,c),
(176,472,o),
(35,263,o),
(35,126,cs),
(35,39,o),
(90,1,o),
(145,1,cs),
(201,1,o),
(257,40,o),
(257,106,c),
(255,108,l),
(234,108,o),
(225,128,o),
(225,163,cs),
(225,231,o),
(258,353,o),
(287,472,c),
(349,366,o),
(380,277,o),
(404,207,c),
(383,159,o),
(371,117,o),
(371,85,cs),
(371,36,o),
(398,7,o),
(459,7,cs),
(529,7,o),
(554,42,o),
(554,101,cs),
(554,132,o),
(547,169,o),
(536,212,c),
(587,354,o),
(655,466,o),
(747,527,c),
(701,425,o),
(661,274,o),
(661,154,cs),
(661,52,o),
(723,0,o),
(787,0,cs)
);
}
);
width = 996;
},
{
associatedMasterId = "935688F5-83D3-4ABE-8A3A-DDCBCDDAE821";
layerId = "86E16B0C-E3AC-4DAC-9891-BCC06BA4369D";
name = "Jun 9, 23, 17:52";
shapes = (
{
closed = 1;
nodes = (
(57,538,l),
(101,613,o),
(159,585,o),
(195,547,c),
(177,583,l),
(173,485,o),
(53,314,o),
(53,126,cs),
(53,-49,o),
(267,-26,o),
(267,106,c),
(265,108,l),
(192,107,o),
(272,373,o),
(270,529,c),
(227,520,l),
(315,387,o),
(364,290,o),
(392,207,c),
(362,129,o),
(355,7,o),
(457,7,cs),
(563,7,o),
(554,130,o),
(524,212,c),
(616,454,o),
(781,598,o),
(1001,564,c),
(1001,728,o),
(644,944,o),
(452,232,c),
(481,229,l),
(397,909,o),
(54,768,o),
(50,541,c)
);
},
{
closed = 1;
nodes = (
(773,585,l),
(716,493,o),
(663,300,o),
(663,154,cs),
(663,46,o),
(723,1,o),
(786,1,cs),
(858,1,o),
(935,58,o),
(935,196,c),
(928,199,l),
(917,160,o),
(892,142,o),
(874,142,cs),
(785,142,o),
(831,431,o),
(862,585,c)
);
}
);
width = 1006;
},
{
associatedMasterId = "935688F5-83D3-4ABE-8A3A-DDCBCDDAE821";
layerId = "16C910EA-CF35-4AE2-A450-5C3994935C72";
name = "Jun 21, 23, 14:40";
shapes = (
{
closed = 1;
nodes = (
(57,538,l),
(101,613,o),
(159,599,o),
(195,561,c),
(177,597,l),
(173,499,o),
(53,272,o),
(53,126,cs),
(53,-49,o),
(275,-26,o),
(275,106,c),
(273,108,l),
(200,107,o),
(239,348,o),
(282,543,c),
(227,534,l),
(315,401,o),
(364,290,o),
(392,207,c),
(349,86,o),
(355,7,o),
(457,7,cs),
(563,7,o),
(566,87,o),
(524,212,c),
(616,468,o),
(763,625,o),
(1001,564,c),
(1001,728,o),
(644,944,o),
(452,232,c),
(481,229,l),
(397,909,o),
(54,768,o),
(50,541,c)
);
},
{
closed = 1;
nodes = (
(765,585,l),
(708,493,o),
(659,300,o),
(659,154,cs),
(659,52,o),
(721,0,o),
(785,0,cs),
(858,0,o),
(935,64,o),
(935,196,c),
(928,199,l),
(917,160,o),
(892,142,o),
(874,142,cs),
(785,142,o),
(831,431,o),
(862,585,c)
);
}
);
width = 1006;
},
{
anchors = (
{
name = bottom;
pos = (474,0);
},
{
name = top;
pos = (537,720);
}
);
associatedMasterId = "935688F5-83D3-4ABE-8A3A-DDCBCDDAE821";
layerId = "A2B95169-B3E7-4EDB-B80E-7CB461240CC0";
name = "Aug 9, 23, 20:54";
shapes = (
{
closed = 1;
nodes = (
(558,7,o),
(561,87,o),
(529,212,c),
(621,468,o),
(768,625,o),
(1006,564,c),
(1006,728,o),
(649,944,o),
(457,232,c),
(486,229,l),
(402,909,o),
(69,768,o),
(65,541,c),
(72,538,l),
(116,613,o),
(174,599,o),
(210,561,c),
(192,597,l),
(188,499,o),
(28,272,o),
(28,126,cs),
(28,-49,o),
(250,-26,o),
(250,106,c),
(248,108,l),
(175,107,o),
(254,348,o),
(297,543,c),
(242,534,l),
(330,401,o),
(369,290,o),
(397,207,c),
(344,86,o),
(350,7,o),
(452,7,cs)
);
},
{
closed = 1;
nodes = (
(853,0,o),
(930,64,o),
(930,196,c),
(923,199,l),
(912,160,o),
(887,142,o),
(869,142,cs),
(780,142,o),
(836,431,o),
(867,585,c),
(770,585,l),
(713,493,o),
(654,300,o),
(654,154,cs),
(654,52,o),
(716,0,o),
(780,0,cs)
);
}
);
width = 991;
},
{
anchors = (
{
name = bottom;
pos = (474,0);
},
{
name = top;
pos = (536,710);
}
);
associatedMasterId = "935688F5-83D3-4ABE-8A3A-DDCBCDDAE821";
layerId = "16C9F4BB-E01A-4589-AA75-917230D14F94";
name = "Aug 29, 23, 12:45";
shapes = (
{
closed = 1;
nodes = (
(853,0,o),
(930,64,o),
(930,196,c),
(923,199,l),
(912,160,o),
(887,142,o),
(869,142,cs),
(833,142,o),
(821,188,o),
(821,254,cs),
(821,348,o),
(847,482,o),
(865,574,c),
(879,576,o),
(894,577,o),
(909,577,cs),
(939,577,o),
(972,573,o),
(1006,564,c),
(1006,640,o),
(929,728,o),
(827,728,cs),
(717,728,o),
(578,626,o),
(476,298,c),
(424,618,o),
(312,728,o),
(218,728,cs),
(136,728,o),
(67,643,o),
(65,541,c),
(72,538,l),
(95,577,o),
(121,592,o),
(147,592,cs),
(162,592,o),
(177,587,o),
(190,578,c),
(169,472,o),
(28,263,o),
(28,126,cs),
(28,39,o),
(83,1,o),
(138,1,cs),
(194,1,o),
(250,40,o),
(250,106,c),
(248,108,l),
(227,108,o),
(218,128,o),
(218,163,cs),
(218,231,o),
(251,353,o),
(280,472,c),
(342,366,o),
(373,277,o),
(397,207,c),
(376,159,o),
(364,117,o),
(364,85,cs),
(364,36,o),
(391,7,o),
(452,7,cs),
(522,7,o),
(547,42,o),
(547,101,cs),
(547,132,o),
(540,169,o),
(529,212,c),
(580,354,o),
(648,466,o),
(740,527,c),
(694,425,o),
(654,274,o),
(654,154,cs),
(654,52,o),
(716,0,o),
(780,0,cs)
);
}
);
width = 991;
},
{
layerId = "935688F5-83D3-4ABE-8A3A-DDCBCDDAE821";
shapes = (
{
closed = 1;
nodes = (
(860,0,o),
(937,64,o),
(937,196,c),
(930,199,l),
(919,160,o),
(894,142,o),
(873,142,cs),
(840,142,o),
(828,188,o),
(828,253,cs),
(828,348,o),
(854,482,o),
(872,574,c),
(886,576,o),
(901,577,o),
(916,577,cs),
(946,577,o),
(979,573,o),
(1013,564,c),
(1013,640,o),
(936,728,o),
(834,728,cs),
(724,728,o),
(585,626,o),
(483,298,c),
(431,618,o),
(319,728,o),
(225,728,cs),
(143,728,o),
(74,643,o),
(72,541,c),
(79,538,l),
(102,577,o),
(128,592,o),
(154,592,cs),
(169,592,o),
(184,587,o),
(197,578,c),
(176,472,o),
(35,263,o),
(35,125,cs),
(35,39,o),
(90,1,o),
(145,1,cs),
(201,1,o),
(257,40,o),
(257,106,c),
(255,108,l),
(234,108,o),
(225,128,o),
(225,163,cs),
(225,231,o),
(258,353,o),
(287,472,c),
(349,366,o),
(380,277,o),
(404,207,c),
(383,159,o),
(371,117,o),
(371,85,cs),
(371,36,o),
(398,7,o),
(460,7,cs),
(529,7,o),
(554,42,o),
(554,101,cs),
(554,132,o),
(547,169,o),
(536,212,c),
(587,354,o),
(655,466,o),
(747,527,c),
(701,425,o),
(661,274,o),
(661,175,cs),
(661,52,o),
(723,0,o),
(788,0,cs)
);
}
);
width = 996;
}
);
unicode = 77;
}
{
glyphname = N;
layers = (
{
anchors = (
{
name = bottom;
pos = (327,0);
},
{
name = top;
pos = (389,710);
}
);
associatedMasterId = "935688F5-83D3-4ABE-8A3A-DDCBCDDAE821";
layerId = "AFB6FA40-74B1-4F1C-B575-FBA3E7B2A92D";
name = "Oct 1, 23, 18:41";
shapes = (
{
closed = 1;
nodes = (
(574,-4,o),
(618,42,o),
(619,93,cs),
(619,95,o),
(619,98,o),
(618,103,c),
(593,103,o),
(595,130,o),
(595,149,cs),
(598,282,o),
(671,503,o),
(671,609,cs),
(671,681,o),
(637,722,o),
(592,722,cs),
(561,722,o),
(524,702,o),
(490,663,c),
(490,655,l),
(499,622,o),
(503,575,o),
(503,519,cs),
(503,403,o),
(486,256,o),
(474,177,c),
(439,422,o),
(356,722,o),
(191,722,cs),
(124,722,o),
(58,673,o),
(56,533,c),
(66,530,l),
(75,555,o),
(91,571,o),
(115,571,cs),
(123,571,o),
(133,569,o),
(143,565,c),
(144,446,o),
(60,294,o),
(60,121,c),
(60,34,o),
(109,-4,o),
(158,-4,cs),
(207,-4,o),
(257,35,o),
(257,101,c),
(233,135,o),
(225,181,o),
(225,234,cs),
(225,323,o),
(248,430,o),
(244,511,c),
(369,304,o),
(332,-4,o),
(507,-4,cs)
);
}
);
width = 691;
},
{
associatedMasterId = "935688F5-83D3-4ABE-8A3A-DDCBCDDAE821";
layerId = "284DB472-9721-4D16-96A0-17E65969B84A";
name = "May 26, 23, 15:00";
shapes = (
{
closed = 1;
nodes = (
(48,562,l),
(65,608,o),
(121,626,o),
(121,566,cs),
(121,497,o),
(57,340,o),
(57,121,cs),
(57,32,o),
(102,0,o),
(149,0,cs),
(197,0,o),
(250,30,o),
(250,113,cs),
(250,321,o),
(225,323,o),
(266,452,cs),
(285,512,o),
(333,561,o),
(376,561,cs),
(471,561,o),
(232,0,o),
(469,0,cs),
(527,0,o),
(606,57,o),
(606,139,c),
(598,144,l),
(591,129,o),
(576,112,o),
(558,112,cs),
(486,112,o),
(575,451,o),
(575,585,cs),
(575,677,o),
(533,717,o),
(477,717,cs),
(408,717,o),
(309,639,o),
(256,514,c),
(283,537,l),
(297,669,o),
(246,717,o),
(184,717,cs),
(113,717,o),
(40,657,o),
(40,567,c)
);
}
);
width = 621;
},
{
associatedMasterId = "935688F5-83D3-4ABE-8A3A-DDCBCDDAE821";
layerId = "3C9276FD-9EA4-4454-AB77-B232E9129619";
name = "May 26, 23, 14:59";
shapes = (
{
closed = 1;
nodes = (
(48,445,l),
(65,491,o),
(121,509,o),
(121,449,cs),
(121,380,o),
(57,223,o),
(57,121,cs),
(57,32,o),
(102,0,o),
(149,0,cs),
(197,0,o),
(250,30,o),
(250,113,cs),
(250,204,o),
(225,206,o),
(266,335,cs),
(285,395,o),
(333,444,o),
(376,444,cs),
(471,444,o),
(232,0,o),
(469,0,cs),
(527,0,o),
(606,57,o),
(606,139,c),
(598,144,l),
(591,129,o),
(576,112,o),
(558,112,cs),
(486,112,o),
(575,334,o),
(575,468,cs),
(575,560,o),
(533,600,o),
(477,600,cs),
(408,600,o),
(309,522,o),
(256,397,c),
(283,420,l),
(297,552,o),
(246,600,o),
(184,600,cs),
(113,600,o),
(40,540,o),
(40,450,c)
);
}
);
width = 621;
},
{
associatedMasterId = "935688F5-83D3-4ABE-8A3A-DDCBCDDAE821";
layerId = "4E22E159-7FEF-4C23-A5B8-B016C966C097";
name = "May 25, 23, 13:23";
shapes = (
{
closed = 1;
nodes = (
(48,445,l),
(65,491,o),
(121,509,o),
(121,449,cs),
(121,380,o),
(57,223,o),
(57,121,cs),
(57,32,o),
(102,0,o),
(149,0,cs),
(197,0,o),
(249,34,o),
(255,73,c),
(255,79,l),
(220,156,o),
(245,247,o),
(266,335,c),
(292,392,o),
(333,444,o),
(376,444,cs),
(471,444,o),
(232,0,o),
(469,0,cs),
(527,0,o),
(606,57,o),
(606,139,c),
(598,144,l),
(591,129,o),
(576,112,o),
(558,112,cs),
(486,112,o),
(575,334,o),
(575,468,cs),
(575,560,o),
(533,600,o),
(477,600,cs),
(408,600,o),
(309,522,o),
(256,397,c),
(283,420,l),
(297,552,o),
(246,600,o),
(184,600,cs),
(113,600,o),
(40,540,o),
(40,450,c)
);
}
);
width = 621;
},
{
associatedMasterId = "935688F5-83D3-4ABE-8A3A-DDCBCDDAE821";
layerId = "6BD84930-BC94-47A1-A86F-9CF38C00F560";
name = "Jun 7, 23, 12:49";
shapes = (
{
closed = 1;
nodes = (
(569,0,o),
(620,46,o),
(621,94,cs),
(621,99,o),
(621,102,o),
(620,107,c),
(595,107,o),
(597,134,o),
(598,176,cs),
(600,284,o),
(671,491,o),
(673,595,cs),
(676,732,o),
(564,759,o),
(479,661,c),
(479,653,l),
(513,533,o),
(470,216,o),
(457,140,c),
(475,139,l),
(443,391,o),
(370,720,o),
(199,720,cs),
(129,720,o),
(52,673,o),
(50,533,c),
(60,530,l),
(75,572,o),
(121,590,o),
(185,545,c),
(139,595,l),
(157,471,o),
(54,315,o),
(54,127,cs),
(54,-48,o),
(268,-25,o),
(268,107,c),
(189,216,o),
(286,454,o),
(245,573,c),
(187,590,l),
(380,293,o),
(296,0,o),
(513,0,cs)
);
}
);
width = 698;
},
{
anchors = (
{
name = bottom;
pos = (330,0);
},
{
name = top;
pos = (392,710);
}
);
associatedMasterId = "935688F5-83D3-4ABE-8A3A-DDCBCDDAE821";
layerId = "16C9F4BB-E01A-4589-AA75-917230D14F94";
name = "Aug 29, 23, 12:45";
shapes = (
{
closed = 1;
nodes = (
(577,-4,o),
(621,42,o),
(622,90,cs),
(622,95,o),
(622,98,o),
(621,103,c),
(596,103,o),
(598,130,o),
(599,172,cs),
(601,280,o),
(672,491,o),
(674,595,cs),
(677,732,o),
(578,759,o),
(493,661,c),
(493,653,l),
(527,533,o),
(484,212,o),
(471,136,c),
(483,135,l),
(451,387,o),
(368,720,o),
(197,720,cs),
(127,720,o),
(61,673,o),
(59,533,c),
(69,530,l),
(84,572,o),
(119,590,o),
(183,545,c),
(144,595,l),
(162,471,o),
(63,309,o),
(63,121,cs),
(63,-54,o),
(260,-31,o),
(260,101,c),
(181,210,o),
(278,454,o),
(237,573,c),
(185,590,l),
(386,396,o),
(309,-4,o),
(521,-4,cs)
);
}
);
width = 704;
},
{
layerId = "935688F5-83D3-4ABE-8A3A-DDCBCDDAE821";
shapes = (
{
closed = 1;
nodes = (
(181,-4,o),
(231,35,o),
(231,101,c),
(207,135,o),
(199,181,o),
(199,234,cs),
(199,323,o),
(222,430,o),
(218,511,c),
(266,432,o),
(290,337,o),
(317,233,cs),
(347,113,o),
(377,-4,o),
(482,-4,cs),
(548,-4,o),
(592,42,o),
(593,93,cs),
(593,95,o),
(593,98,o),
(592,103,c),
(567,103,o),
(569,130,o),
(569,149,cs),
(572,282,o),
(645,503,o),
(645,609,cs),
(645,681,o),
(611,722,o),
(566,722,cs),
(535,722,o),
(498,702,o),
(464,663,c),
(464,655,l),
(473,622,o),
(477,575,o),
(477,519,cs),
(477,403,o),
(460,256,o),
(448,177,c),
(413,422,o),
(330,722,o),
(165,722,cs),
(98,722,o),
(32,673,o),
(30,533,c),
(40,530,l),
(49,555,o),
(65,571,o),
(89,571,cs),
(97,571,o),
(107,569,o),
(117,565,c),
(118,446,o),
(34,294,o),
(34,121,c),
(34,34,o),
(83,-4,o),
(132,-4,cs)
);
}
);
width = 695;
}
);
unicode = 78;
}
{
glyphname = O;
layers = (
{
anchors = (
{
name = bottom;
pos = (315,0);
},
{
name = center;
pos = (346,355);
},
{
name = ogonek;
pos = (478,10);
},
{
name = top;
pos = (380,710);
},
{
name = topleft;
pos = (63,710);
},
{
name = topright;
pos = (490,689);
}
);
associatedMasterId = "935688F5-83D3-4ABE-8A3A-DDCBCDDAE821";
layerId = "9330A8B9-0018-443D-A4AC-FC94F1D7477C";
name = "Sep 6, 23, 15:45";
shapes = (
{
closed = 1;
nodes = (
(522,-7,o),
(651,223,o),
(651,424,cs),
(651,583,o),
(571,726,o),
(394,726,cs),
(167,726,o),
(38,497,o),
(38,295,cs),
(38,136,o),
(118,-7,o),
(295,-7,cs)
);
},
{
closed = 1;
nodes = (
(256,120,o),
(217,221,o),
(217,330,cs),
(217,459,o),
(270,600,o),
(371,600,cs),
(440,600,o),
(473,500,o),
(473,392,cs),
(473,262,o),
(425,120,o),
(335,120,cs)
);
}
);
width = 668;
},
{
anchors = (
{
name = bottom;
pos = (315,0);
},
{
name = center;
pos = (346,355);
},
{
name = ogonek;
pos = (478,10);
},
{
name = top;
pos = (380,710);
},
{
name = topleft;
pos = (63,710);
},
{
name = topright;
pos = (534,656);
}
);
associatedMasterId = "935688F5-83D3-4ABE-8A3A-DDCBCDDAE821";
layerId = "A8878E1D-EB61-445D-80DE-242B50529604";
name = "Oct 1, 23, 18:42";
shapes = (
{
closed = 1;
nodes = (
(522,-7,o),
(651,223,o),
(651,424,cs),
(651,583,o),
(571,726,o),
(394,726,cs),
(167,726,o),
(38,497,o),
(38,295,cs),
(38,136,o),
(118,-7,o),
(295,-7,cs)
);
},
{
closed = 1;
nodes = (
(256,120,o),
(217,221,o),
(217,330,cs),
(217,459,o),
(270,600,o),
(371,600,cs),
(440,600,o),
(473,500,o),
(473,392,cs),
(473,262,o),
(425,120,o),
(335,120,cs)
);
}
);
width = 668;
},
{
associatedMasterId = "935688F5-83D3-4ABE-8A3A-DDCBCDDAE821";
layerId = "67E7E1AB-79F0-47FC-A04F-2082BE503A49";
name = "May 26, 23, 16:14";
shapes = (
{
closed = 1;
nodes = (
(655,-6,o),
(725,601,o),
(360,601,cs),
(-15,601,o),
(-95,-6,o),
(276,-6,cs)
);
},
{
closed = 1;
nodes = (
(183,102,o),
(194,493,o),
(325,493,cs),
(447,493,o),
(436,102,o),
(304,102,cs)
);
}
);
width = 635;
},
{
associatedMasterId = "935688F5-83D3-4ABE-8A3A-DDCBCDDAE821";
layerId = "6912E487-40C2-4662-A1BE-BB78603305EC";
name = "May 26, 23, 14:47";
shapes = (
{
closed = 1;
nodes = (
(502,-6,o),
(629,221,o),
(629,418,cs),
(629,578,o),
(545,723,o),
(364,723,cs),
(135,723,o),
(6,502,o),
(6,296,cs),
(6,138,o),
(90,-6,o),
(271,-6,cs)
);
},
{
closed = 1;
nodes = (
(241,123,o),
(210,225,o),
(210,333,cs),
(210,464,o),
(249,595,o),
(326,595,cs),
(389,595,o),
(419,493,o),
(419,377,cs),
(419,253,o),
(380,123,o),
(303,123,cs)
);
}
);
width = 635;
},
{
anchors = (
{
name = bottom;
pos = (312,0);
},
{
name = center;
pos = (343,355);
},
{
name = ogonek;
pos = (475,10);
},
{
name = top;
pos = (377,710);
},
{
name = topleft;
pos = (60,710);
},
{
name = topright;
pos = (688,710);
}
);
associatedMasterId = "935688F5-83D3-4ABE-8A3A-DDCBCDDAE821";
layerId = "16C9F4BB-E01A-4589-AA75-917230D14F94";
name = "Aug 29, 23, 12:45";
shapes = (
{
closed = 1;
nodes = (
(697,-7,o),
(792,726,o),
(391,726,cs),
(-14,726,o),
(-108,-7,o),
(292,-7,cs)
);
},
{
closed = 1;
nodes = (
(159,120,o),
(182,600,o),
(368,600,cs),
(519,600,o),
(498,120,o),
(332,120,cs)
);
}
);
width = 668;
},
{
background = {
shapes = (
{
closed = 1;
nodes = (
(642,-6,o),
(712,601,o),
(348,601,cs),
(-28,601,o),
(-107,-6,o),
(263,-6,cs)
);
},
{
closed = 1;
nodes = (
(170,102,o),
(181,493,o),
(313,493,cs),
(434,493,o),
(423,102,o),
(292,102,cs)
);
}
);
};
layerId = "935688F5-83D3-4ABE-8A3A-DDCBCDDAE821";
shapes = (
{
closed = 1;
nodes = (
(522,-7,o),
(652,223,o),
(652,423,cs),
(652,582,o),
(572,726,o),
(393,726,cs),
(168,726,o),
(39,496,o),
(39,295,cs),
(39,136,o),
(119,-7,o),
(297,-7,cs)
);
},
{
closed = 1;
nodes = (
(257,120,o),
(218,221,o),
(218,331,cs),
(218,458,o),
(271,599,o),
(362,599,cs),
(440,599,o),
(473,499,o),
(473,391,cs),
(473,262,o),
(425,120,o),
(334,120,cs)
);
}
);
width = 672;
}
);
unicode = 79;
}
{
glyphname = P;
layers = (
{
anchors = (
{
name = bottom;
pos = (287,0);
},
{
name = top;
pos = (349,710);
}
);
layerId = "935688F5-83D3-4ABE-8A3A-DDCBCDDAE821";
shapes = (
{
closed = 1;
nodes = (
(169,-4,o),
(201,8,o),
(224,31,c),
(222,48,o),
(221,65,o),
(221,83,cs),
(221,153,o),
(237,220,o),
(254,286,c),
(294,267,o),
(332,258,o),
(368,258,cs),
(509,258,o),
(609,394,o),
(609,520,cs),
(609,630,o),
(533,733,o),
(356,733,cs),
(180,733,o),
(41,631,o),
(41,473,c),
(47,471,l),
(83,539,o),
(110,579,o),
(143,579,cs),
(159,579,o),
(164,569,o),
(164,552,cs),
(164,474,o),
(53,240,o),
(52,108,cs),
(52,26,o),
(94,-4,o),
(140,-4,cs)
);
},
{
closed = 1;
nodes = (
(291,358,o),
(282,359,o),
(273,361,c),
(284,409,o),
(293,458,o),
(293,511,cs),
(293,541,o),
(290,574,o),
(280,608,c),
(295,611,o),
(309,612,o),
(320,612,cs),
(400,612,o),
(433,562,o),
(433,507,cs),
(433,437,o),
(380,358,o),
(300,358,cs)
);
}
);
width = 611;
},
{
associatedMasterId = "935688F5-83D3-4ABE-8A3A-DDCBCDDAE821";
layerId = "4C25E675-CD9C-42B1-95AE-235BD4450116";
name = "Jun 21, 23, 14:41";
shapes = (
{
closed = 1;
nodes = (
(195,242,o),
(328,410,o),
(274,608,c),
(551,658,o),
(411,218,o),
(181,404,c),
(165,342,l),
(525,19,o),
(817,733,o),
(338,733,cs),
(174,733,o),
(35,631,o),
(35,473,c),
(41,471,l),
(77,539,o),
(104,579,o),
(140,579,cs),
(211,579,o),
(47,271,o),
(46,94,cs),
(46,-17,o),
(158,-27,o),
(218,31,c)
);
}
);
width = 609;
},
{
anchors = (
{
name = bottom;
pos = (281,0);
},
{
name = top;
pos = (343,710);
}
);
associatedMasterId = "935688F5-83D3-4ABE-8A3A-DDCBCDDAE821";
layerId = "4CA0EEEE-FAB2-4283-B616-C3144E3C3E43";
name = "Aug 29, 23, 12:45";
shapes = (
{
closed = 1;
nodes = (
(195,242,o),
(328,410,o),
(274,608,c),
(551,658,o),
(411,218,o),
(181,404,c),
(165,342,l),
(545,19,o),
(837,733,o),
(338,733,cs),
(174,733,o),
(35,631,o),
(35,473,c),
(41,471,l),
(77,539,o),
(104,579,o),
(140,579,cs),
(211,579,o),
(47,271,o),
(46,94,cs),
(46,-17,o),
(158,-27,o),
(218,31,c)
);
}
);
width = 606;
},
{
anchors = (
{
name = bottom;
pos = (287,0);
},
{
name = top;
pos = (349,710);
}
);
associatedMasterId = "935688F5-83D3-4ABE-8A3A-DDCBCDDAE821";
layerId = "A919B5BE-27B9-42CF-A97C-CA34CAB50528";
name = "Oct 1, 23, 18:42";
shapes = (
{
closed = 1;
nodes = (
(169,-4,o),
(201,8,o),
(224,31,c),
(222,48,o),
(221,65,o),
(221,83,cs),
(221,153,o),
(237,220,o),
(254,286,c),
(294,267,o),
(332,258,o),
(368,258,cs),
(509,258,o),
(609,394,o),
(609,520,cs),
(609,630,o),
(533,733,o),
(356,733,cs),
(180,733,o),
(41,631,o),
(41,473,c),
(47,471,l),
(83,539,o),
(110,579,o),
(143,579,cs),
(159,579,o),
(164,569,o),
(164,552,cs),
(164,474,o),
(53,240,o),
(52,108,cs),
(52,26,o),
(94,-4,o),
(140,-4,cs)
);
},
{
closed = 1;
nodes = (
(291,358,o),
(282,359,o),
(273,361,c),
(284,409,o),
(293,458,o),
(293,511,cs),
(293,541,o),
(290,574,o),
(280,608,c),
(295,611,o),
(309,612,o),
(320,612,cs),
(400,612,o),
(433,562,o),
(433,507,cs),
(433,437,o),
(380,358,o),
(300,358,cs)
);
}
);
width = 611;
}
);
metricLeft = "=20";
metricRight = "=25";
unicode = 80;
userData = {
KernOnName = P;
};
}
{
glyphname = Q;
layers = (
{
anchors = (
{
name = bottom;
pos = (308,0);
},
{
name = center;
pos = (339,355);
},
{
name = ogonek;
pos = (471,10);
},
{
name = top;
pos = (370,710);
},
{
name = topleft;
pos = (56,710);
},
{
name = topright;
pos = (684,710);
}
);
associatedMasterId = "935688F5-83D3-4ABE-8A3A-DDCBCDDAE821";
layerId = "A8878E1D-EB61-445D-80DE-242B50529604";
name = "Oct 1, 23, 18:42";
shapes = (
{
closed = 1;
nodes = (
(601,-112,o),
(637,-64,o),
(658,2,c),
(654,10,l),
(628,9,o),
(604,9,o),
(581,9,cs),
(516,9,o),
(465,13,o),
(421,23,c),
(565,91,o),
(644,266,o),
(644,424,cs),
(644,583,o),
(564,726,o),
(387,726,cs),
(161,726,o),
(31,497,o),
(31,295,cs),
(31,135,o),
(112,-7,o),
(288,-7,cs),
(305,-7,o),
(321,-5,o),
(337,-3,c),
(355,-79,o),
(417,-141,o),
(541,-141,c)
);
},
{
closed = 1;
nodes = (
(249,120,o),
(210,221,o),
(210,331,cs),
(210,460,o),
(263,600,o),
(364,600,cs),
(433,600,o),
(466,501,o),
(466,392,cs),
(466,262,o),
(418,120,o),
(328,120,cs)
);
}
);
width = 665;
},
{
associatedMasterId = "935688F5-83D3-4ABE-8A3A-DDCBCDDAE821";
layerId = "0BE879DE-A4B0-4A25-9A70-D8EE7C10B36A";
name = "May 30, 23, 13:37";
shapes = (
{
closed = 1;
nodes = (
(16,-248,l),
(16,-113,o),
(100,-37,o),
(211,-37,cs),
(411,-37,o),
(585,-235,o),
(652,-49,c),
(663,-50,l),
(663,-193,o),
(613,-283,o),
(503,-283,cs),
(287,-283,o),
(152,-77,o),
(24,-251,c)
);
}
);
width = 707;
},
{
associatedMasterId = "935688F5-83D3-4ABE-8A3A-DDCBCDDAE821";
layerId = "DF7FE232-BB17-408C-AF33-C38633090C73";
name = "May 30, 23, 13:36";
shapes = (
{
closed = 1;
nodes = (
(260,27,l),
(401,516,o),
(321,-200,o),
(537,-200,cs),
(619,-200,o),
(682,-110,o),
(682,33,c),
(672,34,l),
(523,-284,o),
(593,278,o),
(394,278,cs),
(283,278,o),
(252,164,o),
(252,30,c)
);
}
);
width = 707;
},
{
associatedMasterId = "935688F5-83D3-4ABE-8A3A-DDCBCDDAE821";
layerId = "7D7C10E6-B8B2-476F-AFE0-E7095103B16A";
name = "May 30, 23, 12:53";
shapes = (
{
closed = 1;
nodes = (
(626,-138,o),
(600,-69,o),
(515,-69,cs),
(428,-69,o),
(247,-82,o),
(174,-82,cs),
(123,-82,o),
(126,-35,o),
(163,-17,c),
(161,-9,l),
(82,-3,o),
(10,-64,o),
(10,-124,cs),
(10,-176,o),
(23,-238,o),
(100,-238,cs),
(183,-238,o),
(408,-220,o),
(464,-230,cs),
(510,-238,o),
(500,-277,o),
(473,-287,c),
(473,-294,l),
(546,-307,o),
(606,-249,o),
(617,-189,cs)
);
}
);
width = 707;
},
{
associatedMasterId = "935688F5-83D3-4ABE-8A3A-DDCBCDDAE821";
layerId = "644BB4FC-36C0-477F-9018-A6256C567A9D";
name = "Jun 21, 23, 19:48";
shapes = (
{
closed = 1;
nodes = (
(38,-181,l),
(165,-7,o),
(301,-213,o),
(517,-213,cs),
(627,-213,o),
(676,-123,o),
(676,20,c),
(666,21,l),
(599,-165,o),
(424,33,o),
(225,33,cs),
(114,33,o),
(30,-43,o),
(30,-178,c)
);
}
);
width = 677;
},
{
anchors = (
{
name = bottom;
pos = (312,0);
},
{
name = top;
pos = (374,710);
}
);
associatedMasterId = "935688F5-83D3-4ABE-8A3A-DDCBCDDAE821";
layerId = "16C9F4BB-E01A-4589-AA75-917230D14F94";
name = "Aug 29, 23, 12:45";
shapes = (
{
closed = 1;
nodes = (
(605,-112,o),
(641,-64,o),
(662,2,c),
(658,10,l),
(508,5,o),
(426,13,o),
(347,49,c),
(335,36,l),
(340,-57,o),
(401,-141,o),
(545,-141,c)
);
}
);
width = 668;
},
{
layerId = "935688F5-83D3-4ABE-8A3A-DDCBCDDAE821";
shapes = (
{
closed = 1;
nodes = (
(601,-112,o),
(637,-64,o),
(658,2,c),
(654,10,l),
(628,9,o),
(604,9,o),
(581,9,cs),
(515,9,o),
(464,13,o),
(420,23,c),
(565,91,o),
(644,266,o),
(644,423,cs),
(644,582,o),
(564,726,o),
(386,726,cs),
(161,726,o),
(31,496,o),
(31,295,cs),
(31,135,o),
(112,-7,o),
(288,-7,cs),
(305,-7,o),
(321,-5,o),
(337,-3,c),
(354,-79,o),
(416,-141,o),
(540,-141,c)
);
},
{
closed = 1;
nodes = (
(249,120,o),
(210,221,o),
(210,331,cs),
(210,459,o),
(263,599,o),
(354,599,cs),
(432,599,o),
(465,500,o),
(465,391,cs),
(465,262,o),
(417,120,o),
(328,120,cs)
);
}
);
width = 665;
}
);
unicode = 81;
}
{
glyphname = T;
layers = (
{
associatedMasterId = "935688F5-83D3-4ABE-8A3A-DDCBCDDAE821";
layerId = "5BBF5342-E635-46A8-A4E3-9E04C3ADD97B";
name = "Jun 9, 23, 17:54";
shapes = (
{
closed = 1;
nodes = (
(125,620,o),
(378,535,o),
(552,535,cs),
(674,535,o),
(674,702,o),
(606,725,c),
(548,656,o),
(291,720,o),
(182,720,cs),
(53,720,o),
(30,663,o),
(30,537,c)
);
},
{
closed = 1;
nodes = (
(253,601,l),
(232,474,o),
(193,225,o),
(188,74,cs),
(185,-12,o),
(308,-22,o),
(364,36,c),
(367,249,o),
(396,459,o),
(421,574,c)
);
}
);
width = 627;
},
{
associatedMasterId = "935688F5-83D3-4ABE-8A3A-DDCBCDDAE821";
layerId = "1567EB8B-5837-4A96-8FED-5B92C5322386";
name = "Jun 21, 23, 15:17";
shapes = (
{
closed = 1;
nodes = (
(125,625,o),
(358,540,o),
(532,540,cs),
(654,540,o),
(654,702,o),
(586,725,c),
(528,656,o),
(291,720,o),
(182,720,cs),
(53,720,o),
(30,668,o),
(30,542,c)
);
},
{
closed = 1;
nodes = (
(243,606,l),
(222,479,o),
(183,222,o),
(178,71,cs),
(175,-15,o),
(289,-25,o),
(345,33,c),
(348,246,o),
(377,464,o),
(402,579,c)
);
}
);
width = 607;
},
{
associatedMasterId = "935688F5-83D3-4ABE-8A3A-DDCBCDDAE821";
layerId = "BC8D9B34-5864-479C-AF89-EC20DF18C59D";
name = "Jun 1, 23, 11:53";
shapes = (
{
closed = 1;
nodes = (
(243,628,l),
(277,441,o),
(197,258,o),
(197,127,cs),
(197,-47,o),
(413,-37,o),
(413,129,c),
(344,216,o),
(454,445,o),
(423,633,c)
);
},
{
closed = 1;
nodes = (
(130,620,o),
(383,535,o),
(557,535,cs),
(679,535,o),
(679,702,o),
(611,725,c),
(553,656,o),
(296,720,o),
(187,720,cs),
(58,720,o),
(35,663,o),
(35,537,c)
);
}
);
width = 632;
},
{
anchors = (
{
name = bottom;
pos = (286,0);
},
{
name = center;
pos = (317,355);
},
{
name = top;
pos = (348,710);
}
);
associatedMasterId = "935688F5-83D3-4ABE-8A3A-DDCBCDDAE821";
layerId = "16C9F4BB-E01A-4589-AA75-917230D14F94";
name = "Aug 29, 23, 12:45";
shapes = (
{
closed = 1;
nodes = (
(366,246,o),
(395,464,o),
(420,579,c),
(261,606,l),
(240,479,o),
(201,222,o),
(196,60,cs),
(193,-15,o),
(307,-25,o),
(363,33,c)
);
},
{
closed = 1;
nodes = (
(652,540,o),
(652,702,o),
(584,725,c),
(526,656,o),
(309,720,o),
(200,720,cs),
(81,720,o),
(58,668,o),
(58,542,c),
(153,625,o),
(376,540,o),
(530,540,cs)
);
}
);
width = 615;
},
{
layerId = "935688F5-83D3-4ABE-8A3A-DDCBCDDAE821";
shapes = (
{
closed = 1;
nodes = (
(284,-4,o),
(319,8,o),
(343,33,c),
(346,230,o),
(371,430,o),
(394,551,c),
(435,545,o),
(474,540,o),
(499,540,cs),
(580,540,o),
(610,593,o),
(610,643,cs),
(610,680,o),
(593,715,o),
(564,725,c),
(544,701,o),
(504,693,o),
(456,693,cs),
(367,693,o),
(251,720,o),
(171,720,cs),
(61,720,o),
(38,668,o),
(38,542,c),
(69,569,o),
(114,578,o),
(170,578,cs),
(188,578,o),
(212,577,o),
(236,574,c),
(214,439,o),
(181,209,o),
(176,60,c),
(174,17,o),
(211,-4,o),
(253,-4,cs)
);
}
);
width = 591;
}
);
unicode = 84;
}
{
glyphname = U;
layers = (
{
anchors = (
{
name = bottom;
pos = (316,0);
},
{
name = ogonek;
pos = (669,10);
},
{
name = top;
pos = (403,710);
},
{
name = topright;
pos = (622,656);
}
);
associatedMasterId = "935688F5-83D3-4ABE-8A3A-DDCBCDDAE821";
layerId = "B72ACBD2-1738-439D-B9AD-D96EAACEF3FC";
name = "Oct 1, 23, 18:44";
shapes = (
{
closed = 1;
nodes = (
(245,-4,o),
(343,62,o),
(416,209,c),
(424,54,o),
(471,-4,o),
(537,-4,cs),
(609,-4,o),
(670,64,o),
(670,193,c),
(662,197,l),
(649,158,o),
(628,139,o),
(609,139,cs),
(575,139,o),
(564,182,o),
(564,240,cs),
(564,284,o),
(571,337,o),
(580,384,c),
(654,462,o),
(681,542,o),
(681,604,cs),
(681,673,o),
(647,721,o),
(603,721,cs),
(540,721,o),
(456,623,o),
(425,347,c),
(381,266,o),
(318,169,o),
(267,169,cs),
(239,169,o),
(229,189,o),
(229,221,cs),
(229,310,o),
(306,492,o),
(306,609,cs),
(306,686,o),
(263,720,o),
(210,720,cs),
(136,720,o),
(49,649,o),
(43,532,c),
(53,528,l),
(64,560,o),
(90,582,o),
(108,582,cs),
(121,582,o),
(130,572,o),
(130,549,cs),
(130,474,o),
(56,278,o),
(56,140,cs),
(56,56,o),
(102,-4,o),
(173,-4,cs)
);
}
);
width = 696;
},
{
associatedMasterId = "935688F5-83D3-4ABE-8A3A-DDCBCDDAE821";
layerId = "701F3778-277B-4591-9FA7-20BFE3C7A7C8";
name = "Jun 8, 23, 12:53";
shapes = (
{
closed = 1;
nodes = (
(420,364,o),
(521,501,o),
(481,633,c),
(481,643,l),
(536,760,o),
(683,746,o),
(674,581,cs),
(669,482,o),
(581,308,o),
(575,201,cs),
(572,151,o),
(597,117,o),
(625,117,cs),
(640,117,o),
(657,127,o),
(672,149,c),
(680,145,l),
(675,56,o),
(609,-2,o),
(537,-2,cs),
(468,-2,o),
(403,52,o),
(410,185,cs)
);
},
{
closed = 1;
nodes = (
(73,317,o),
(192,583,o),
(129,583,cs),
(105,583,o),
(81,562,o),
(70,530,c),
(60,534,l),
(66,649,o),
(141,719,o),
(234,720,cs),
(484,721,o),
(145,172,o),
(290,172,cs),
(325,172,o),
(431,292,o),
(470,448,c),
(502,355,l),
(337,-111,o),
(73,-48,o),
(73,143,cs)
);
}
);
width = 700;
},
{
anchors = (
{
name = bottom;
pos = (333,0);
},
{
name = ogonek;
pos = (618,10);
},
{
name = top;
pos = (395,710);
},
{
name = topright;
pos = (730,710);
}
);
associatedMasterId = "935688F5-83D3-4ABE-8A3A-DDCBCDDAE821";
layerId = "16C9F4BB-E01A-4589-AA75-917230D14F94";
name = "Aug 29, 23, 12:45";
shapes = (
{
closed = 1;
nodes = (
(267,-4,o),
(407,110,o),
(475,368,c),
(415,258,l),
(415,66,o),
(464,-4,o),
(537,-4,cs),
(609,-4,o),
(670,64,o),
(670,193,c),
(662,197,l),
(649,158,o),
(628,139,o),
(609,139,cs),
(534,139,o),
(569,354,o),
(597,455,c),
(540,345,l),
(895,653,o),
(476,1040,o),
(419,278,c),
(474,444,l),
(451,393,o),
(344,169,o),
(267,169,cs),
(163,169,o),
(306,449,o),
(306,609,cs),
(306,686,o),
(263,720,o),
(210,720,cs),
(136,720,o),
(49,649,o),
(43,532,c),
(53,528,l),
(64,560,o),
(90,582,o),
(108,582,cs),
(121,582,o),
(130,572,o),
(130,549,cs),
(130,474,o),
(56,278,o),
(56,140,cs),
(56,56,o),
(102,-4,o),
(173,-4,cs)
);
}
);
width = 710;
},
{
layerId = "935688F5-83D3-4ABE-8A3A-DDCBCDDAE821";
shapes = (
{
closed = 1;
nodes = (
(220,-4,o),
(318,62,o),
(391,209,c),
(399,54,o),
(446,-4,o),
(512,-4,cs),
(584,-4,o),
(645,64,o),
(645,193,c),
(637,197,l),
(624,158,o),
(603,139,o),
(582,139,cs),
(550,139,o),
(539,182,o),
(539,239,cs),
(539,284,o),
(546,337,o),
(555,384,c),
(629,462,o),
(656,542,o),
(656,604,cs),
(656,673,o),
(622,721,o),
(578,721,cs),
(515,721,o),
(431,623,o),
(400,347,c),
(356,266,o),
(293,169,o),
(239,169,cs),
(214,169,o),
(204,189,o),
(204,221,cs),
(204,310,o),
(281,492,o),
(281,603,cs),
(281,686,o),
(238,720,o),
(186,720,cs),
(111,720,o),
(24,649,o),
(18,532,c),
(28,528,l),
(39,560,o),
(65,582,o),
(84,582,cs),
(96,582,o),
(105,572,o),
(105,547,cs),
(105,474,o),
(31,278,o),
(31,154,cs),
(31,56,o),
(77,-4,o),
(147,-4,cs)
);
}
);
width = 676;
}
);
unicode = 85;
}
{
glyphname = V;
layers = (
{
anchors = (
{
name = bottom;
pos = (339,0);
},
{
name = top;
pos = (401,710);
}
);
associatedMasterId = "935688F5-83D3-4ABE-8A3A-DDCBCDDAE821";
layerId = "B72ACBD2-1738-439D-B9AD-D96EAACEF3FC";
name = "Oct 1, 23, 18:44";
shapes = (
{
closed = 1;
nodes = (
(466,150,o),
(655,415,o),
(690,668,c),
(682,706,o),
(646,724,o),
(604,724,cs),
(560,724,o),
(512,704,o),
(484,668,c),
(487,654,o),
(488,637,o),
(488,619,cs),
(488,495,o),
(430,309,o),
(325,175,c),
(334,231,o),
(340,299,o),
(340,369,cs),
(340,542,o),
(303,720,o),
(185,720,cs),
(123,720,o),
(58,659,o),
(21,544,c),
(28,538,l),
(48,555,o),
(66,563,o),
(82,563,cs),
(183,563,o),
(202,126,o),
(198,26,c),
(225,0,o),
(266,-6,o),
(305,-4,c)
);
}
);
width = 678;
},
{
associatedMasterId = "935688F5-83D3-4ABE-8A3A-DDCBCDDAE821";
layerId = "320ECE80-8CE2-4A47-8D14-03AB2CE9FF95";
name = "Jun 22, 23, 13:35";
shapes = (
{
closed = 1;
nodes = (
(352,146,o),
(493,408,o),
(440,666,c),
(440,671,l),
(464,719,o),
(640,789,o),
(640,612,cs),
(640,249,o),
(367,-5,o),
(181,-4,c),
(-85,-4,o),
(132,380,o),
(132,534,cs),
(132,594,o),
(66,601,o),
(51,529,c),
(40,533,l),
(40,658,o),
(119,721,o),
(206,721,cs),
(456,721,o),
(152,146,o),
(250,146,cs)
);
}
);
width = 663;
},
{
associatedMasterId = "935688F5-83D3-4ABE-8A3A-DDCBCDDAE821";
layerId = "07C7A00E-8A53-4579-ADAE-052F5112C888";
name = "Jun 22, 23, 13:26";
shapes = (
{
closed = 1;
nodes = (
(-26,539,l),
(26,718,o),
(178,826,o),
(273,570,cs),
(404,219,o),
(342,161,o),
(339,144,c),
(302,146,l),
(433,308,o),
(468,548,o),
(437,656,c),
(437,663,l),
(505,735,o),
(618,745,o),
(642,668,c),
(642,428,o),
(419,150,o),
(294,-4,c),
(253,-4,l),
(209,277,o),
(92,698,o),
(-14,533,c)
);
}
);
width = 661;
},
{
associatedMasterId = "935688F5-83D3-4ABE-8A3A-DDCBCDDAE821";
layerId = "DAFA0777-F5E3-46B9-8562-45C0FBF50A2F";
name = "Jun 22, 23, 13:11";
shapes = (
{
closed = 1;
nodes = (
(352,146,o),
(493,408,o),
(440,666,c),
(440,671,l),
(464,719,o),
(640,789,o),
(640,612,cs),
(640,249,o),
(367,-5,o),
(181,-4,c),
(-85,-4,o),
(132,380,o),
(132,534,cs),
(132,594,o),
(66,601,o),
(51,529,c),
(40,533,l),
(40,658,o),
(119,721,o),
(206,721,cs),
(456,721,o),
(152,146,o),
(250,146,cs)
);
}
);
width = 661;
},
{
associatedMasterId = "935688F5-83D3-4ABE-8A3A-DDCBCDDAE821";
layerId = "8FA6C585-E37B-48A7-BF5B-C9FE63095ED7";
name = "Jun 1, 23, 13:05";
shapes = (
{
closed = 1;
nodes = (
(378,142,o),
(519,408,o),
(466,666,c),
(466,671,l),
(490,719,o),
(674,789,o),
(674,612,cs),
(674,249,o),
(393,1,o),
(207,1,cs),
(-68,1,o),
(132,330,o),
(132,534,cs),
(132,594,o),
(65,601,o),
(50,529,c),
(40,533,l),
(40,766,o),
(320,784,o),
(320,576,cs),
(320,405,o),
(198,142,o),
(276,142,cs)
);
}
);
width = 685;
},
{
anchors = (
{
name = bottom;
pos = (328,0);
},
{
name = top;
pos = (390,710);
}
);
associatedMasterId = "935688F5-83D3-4ABE-8A3A-DDCBCDDAE821";
layerId = "16C9F4BB-E01A-4589-AA75-917230D14F94";
name = "Aug 29, 23, 12:45";
shapes = (
{
closed = 1;
nodes = (
(455,150,o),
(644,415,o),
(679,668,c),
(671,706,o),
(635,724,o),
(593,724,cs),
(549,724,o),
(501,704,o),
(473,668,c),
(476,654,o),
(477,637,o),
(477,619,cs),
(477,486,o),
(410,281,o),
(290,147,c),
(301,113,l),
(345,284,o),
(358,720,o),
(174,720,cs),
(112,720,o),
(47,659,o),
(10,544,c),
(17,538,l),
(37,555,o),
(55,563,o),
(71,563,cs),
(172,563,o),
(191,126,o),
(187,26,c),
(214,0,o),
(255,-6,o),
(294,-4,c)
);
}
);
width = 699;
},
{
layerId = "935688F5-83D3-4ABE-8A3A-DDCBCDDAE821";
shapes = (
{
closed = 1;
nodes = (
(466,150,o),
(655,415,o),
(690,668,c),
(682,706,o),
(646,724,o),
(604,724,cs),
(560,724,o),
(512,704,o),
(484,668,c),
(487,654,o),
(488,637,o),
(488,621,cs),
(488,495,o),
(430,309,o),
(325,175,c),
(334,231,o),
(340,299,o),
(340,369,cs),
(340,542,o),
(303,720,o),
(189,720,cs),
(123,720,o),
(58,659,o),
(21,544,c),
(28,538,l),
(48,555,o),
(66,563,o),
(80,563,cs),
(183,563,o),
(202,126,o),
(198,26,c),
(225,0,o),
(266,-6,o),
(305,-4,c)
);
}
);
width = 678;
}
);
unicode = 86;
}
{
glyphname = W;
layers = (
{
anchors = (
{
name = bottom;
pos = (429,0);
},
{
name = top;
pos = (535,710);
}
);
associatedMasterId = "935688F5-83D3-4ABE-8A3A-DDCBCDDAE821";
layerId = "B72ACBD2-1738-439D-B9AD-D96EAACEF3FC";
name = "Oct 1, 23, 18:44";
shapes = (
{
closed = 1;
nodes = (
(275,-5,o),
(369,62,o),
(442,234,c),
(458,101,o),
(504,-4,o),
(608,-4,cs),
(764,-4,o),
(932,235,o),
(932,543,cs),
(932,680,o),
(884,722,o),
(836,722,cs),
(787,722,o),
(737,678,o),
(737,645,c),
(751,600,o),
(766,514,o),
(766,463,cs),
(766,292,o),
(684,167,o),
(627,167,cs),
(583,167,o),
(549,244,o),
(553,359,c),
(600,435,o),
(618,503,o),
(618,558,cs),
(618,646,o),
(573,701,o),
(527,701,cs),
(476,701,o),
(423,636,o),
(423,477,cs),
(423,455,o),
(424,427,o),
(427,398,c),
(385,275,o),
(294,167,o),
(259,167,cs),
(245,167,o),
(237,183,o),
(237,210,cs),
(237,287,o),
(299,458,o),
(299,580,cs),
(299,662,o),
(271,724,o),
(187,724,cs),
(98,724,o),
(41,653,o),
(41,538,c),
(51,534,l),
(62,577,o),
(87,588,o),
(103,588,cs),
(124,588,o),
(131,570,o),
(131,541,cs),
(131,458,o),
(71,277,o),
(71,167,cs),
(71,60,o),
(127,-5,o),
(200,-5,cs)
);
}
);
width = 935;
},
{
associatedMasterId = "935688F5-83D3-4ABE-8A3A-DDCBCDDAE821";
layerId = "440B5FE2-E786-4990-AFD6-0878D249770C";
name = "Jun 1, 23, 14:21";
shapes = (
{
closed = 1;
nodes = (
(506,263,l),
(932,678,o),
(351,984,o),
(479,234,c)
);
},
{
closed = 1;
nodes = (
(487,555,l),
(454,353,o),
(430,1,o),
(623,1,cs),
(778,1,o),
(1000,229,o),
(1000,571,cs),
(1000,765,o),
(852,765,o),
(783,639,c),
(784,634,l),
(855,375,o),
(725,194,o),
(649,194,cs),
(587,194,o),
(547,285,o),
(628,553,c)
);
},
{
closed = 1;
nodes = (
(478,448,l),
(441,292,o),
(322,195,o),
(288,195,cs),
(170,195,o),
(493,718,o),
(205,718,cs),
(129,718,o),
(46,647,o),
(40,532,c),
(49,528,l),
(64,571,o),
(89,582,o),
(105,582,cs),
(184,582,o),
(69,277,o),
(68,155,cs),
(66,-36,o),
(329,-111,o),
(494,294,c)
);
}
);
width = 1020;
},
{
associatedMasterId = "935688F5-83D3-4ABE-8A3A-DDCBCDDAE821";
layerId = "7A83B5CA-CBAB-413F-8BD4-7C7C44D659F3";
name = "Jun 1, 23, 13:15";
shapes = (
{
closed = 1;
nodes = (
(469,503,l),
(446,180,o),
(327,172,o),
(299,172,cs),
(144,172,o),
(482,720,o),
(196,720,cs),
(118,720,o),
(45,652,o),
(50,535,c),
(59,532,l),
(76,590,o),
(124,612,o),
(127,544,cs),
(130,477,o),
(66,301,o),
(72,179,cs),
(78,59,o),
(138,0,o),
(226,0,cs),
(307,0,o),
(477,75,o),
(504,361,c)
);
},
{
closed = 1;
nodes = (
(500,203,l),
(765,561,o),
(658,702,o),
(579,702,cs),
(488,702,o),
(431,630,o),
(450,234,c)
);
},
{
closed = 1;
nodes = (
(459,555,l),
(425,353,o),
(418,1,o),
(627,1,cs),
(777,1,o),
(1025,229,o),
(1006,612,cs),
(998,789,o),
(832,719,o),
(812,671,c),
(812,666,l),
(864,388,o),
(728,172,o),
(630,172,cs),
(561,172,o),
(572,372,o),
(608,553,c)
);
}
);
width = 1057;
},
{
associatedMasterId = "935688F5-83D3-4ABE-8A3A-DDCBCDDAE821";
layerId = "DEB708E2-78CF-4E81-88F6-8064F907BF28";
name = "Jun 1, 23, 13:10";
shapes = (
{
closed = 1;
nodes = (
(545,503,l),
(503,180,o),
(372,172,o),
(342,172,cs),
(173,172,o),
(548,720,o),
(258,720,cs),
(173,720,o),
(90,652,o),
(90,535,c),
(99,532,l),
(121,590,o),
(174,612,o),
(174,544,cs),
(174,477,o),
(95,301,o),
(95,179,cs),
(95,59,o),
(158,0,o),
(253,0,cs),
(342,0,o),
(531,75,o),
(575,361,c)
);
},
{
closed = 1;
nodes = (
(562,203,l),
(870,561,o),
(761,702,o),
(675,702,cs),
(576,702,o),
(510,630,o),
(510,234,c)
);
},
{
closed = 1;
nodes = (
(536,555,l),
(488,353,o),
(463,1,o),
(690,1,cs),
(854,1,o),
(1135,229,o),
(1135,612,cs),
(1135,789,o),
(951,719,o),
(927,671,c),
(927,666,l),
(980,388,o),
(809,172,o),
(702,172,cs),
(627,172,o),
(650,372,o),
(699,553,c)
);
}
);
width = 1136;
},
{
associatedMasterId = "935688F5-83D3-4ABE-8A3A-DDCBCDDAE821";
layerId = "87652D42-9914-40EA-B6CC-516D5E97CB64";
name = "Jun 1, 23, 12:49";
shapes = (
{
closed = 1;
nodes = (
(434,344,l),
(436,323,o),
(438,302,o),
(441,279,c),
(399,214,o),
(352,195,o),
(322,195,cs),
(230,195,o),
(330,472,o),
(330,579,cs),
(330,676,o),
(255,720,o),
(192,720,cs),
(115,720,o),
(50,654,o),
(50,538,c),
(59,535,l),
(81,593,o),
(134,596,o),
(134,528,cs),
(134,461,o),
(85,301,o),
(85,179,cs),
(85,59,o),
(138,0,o),
(233,0,cs),
(322,0,o),
(473,125,o),
(517,292,c),
(443,312,l),
(443,239,o),
(461,177,o),
(491,127,c),
(612,234,l),
(595,256,o),
(580,284,o),
(576,311,c),
(582,321,o),
(589,331,o),
(595,343,c)
);
},
{
closed = 1;
nodes = (
(721,784,o),
(441,766,o),
(441,533,c),
(451,529,l),
(466,601,o),
(533,594,o),
(533,534,cs),
(533,330,o),
(333,1,o),
(608,1,cs),
(794,1,o),
(1075,249,o),
(1075,612,cs),
(1075,789,o),
(891,719,o),
(867,671,c),
(867,666,l),
(920,408,o),
(779,142,o),
(677,142,cs),
(599,142,o),
(721,405,o),
(721,576,cs)
);
}
);
width = 1036;
},
{
associatedMasterId = "935688F5-83D3-4ABE-8A3A-DDCBCDDAE821";
layerId = "6F5AA2CC-CC53-4F98-AED4-C3EDD35B8839";
name = "Jun 1, 23, 12:48";
shapes = (
{
closed = 1;
nodes = (
(59,535,l),
(81,593,o),
(134,596,o),
(134,528,cs),
(134,461,o),
(85,301,o),
(85,179,cs),
(85,59,o),
(138,0,o),
(233,0,cs),
(322,0,o),
(473,125,o),
(517,292,c),
(443,312,l),
(443,123,o),
(566,0,o),
(695,0,cs),
(839,0,o),
(991,152,o),
(991,531,cs),
(991,644,o),
(943,726,o),
(894,726,cs),
(842,726,o),
(791,684,o),
(772,647,c),
(772,639,l),
(792,600,o),
(802,563,o),
(802,482,cs),
(802,241,o),
(725,196,o),
(670,196,cs),
(635,196,o),
(585,255,o),
(576,311,c),
(614,367,o),
(646,461,o),
(646,563,cs),
(646,646,o),
(629,702,o),
(566,702,cs),
(477,702,o),
(401,594,o),
(441,279,c),
(399,214,o),
(352,195,o),
(322,195,cs),
(230,195,o),
(330,472,o),
(330,579,cs),
(330,676,o),
(255,720,o),
(192,720,cs),
(115,720,o),
(50,654,o),
(50,538,c)
);
}
);
width = 1036;
},
{
associatedMasterId = "935688F5-83D3-4ABE-8A3A-DDCBCDDAE821";
layerId = "EEF70010-D5E5-4983-808A-28CE6A7A0A92";
name = "Jun 1, 23, 12:17";
shapes = (
{
closed = 1;
nodes = (
(530,533,l),
(530,281,o),
(387,195,o),
(322,195,cs),
(230,195,o),
(330,472,o),
(330,579,cs),
(330,676,o),
(255,720,o),
(192,720,cs),
(115,720,o),
(50,654,o),
(50,538,c),
(59,535,l),
(81,593,o),
(134,596,o),
(134,528,cs),
(134,461,o),
(85,301,o),
(85,179,cs),
(85,59,o),
(138,0,o),
(233,0,cs),
(338,0,o),
(440,107,o),
(530,243,c),
(583,274,o),
(646,401,o),
(646,543,cs),
(646,626,o),
(629,682,o),
(566,682,cs),
(471,682,o),
(389,557,o),
(452,184,c),
(571,260,l)
);
},
{
closed = 1;
nodes = (
(497,260,l),
(453,195,l),
(473,86,o),
(565,0,o),
(679,0,cs),
(825,0,o),
(991,138,o),
(991,531,cs),
(991,644,o),
(943,726,o),
(894,726,cs),
(842,726,o),
(791,684,o),
(772,647,c),
(772,639,l),
(792,600,o),
(802,563,o),
(802,482,cs),
(802,241,o),
(725,196,o),
(670,196,cs),
(631,196,o),
(573,245,o),
(574,312,c)
);
}
);
width = 992;
},
{
anchors = (
{
name = bottom;
pos = (426,0);
},
{
name = top;
pos = (532,710);
}
);
associatedMasterId = "935688F5-83D3-4ABE-8A3A-DDCBCDDAE821";
layerId = "06820FEF-BF15-4DBD-8395-6AD148585E6D";
name = "Aug 30, 23, 22:12";
shapes = (
{
closed = 1;
nodes = (
(272,-5,o),
(366,62,o),
(439,234,c),
(455,101,o),
(501,-4,o),
(605,-4,cs),
(761,-4,o),
(948,229,o),
(948,537,cs),
(948,687,o),
(904,725,o),
(853,725,cs),
(810,725,o),
(763,697,o),
(734,639,c),
(734,634,l),
(755,571,o),
(763,511,o),
(763,457,cs),
(763,286,o),
(681,167,o),
(624,167,cs),
(580,167,o),
(546,238,o),
(550,353,c),
(597,429,o),
(615,497,o),
(615,552,cs),
(615,640,o),
(570,695,o),
(524,695,cs),
(473,695,o),
(420,630,o),
(420,471,cs),
(420,449,o),
(421,421,o),
(424,392,c),
(382,269,o),
(291,167,o),
(256,167,cs),
(242,167,o),
(234,183,o),
(234,210,cs),
(234,287,o),
(296,452,o),
(296,574,cs),
(296,656,o),
(268,718,o),
(184,718,cs),
(95,718,o),
(38,647,o),
(38,532,c),
(48,528,l),
(59,571,o),
(84,582,o),
(100,582,cs),
(121,582,o),
(128,564,o),
(128,535,cs),
(128,452,o),
(68,277,o),
(68,167,cs),
(68,60,o),
(124,-5,o),
(197,-5,cs)
);
}
);
width = 943;
},
{
anchors = (
{
name = bottom;
pos = (450,0);
},
{
name = top;
pos = (512,710);
}
);
associatedMasterId = "935688F5-83D3-4ABE-8A3A-DDCBCDDAE821";
layerId = "16C9F4BB-E01A-4589-AA75-917230D14F94";
name = "Aug 29, 23, 12:45";
shapes = (
{
closed = 1;
nodes = (
(761,-4,o),
(948,229,o),
(948,611,cs),
(948,751,o),
(796,765,o),
(734,639,c),
(734,634,l),
(819,375,o),
(699,167,o),
(623,167,cs),
(580,167,o),
(546,238,o),
(550,353,c),
(766,697,o),
(376,892,o),
(424,392,c),
(382,269,o),
(291,167,o),
(262,167,cs),
(144,167,o),
(459,718,o),
(171,718,cs),
(95,718,o),
(38,647,o),
(38,532,c),
(48,528,l),
(59,571,o),
(84,582,o),
(100,582,cs),
(179,582,o),
(68,322,o),
(68,150,cs),
(68,-40,o),
(316,-116,o),
(460,288,c),
(435,272,l),
(447,122,o),
(491,-4,o),
(607,-4,cs)
);
}
);
width = 943;
},
{
layerId = "935688F5-83D3-4ABE-8A3A-DDCBCDDAE821";
shapes = (
{
closed = 1;
nodes = (
(274,-5,o),
(368,62,o),
(442,234,c),
(458,107,o),
(504,-4,o),
(608,-4,cs),
(764,-4,o),
(932,235,o),
(932,525,cs),
(932,680,o),
(884,722,o),
(836,722,cs),
(787,722,o),
(737,678,o),
(737,645,c),
(751,600,o),
(766,514,o),
(766,447,cs),
(766,292,o),
(684,171,o),
(627,171,cs),
(583,171,o),
(549,244,o),
(553,359,c),
(600,435,o),
(618,503,o),
(618,558,cs),
(618,646,o),
(573,701,o),
(527,701,cs),
(476,701,o),
(423,636,o),
(423,477,cs),
(423,455,o),
(424,427,o),
(427,398,c),
(384,275,o),
(292,173,o),
(258,173,cs),
(245,173,o),
(237,183,o),
(237,210,cs),
(237,287,o),
(297,458,o),
(297,580,cs),
(297,662,o),
(270,724,o),
(187,724,cs),
(98,724,o),
(41,653,o),
(41,538,c),
(51,534,l),
(62,577,o),
(87,588,o),
(103,588,cs),
(124,588,o),
(131,570,o),
(131,541,cs),
(131,458,o),
(71,277,o),
(71,173,cs),
(71,60,o),
(127,-5,o),
(200,-5,cs)
);
}
);
width = 935;
}
);
unicode = 87;
}
{
glyphname = X;
layers = (
{
anchors = (
{
name = bottom;
pos = (310,0);
},
{
name = top;
pos = (372,710);
}
);
associatedMasterId = "935688F5-83D3-4ABE-8A3A-DDCBCDDAE821";
layerId = "B72ACBD2-1738-439D-B9AD-D96EAACEF3FC";
name = "Oct 1, 23, 18:44";
shapes = (
{
closed = 1;
nodes = (
(158,-6,o),
(252,89,o),
(280,257,c),
(349,69,o),
(400,-6,o),
(479,-6,cs),
(560,-6,o),
(606,72,o),
(606,207,c),
(594,209,l),
(590,175,o),
(574,160,o),
(555,160,cs),
(527,160,o),
(499,175,o),
(411,367,c),
(452,458,o),
(510,506,o),
(572,506,cs),
(591,506,o),
(610,502,o),
(629,493,c),
(653,536,o),
(666,585,o),
(666,627,cs),
(666,683,o),
(643,726,o),
(591,726,cs),
(516,726,o),
(419,634,o),
(378,443,c),
(337,542,o),
(280,726,o),
(175,726,cs),
(109,726,o),
(61,655,o),
(60,495,c),
(73,493,l),
(77,528,o),
(101,546,o),
(119,546,cs),
(175,546,o),
(217,438,o),
(251,339,c),
(214,258,o),
(149,202,o),
(64,202,cs),
(51,202,o),
(38,203,o),
(24,206,c),
(7,178,o),
(-2,142,o),
(-2,109,cs),
(-2,49,o),
(26,-6,o),
(83,-6,cs)
);
}
);
width = 659;
},
{
associatedMasterId = "935688F5-83D3-4ABE-8A3A-DDCBCDDAE821";
layerId = "E9BDD761-7388-41E1-8E28-E3FC7FC6C298";
name = "Jun 8, 23, 13:38";
shapes = (
{
closed = 1;
nodes = (
(574,-6,o),
(620,72,o),
(620,207,c),
(608,209,l),
(604,175,o),
(588,160,o),
(569,160,cs),
(538,160,o),
(508,178,o),
(398,428,cs),
(357,522,o),
(283,726,o),
(191,726,cs),
(106,726,o),
(43,655,o),
(42,495,c),
(55,493,l),
(59,528,o),
(83,546,o),
(101,546,cs),
(163,546,o),
(222,415,o),
(261,309,cs),
(345,83,o),
(413,-6,o),
(488,-6,cs)
);
},
{
closed = 1;
nodes = (
(165,-6,o),
(273,114,o),
(285,324,c),
(260,368,l),
(221,259,o),
(136,184,o),
(21,206,c),
(-28,126,o),
(-8,-6,o),
(87,-6,cs)
);
},
{
closed = 1;
nodes = (
(422,352,l),
(474,482,o),
(561,533,o),
(646,493,c),
(702,594,o),
(698,726,o),
(596,726,cs),
(525,726,o),
(414,612,o),
(383,375,c)
);
}
);
width = 682;
},
{
associatedMasterId = "935688F5-83D3-4ABE-8A3A-DDCBCDDAE821";
layerId = "319BECEA-CF95-4D6D-A432-F871F8D01F63";
name = "Jun 15, 23, 13:46";
shapes = (
{
closed = 1;
nodes = (
(564,-6,o),
(610,72,o),
(610,207,c),
(598,209,l),
(594,175,o),
(578,160,o),
(559,160,cs),
(528,160,o),
(498,178,o),
(388,428,cs),
(347,522,o),
(283,726,o),
(191,726,cs),
(106,726,o),
(53,655,o),
(52,495,c),
(65,493,l),
(69,528,o),
(93,546,o),
(111,546,cs),
(173,546,o),
(222,415,o),
(261,309,cs),
(345,83,o),
(403,-6,o),
(478,-6,cs)
);
},
{
closed = 1;
nodes = (
(165,-6,o),
(273,114,o),
(285,324,c),
(260,368,l),
(221,259,o),
(136,184,o),
(21,206,c),
(-28,126,o),
(-8,-6,o),
(87,-6,cs)
);
},
{
closed = 1;
nodes = (
(412,352,l),
(464,482,o),
(551,533,o),
(636,493,c),
(692,594,o),
(688,726,o),
(586,726,cs),
(515,726,o),
(404,612,o),
(373,375,c)
);
}
);
width = 672;
},
{
anchors = (
{
name = bottom;
pos = (314,0);
},
{
name = top;
pos = (376,710);
}
);
associatedMasterId = "935688F5-83D3-4ABE-8A3A-DDCBCDDAE821";
layerId = "16C9F4BB-E01A-4589-AA75-917230D14F94";
name = "Aug 29, 23, 12:45";
shapes = (
{
closed = 1;
nodes = (
(564,-6,o),
(610,72,o),
(610,207,c),
(598,209,l),
(594,175,o),
(578,160,o),
(559,160,cs),
(528,160,o),
(498,178,o),
(388,428,cs),
(347,522,o),
(290,726,o),
(179,726,cs),
(113,726,o),
(65,655,o),
(64,495,c),
(77,493,l),
(81,528,o),
(105,546,o),
(123,546,cs),
(185,546,o),
(229,415,o),
(266,309,cs),
(344,83,o),
(397,-6,o),
(483,-6,cs)
);
},
{
closed = 1;
nodes = (
(172,-6,o),
(280,114,o),
(292,324,c),
(267,368,l),
(228,259,o),
(143,184,o),
(28,206,c),
(-21,126,o),
(-1,-6,o),
(87,-6,cs)
);
},
{
closed = 1;
nodes = (
(409,352,l),
(461,482,o),
(548,533,o),
(633,493,c),
(689,594,o),
(685,726,o),
(595,726,cs),
(512,726,o),
(401,612,o),
(370,375,c)
);
}
);
width = 672;
},
{
anchors = (
{
name = bottom;
pos = (319,0);
},
{
name = top;
pos = (382,720);
}
);
associatedMasterId = "935688F5-83D3-4ABE-8A3A-DDCBCDDAE821";
layerId = "3DA03565-C638-4163-AF03-0F0BAE926C8B";
name = "Aug 1, 23, 14:56";
shapes = (
{
closed = 1;
nodes = (
(566,-6,o),
(612,72,o),
(612,207,c),
(600,209,l),
(596,175,o),
(580,160,o),
(561,160,cs),
(530,160,o),
(500,178,o),
(390,428,cs),
(349,522,o),
(285,726,o),
(193,726,cs),
(108,726,o),
(60,655,o),
(59,495,c),
(72,493,l),
(76,528,o),
(100,546,o),
(118,546,cs),
(180,546,o),
(229,415,o),
(268,309,cs),
(352,83,o),
(405,-6,o),
(480,-6,cs)
);
},
{
closed = 1;
nodes = (
(172,-6,o),
(280,114,o),
(292,324,c),
(267,368,l),
(228,259,o),
(143,184,o),
(28,206,c),
(-21,126,o),
(-1,-6,o),
(94,-6,cs)
);
},
{
closed = 1;
nodes = (
(414,352,l),
(466,482,o),
(553,533,o),
(638,493,c),
(694,594,o),
(690,726,o),
(588,726,cs),
(517,726,o),
(406,612,o),
(375,375,c)
);
}
);
width = 674;
},
{
layerId = "935688F5-83D3-4ABE-8A3A-DDCBCDDAE821";
shapes = (
{
closed = 1;
nodes = (
(158,-6,o),
(252,89,o),
(280,257,c),
(349,69,o),
(400,-6,o),
(479,-6,cs),
(560,-6,o),
(606,72,o),
(606,207,c),
(594,209,l),
(590,175,o),
(574,160,o),
(551,160,cs),
(527,160,o),
(499,175,o),
(411,367,c),
(452,458,o),
(510,506,o),
(573,506,cs),
(591,506,o),
(610,502,o),
(629,493,c),
(653,536,o),
(666,585,o),
(666,627,cs),
(666,683,o),
(643,726,o),
(591,726,cs),
(516,726,o),
(419,634,o),
(378,443,c),
(337,542,o),
(280,726,o),
(175,726,cs),
(109,726,o),
(61,655,o),
(60,495,c),
(73,493,l),
(77,528,o),
(101,546,o),
(122,546,cs),
(175,546,o),
(217,438,o),
(251,339,c),
(214,258,o),
(149,202,o),
(63,202,cs),
(51,202,o),
(38,203,o),
(24,206,c),
(7,178,o),
(-2,142,o),
(-2,108,cs),
(-2,49,o),
(26,-6,o),
(83,-6,cs)
);
}
);
width = 659;
}
);
unicode = 88;
}
{
glyphname = Y;
layers = (
{
anchors = (
{
name = bottom;
pos = (302,0);
},
{
name = top;
pos = (373,710);
},
{
name = topleft;
pos = (45,710);
}
);
associatedMasterId = "935688F5-83D3-4ABE-8A3A-DDCBCDDAE821";
layerId = "B72ACBD2-1738-439D-B9AD-D96EAACEF3FC";
name = "Oct 1, 23, 18:44";
shapes = (
{
closed = 1;
nodes = (
(325,-4,o),
(358,7,o),
(383,33,c),
(404,114,o),
(411,167,o),
(411,236,cs),
(411,263,o),
(410,292,o),
(408,327,c),
(448,453,o),
(542,534,o),
(628,534,cs),
(649,534,o),
(670,529,o),
(690,518,c),
(698,543,o),
(702,566,o),
(702,588,cs),
(702,669,o),
(651,725,o),
(588,725,cs),
(514,725,o),
(423,646,o),
(379,440,c),
(347,579,o),
(276,720,o),
(167,720,cs),
(86,720,o),
(31,651,o),
(25,536,c),
(35,532,l),
(64,551,o),
(89,560,o),
(111,560,cs),
(201,560,o),
(242,421,o),
(242,268,cs),
(242,187,o),
(230,102,o),
(209,31,c),
(223,11,o),
(257,-4,o),
(294,-4,cs)
);
}
);
width = 683;
},
{
associatedMasterId = "935688F5-83D3-4ABE-8A3A-DDCBCDDAE821";
layerId = "052E4809-237C-480A-9A19-7A5601205C34";
name = "Jun 26, 23, 19:09";
shapes = (
{
closed = 1;
nodes = (
(40,532,l),
(159,640,o),
(259,437,o),
(253,272,cs),
(250,204,o),
(239,114,o),
(214,31,c),
(240,-5,o),
(326,-25,o),
(382,33,c),
(411,145,o),
(415,204,o),
(409,327,c),
(459,485,o),
(598,572,o),
(695,518,c),
(772,756,o),
(446,878,o),
(373,377,c),
(391,407,l),
(363,556,o),
(290,720,o),
(172,720,cs),
(91,720,o),
(36,651,o),
(30,536,c)
);
}
);
width = 706;
},
{
associatedMasterId = "935688F5-83D3-4ABE-8A3A-DDCBCDDAE821";
layerId = "C7B74DC5-5D94-4549-BDDC-5089DB91BEE7";
name = "Jun 15, 23, 13:23";
shapes = (
{
closed = 1;
nodes = (
(326,358,l),
(253,367,l),
(249,305,o),
(249,165,o),
(209,34,c),
(235,-2,o),
(329,-22,o),
(385,36,c),
(407,152,o),
(419,207,o),
(411,339,c)
);
},
{
closed = 1;
nodes = (
(403,283,l),
(403,440,o),
(326,720,o),
(172,720,cs),
(91,720,o),
(36,651,o),
(30,536,c),
(40,532,l),
(162,644,o),
(258,424,o),
(247,256,c)
);
},
{
closed = 1;
nodes = (
(409,317,l),
(456,481,o),
(596,573,o),
(695,518,c),
(775,765,o),
(421,887,o),
(365,317,c)
);
}
);
width = 706;
},
{
associatedMasterId = "935688F5-83D3-4ABE-8A3A-DDCBCDDAE821";
layerId = "FFDE0856-6DBC-4871-B878-37913663BF34";
name = "Jun 1, 23, 15:48";
shapes = (
{
closed = 1;
nodes = (
(296,358,l),
(220,367,l),
(216,305,o),
(216,165,o),
(174,34,c),
(201,-2,o),
(299,-22,o),
(358,36,c),
(381,152,o),
(393,207,o),
(385,339,c)
);
},
{
closed = 1;
nodes = (
(377,283,l),
(377,440,o),
(296,718,o),
(142,718,cs),
(61,718,o),
(6,649,o),
(0,534,c),
(10,530,l),
(129,639,o),
(225,428,o),
(214,256,c)
);
},
{
closed = 1;
nodes = (
(383,317,l),
(428,475,o),
(559,585,o),
(655,532,c),
(621,821,o),
(358,800,o),
(337,317,c)
);
}
);
width = 719;
},
{
anchors = (
{
name = bottom;
pos = (317,0);
},
{
name = top;
pos = (379,710);
},
{
name = topleft;
pos = (60,710);
}
);
associatedMasterId = "935688F5-83D3-4ABE-8A3A-DDCBCDDAE821";
layerId = "16C9F4BB-E01A-4589-AA75-917230D14F94";
name = "Aug 29, 23, 12:45";
shapes = (
{
closed = 1;
nodes = (
(250,-5,o),
(342,-25,o),
(398,33,c),
(427,145,o),
(429,204,o),
(423,327,c),
(473,485,o),
(608,572,o),
(705,518,c),
(782,756,o),
(456,878,o),
(383,377,c),
(401,407,l),
(373,556,o),
(300,720,o),
(182,720,cs),
(101,720,o),
(46,651,o),
(40,536,c),
(50,532,l),
(193,628,o),
(257,459,o),
(257,268,cs),
(257,187,o),
(245,102,o),
(224,31,c)
);
}
);
width = 678;
},
{
layerId = "935688F5-83D3-4ABE-8A3A-DDCBCDDAE821";
shapes = (
{
closed = 1;
nodes = (
(325,-4,o),
(358,7,o),
(383,33,c),
(404,114,o),
(411,167,o),
(411,237,cs),
(411,263,o),
(410,292,o),
(408,327,c),
(448,453,o),
(542,534,o),
(628,534,cs),
(649,534,o),
(670,529,o),
(690,518,c),
(698,543,o),
(702,566,o),
(702,589,cs),
(702,669,o),
(651,725,o),
(588,725,cs),
(514,725,o),
(423,646,o),
(379,440,c),
(347,579,o),
(276,720,o),
(164,720,cs),
(86,720,o),
(31,651,o),
(25,536,c),
(35,532,l),
(64,551,o),
(89,560,o),
(112,560,cs),
(201,560,o),
(242,421,o),
(242,269,cs),
(242,187,o),
(230,102,o),
(209,31,c),
(223,11,o),
(257,-4,o),
(294,-4,cs)
);
}
);
width = 683;
}
);
unicode = 89;
}
{
glyphname = Z;
layers = (
{
anchors = (
{
name = bottom;
pos = (300,0);
},
{
name = center;
pos = (331,355);
},
{
name = top;
pos = (362,710);
}
);
associatedMasterId = "935688F5-83D3-4ABE-8A3A-DDCBCDDAE821";
layerId = "B72ACBD2-1738-439D-B9AD-D96EAACEF3FC";
name = "Oct 1, 23, 18:44";
shapes = (
{
closed = 1;
nodes = (
(571,-25,o),
(627,71,o),
(627,157,cs),
(627,228,o),
(589,293,o),
(520,293,cs),
(498,293,o),
(456,286,o),
(432,271,c),
(461,248,o),
(474,219,o),
(474,192,cs),
(474,147,o),
(438,107,o),
(387,107,cs),
(357,107,o),
(323,121,o),
(288,154,c),
(409,319,o),
(446,469,o),
(612,548,cs),
(625,554,o),
(631,556,o),
(638,556,c),
(638,556,o),
(640,556,o),
(642,555,c),
(643,565,o),
(644,575,o),
(644,586,cs),
(644,647,o),
(615,709,o),
(539,726,c),
(483,695,o),
(438,651,o),
(398,600,c),
(326,688,o),
(258,721,o),
(202,721,cs),
(112,721,o),
(52,637,o),
(52,560,cs),
(52,494,o),
(95,433,o),
(201,433,c),
(185,457,o),
(178,479,o),
(178,498,cs),
(178,540,o),
(211,568,o),
(253,568,cs),
(281,568,o),
(314,556,o),
(345,528,c),
(256,398,o),
(172,242,o),
(25,134,cs),
(4,118,o),
(0,117,o),
(-7,117,c),
(27,25,o),
(69,-6,o),
(114,-6,c),
(163,28,o),
(203,62,o),
(237,98,c),
(301,7,o),
(371,-25,o),
(444,-25,cs)
);
}
);
width = 656;
},
{
associatedMasterId = "935688F5-83D3-4ABE-8A3A-DDCBCDDAE821";
layerId = "AB2191E1-DB2B-425E-A024-28EBA6EB1E3D";
name = "Jun 13, 23, 14:48";
shapes = (
{
closed = 1;
nodes = (
(403,190,o),
(359,436,o),
(602,552,cs),
(609,555,o),
(618,557,o),
(624,555,c),
(634,627,o),
(609,706,o),
(521,726,c),
(312,609,o),
(277,317,o),
(11,122,cs),
(6,118,o),
(2,117,o),
(-5,117,c),
(29,25,o),
(71,-6,o),
(116,-6,c)
);
},
{
closed = 1;
nodes = (
(617,-25,o),
(686,277,o),
(449,277,c),
(466,209,o),
(453,104,o),
(383,104,cs),
(340,104,o),
(325,177,o),
(263,177,cs),
(235,177,o),
(202,153,o),
(156,102,c),
(145,24,l),
(180,63,o),
(208,77,o),
(229,77,cs),
(288,77,o),
(329,-25,o),
(419,-25,cs)
);
},
{
closed = 1;
nodes = (
(156,401,o),
(179,408,o),
(203,423,c),
(161,487,o),
(167,573,o),
(239,573,cs),
(275,573,o),
(333,545,o),
(375,485,c),
(430,545,l),
(357,675,o),
(273,719,o),
(208,719,cs),
(6,719,o),
(-17,401,o),
(137,401,cs)
);
}
);
width = 631;
},
{
anchors = (
{
name = bottom;
pos = (300,0);
},
{
name = center;
pos = (331,355);
},
{
name = top;
pos = (362,710);
}
);
associatedMasterId = "935688F5-83D3-4ABE-8A3A-DDCBCDDAE821";
layerId = "1CCAA606-F3AB-400E-876B-83F22BC3CAD6";
name = "Aug 30, 23, 22:23";
shapes = (
{
closed = 1;
nodes = (
(547,-25,o),
(611,87,o),
(611,178,cs),
(611,240,o),
(581,293,o),
(520,293,cs),
(498,293,o),
(456,286,o),
(432,271,c),
(449,245,o),
(456,220,o),
(456,199,cs),
(456,157,o),
(426,129,o),
(384,129,cs),
(357,129,o),
(326,141,o),
(296,168,c),
(409,319,o),
(446,469,o),
(612,548,cs),
(625,554,o),
(631,556,o),
(638,556,c),
(638,556,o),
(640,556,o),
(642,555,c),
(643,565,o),
(644,575,o),
(644,586,cs),
(644,647,o),
(615,709,o),
(539,726,c),
(483,695,o),
(438,651,o),
(398,600,c),
(326,688,o),
(258,721,o),
(202,721,cs),
(112,721,o),
(52,637,o),
(52,560,cs),
(52,494,o),
(95,433,o),
(201,433,c),
(185,457,o),
(178,479,o),
(178,498,cs),
(178,540,o),
(211,568,o),
(253,568,cs),
(281,568,o),
(314,556,o),
(345,528,c),
(256,398,o),
(172,242,o),
(25,134,cs),
(4,118,o),
(0,117,o),
(-7,117,c),
(27,25,o),
(69,-6,o),
(114,-6,c),
(163,28,o),
(203,62,o),
(237,98,c),
(301,7,o),
(371,-25,o),
(432,-25,cs)
);
}
);
width = 638;
},
{
anchors = (
{
name = bottom;
pos = (305,0);
},
{
name = center;
pos = (336,355);
},
{
name = top;
pos = (367,710);
}
);
associatedMasterId = "935688F5-83D3-4ABE-8A3A-DDCBCDDAE821";
layerId = "16C9F4BB-E01A-4589-AA75-917230D14F94";
name = "Aug 29, 23, 12:45";
shapes = (
{
closed = 1;
nodes = (
(406,190,o),
(382,436,o),
(625,552,cs),
(632,555,o),
(641,557,o),
(647,555,c),
(657,627,o),
(632,706,o),
(544,726,c),
(335,609,o),
(280,317,o),
(14,122,cs),
(9,118,o),
(5,117,o),
(-2,117,c),
(32,25,o),
(74,-6,o),
(119,-6,c)
);
},
{
closed = 1;
nodes = (
(634,-25,o),
(677,293,o),
(523,293,cs),
(503,293,o),
(461,286,o),
(437,271,c),
(521,143,o),
(371,60,o),
(264,209,c),
(210,149,l),
(282,19,o),
(367,-25,o),
(432,-25,cs)
);
},
{
closed = 1;
nodes = (
(125,556,o),
(281,637,o),
(388,485,c),
(443,545,l),
(141,999,o),
(-117,433,o),
(206,433,c)
);
}
);
width = 654;
},
{
layerId = "935688F5-83D3-4ABE-8A3A-DDCBCDDAE821";
shapes = (
{
closed = 1;
nodes = (
(583,-25,o),
(639,71,o),
(639,157,cs),
(639,228,o),
(601,293,o),
(532,293,cs),
(510,293,o),
(468,286,o),
(444,271,c),
(473,248,o),
(486,219,o),
(486,192,cs),
(486,147,o),
(450,107,o),
(399,107,cs),
(369,107,o),
(335,121,o),
(300,154,c),
(337,204,o),
(366,253,o),
(427,355,cs),
(456,404,o),
(509,493,o),
(624,548,cs),
(637,554,o),
(643,556,o),
(650,556,c),
(650,556,o),
(652,556,o),
(654,555,c),
(655,565,o),
(656,575,o),
(656,586,cs),
(656,647,o),
(627,709,o),
(551,726,c),
(495,695,o),
(450,651,o),
(410,600,c),
(338,688,o),
(270,721,o),
(214,721,cs),
(124,721,o),
(64,637,o),
(64,560,cs),
(64,494,o),
(107,433,o),
(213,433,c),
(197,457,o),
(190,479,o),
(190,498,cs),
(190,540,o),
(223,568,o),
(265,568,cs),
(293,568,o),
(326,556,o),
(357,528,c),
(340,503,o),
(324,478,o),
(269,395,cs),
(234,341,o),
(156,222,o),
(37,134,cs),
(16,118,o),
(12,117,o),
(5,117,c),
(39,25,o),
(81,-6,o),
(126,-6,c),
(175,28,o),
(215,62,o),
(249,98,c),
(313,7,o),
(383,-25,o),
(456,-25,cs)
);
}
);
width = 676;
}
);
unicode = 90;
}
{
glyphname = underscore;
layers = (
{
associatedMasterId = "935688F5-83D3-4ABE-8A3A-DDCBCDDAE821";
layerId = "A9E9AC5F-E30B-4CDD-AE13-AE6186D6A988";
name = "Sep 30, 23, 19:08";
shapes = (
{
closed = 1;
nodes = (
(599,-137,l),
(626,-100,o),
(634,-64,o),
(621,-27,c),
(5,-27,l),
(-17,-56,o),
(-25,-92,o),
(-17,-137,c)
);
}
);
width = 607;
},
{
layerId = "935688F5-83D3-4ABE-8A3A-DDCBCDDAE821";
shapes = (
{
closed = 1;
nodes = (
(599,-137,l),
(618,-117,o),
(627,-98,o),
(627,-78,cs),
(627,-69,o),
(625,-60,o),
(621,-51,c),
(-28,-51,l),
(-44,-68,o),
(-53,-88,o),
(-53,-112,cs),
(-53,-120,o),
(-52,-128,o),
(-50,-137,c)
);
}
);
width = 607;
}
);
unicode = 95;
}
{
glyphname = a;
layers = (
{
anchors = (
{
name = bottom;
pos = (260,0);
},
{
name = ogonek;
pos = (487,10);
},
{
name = top;
pos = (324,500);
}
);
associatedMasterId = "935688F5-83D3-4ABE-8A3A-DDCBCDDAE821";
layerId = "C49C243C-897D-40B6-ABB4-BC6E9D77B842";
name = "Oct 3, 23, 09:54";
shapes = (
{
closed = 1;
nodes = (
(459,-5,o),
(537,49,o),
(537,118,c),
(529,122,l),
(520,107,o),
(509,98,o),
(498,98,cs),
(485,98,o),
(474,112,o),
(474,156,cs),
(474,237,o),
(510,378,o),
(542,451,c),
(540,457,ls),
(528,492,o),
(490,505,o),
(453,505,cs),
(410,505,o),
(368,488,o),
(367,452,c),
(367,445,o),
(365,424,o),
(361,402,c),
(345,472,o),
(298,504,o),
(245,504,cs),
(148,504,o),
(30,396,o),
(30,209,cs),
(30,72,o),
(94,-4,o),
(165,-4,cs),
(215,-4,o),
(268,33,o),
(308,113,c),
(307,106,o),
(307,99,o),
(307,93,cs),
(307,23,o),
(347,-5,o),
(394,-5,cs)
);
},
{
closed = 1;
nodes = (
(205,122,o),
(187,157,o),
(187,231,cs),
(187,311,o),
(232,404,o),
(282,404,cs),
(305,404,o),
(329,385,o),
(350,336,c),
(348,325,o),
(345,314,o),
(343,302,c),
(312,186,o),
(265,122,o),
(231,122,cs)
);
}
);
width = 564;
},
{
anchors = (
{
name = bottom;
pos = (260,0);
},
{
name = ogonek;
pos = (487,10);
},
{
name = top;
pos = (324,500);
}
);
associatedMasterId = "935688F5-83D3-4ABE-8A3A-DDCBCDDAE821";
layerId = "36216702-BF21-46FA-A8C1-D71014E46971";
name = "Oct 1, 23, 18:25";
shapes = (
{
closed = 1;
nodes = (
(459,-5,o),
(537,49,o),
(537,118,c),
(529,122,l),
(520,107,o),
(509,98,o),
(498,98,cs),
(485,98,o),
(474,112,o),
(474,142,cs),
(474,237,o),
(510,378,o),
(542,451,c),
(540,457,ls),
(528,492,o),
(490,505,o),
(453,505,cs),
(410,505,o),
(368,488,o),
(368,466,c),
(367,445,o),
(365,424,o),
(361,402,c),
(345,472,o),
(298,504,o),
(245,504,cs),
(148,504,o),
(30,396,o),
(30,205,cs),
(30,72,o),
(94,-4,o),
(166,-4,cs),
(215,-4,o),
(268,33,o),
(308,113,c),
(307,106,o),
(307,99,o),
(307,93,cs),
(307,23,o),
(347,-5,o),
(394,-5,cs)
);
},
{
closed = 1;
nodes = (
(205,122,o),
(187,157,o),
(187,231,cs),
(187,311,o),
(232,404,o),
(282,404,cs),
(305,404,o),
(329,385,o),
(350,336,c),
(348,325,o),
(345,314,o),
(343,302,c),
(312,186,o),
(265,122,o),
(231,122,cs)
);
}
);
width = 564;
},
{
associatedMasterId = "935688F5-83D3-4ABE-8A3A-DDCBCDDAE821";
layerId = "1BBF2FF8-F91C-48D4-9081-1434AE09860B";
name = "May 24, 23, 13:36";
shapes = (
{
closed = 1;
nodes = (
(403,326,l),
(383,391,o),
(348,421,o),
(313,421,cs),
(243,421,o),
(205,310,o),
(205,224,cs),
(205,171,o),
(220,128,o),
(251,128,cs),
(284,128,o),
(334,206,o),
(371,342,c),
(375,242,l),
(341,91,o),
(261,0,o),
(183,0,cs),
(85,0,o),
(40,86,o),
(40,187,cs),
(40,331,o),
(132,505,o),
(297,505,cs),
(364,505,o),
(424,469,o),
(447,395,c)
);
},
{
closed = 1;
nodes = (
(367,-1,o),
(327,27,o),
(327,97,cs),
(327,190,o),
(381,333,o),
(388,462,c),
(388,503,o),
(535,528,o),
(560,453,c),
(562,447,l),
(530,374,o),
(494,241,o),
(494,146,cs),
(494,93,o),
(529,91,o),
(549,126,c),
(557,122,l),
(557,53,o),
(479,-1,o),
(414,-1,cs)
);
}
);
width = 584;
},
{
anchors = (
{
name = bottom;
pos = (260,0);
},
{
name = ogonek;
pos = (487,10);
},
{
name = top;
pos = (304,500);
}
);
associatedMasterId = "935688F5-83D3-4ABE-8A3A-DDCBCDDAE821";
layerId = "EDB30944-A915-4995-981C-6058E6B2EA20";
name = "Aug 29, 23, 12:41";
shapes = (
{
closed = 1;
nodes = (
(94,-4,o),
(30,72,o),
(30,205,cs),
(30,396,o),
(148,504,o),
(245,504,cs),
(310,504,o),
(365,456,o),
(368,350,c),
(352,331,l),
(284,495,o),
(187,348,o),
(187,231,cs),
(187,49,o),
(299,104,o),
(350,332,c),
(360,300,l),
(332,89,o),
(244,-4,o),
(166,-4,cs)
);
},
{
closed = 1;
nodes = (
(347,-5,o),
(307,23,o),
(307,93,cs),
(307,186,o),
(361,337,o),
(368,466,c),
(368,507,o),
(515,532,o),
(540,457,c),
(542,451,l),
(510,378,o),
(474,237,o),
(474,142,cs),
(474,89,o),
(509,87,o),
(529,122,c),
(537,118,l),
(537,49,o),
(459,-5,o),
(394,-5,cs)
);
}
);
width = 564;
},
{
anchors = (
{
name = bottom;
pos = (260,0);
},
{
name = ogonek;
pos = (487,10);
},
{
name = top;
pos = (304,500);
}
);
associatedMasterId = "935688F5-83D3-4ABE-8A3A-DDCBCDDAE821";
layerId = "B460D0DA-A8FA-4BE2-BA6E-ECCA1BF1457C";
name = "Aug 29, 23, 12:38";
shapes = (
{
closed = 1;
nodes = (
(244,-4,o),
(332,89,o),
(360,300,c),
(350,332,l),
(299,104,o),
(187,49,o),
(187,231,cs),
(187,348,o),
(284,495,o),
(352,331,c),
(368,350,l),
(365,456,o),
(310,504,o),
(245,504,cs),
(148,504,o),
(30,396,o),
(30,205,cs),
(30,72,o),
(94,-4,o),
(166,-4,cs)
);
},
{
closed = 1;
nodes = (
(459,-5,o),
(537,49,o),
(537,118,c),
(529,122,l),
(509,87,o),
(474,89,o),
(474,142,cs),
(474,237,o),
(510,378,o),
(542,451,c),
(540,457,l),
(515,532,o),
(368,507,o),
(368,466,c),
(361,337,o),
(307,186,o),
(307,93,cs),
(307,23,o),
(347,-5,o),
(394,-5,cs)
);
}
);
width = 564;
},
{
background = {
shapes = (
{
closed = 1;
nodes = (
(362,160,l),
(308,-30,o),
(11,-72,o),
(11,150,cs),
(11,382,o),
(307,353,o),
(361,210,c)
);
},
{
closed = 1;
nodes = (
(339,170,l),
(293,266,o),
(172,240,o),
(172,160,cs),
(172,72,o),
(308,113,o),
(336,168,c)
);
},
{
closed = 1;
nodes = (
(189,288,l),
(41,470,o),
(611,692,o),
(516,245,cs),
(500,169,o),
(489,103,o),
(526,103,c),
(541,103,o),
(552,111,o),
(559,126,c),
(574,98,l),
(554,36,o),
(489,0,o),
(431,0,cs),
(376,0,o),
(328,31,o),
(328,108,cs),
(328,150,o),
(337,200,o),
(350,243,cs),
(419,474,o),
(156,458,o),
(254,288,c)
);
}
);
};
layerId = "935688F5-83D3-4ABE-8A3A-DDCBCDDAE821";
shapes = (
{
closed = 1;
nodes = (
(459,-5,o),
(537,49,o),
(537,118,c),
(529,122,l),
(520,107,o),
(509,98,o),
(498,98,cs),
(485,98,o),
(474,112,o),
(474,156,cs),
(474,237,o),
(510,378,o),
(542,451,c),
(540,457,ls),
(528,492,o),
(490,505,o),
(453,505,cs),
(410,505,o),
(368,488,o),
(367,452,c),
(367,445,o),
(365,424,o),
(361,402,c),
(345,472,o),
(298,504,o),
(245,504,cs),
(148,504,o),
(30,396,o),
(30,209,cs),
(30,72,o),
(94,-4,o),
(165,-4,cs),
(215,-4,o),
(268,33,o),
(308,113,c),
(307,106,o),
(307,99,o),
(307,93,cs),
(307,23,o),
(347,-5,o),
(394,-5,cs)
);
},
{
closed = 1;
nodes = (
(205,122,o),
(187,157,o),
(187,231,cs),
(187,311,o),
(232,404,o),
(282,404,cs),
(305,404,o),
(329,385,o),
(350,336,c),
(348,325,o),
(345,314,o),
(343,302,c),
(312,186,o),
(265,122,o),
(231,122,cs)
);
}
);
width = 564;
}
);
unicode = 97;
}
{
glyphname = b;
layers = (
{
associatedMasterId = "935688F5-83D3-4ABE-8A3A-DDCBCDDAE821";
layerId = "4F785257-CCC8-46F9-AF60-F8BD0651A2D0";
name = "May 24, 23, 19:56";
shapes = (
{
closed = 1;
nodes = (
(215,205,l),
(217,137,o),
(249,101,o),
(285,101,cs),
(351,101,o),
(387,207,o),
(387,290,cs),
(387,344,o),
(372,389,o),
(340,389,cs),
(302,389,o),
(246,316,o),
(220,152,c),
(173,188,l),
(242,556,o),
(548,606,o),
(548,300,cs),
(548,161,o),
(473,0,o),
(332,0,cs),
(253,0,o),
(183,61,o),
(184,176,c)
);
},
{
closed = 1;
nodes = (
(288,528,o),
(271,414,o),
(255,331,c),
(216,139,l),
(211,139,o),
(209,133,o),
(209,125,cs),
(209,117,o),
(210,108,o),
(210,98,cs),
(210,69,o),
(203,35,o),
(143,35,cs),
(93,35,o),
(51,50,o),
(56,82,cs),
(71,186,o),
(125,447,o),
(125,558,cs),
(125,611,o),
(81,591,o),
(54,555,c),
(35,575,l),
(62,654,o),
(133,700,o),
(193,700,cs),
(244,700,o),
(288,665,o),
(288,588,c)
);
}
);
width = 573;
},
{
anchors = (
{
name = bottom;
pos = (213,0);
},
{
name = center;
pos = (265,250);
},
{
name = top;
pos = (287,700);
}
);
associatedMasterId = "935688F5-83D3-4ABE-8A3A-DDCBCDDAE821";
layerId = "EDB30944-A915-4995-981C-6058E6B2EA20";
name = "Aug 29, 23, 12:41";
shapes = (
{
closed = 1;
nodes = (
(429,-4,o),
(505,157,o),
(505,300,c),
(504,443,o),
(449,507,o),
(380,507,cs),
(287,507,o),
(170,379,o),
(130,154,c),
(177,148,l),
(203,312,o),
(259,406,o),
(296,406,cs),
(328,406,o),
(343,345,o),
(343,281,cs),
(343,194,o),
(307,97,o),
(241,97,cs),
(205,97,o),
(173,133,o),
(171,201,c),
(140,172,l),
(139,57,o),
(210,-4,o),
(289,-4,cs)
);
},
{
closed = 1;
nodes = (
(159,14,o),
(167,48,o),
(167,77,cs),
(167,104,o),
(167,135,o),
(173,135,c),
(208,317,l),
(228,398,o),
(247,527,o),
(247,600,cs),
(247,712,o),
(142,733,o),
(69,651,c),
(69,645,l),
(118,567,o),
(25,197,o),
(25,61,cs),
(25,46,o),
(49,14,o),
(99,14,cs)
);
}
);
width = 529;
},
{
anchors = (
{
name = bottom;
pos = (213,0);
},
{
name = center;
pos = (265,250);
},
{
name = top;
pos = (287,700);
}
);
associatedMasterId = "935688F5-83D3-4ABE-8A3A-DDCBCDDAE821";
layerId = "B460D0DA-A8FA-4BE2-BA6E-ECCA1BF1457C";
name = "Aug 29, 23, 12:38";
shapes = (
{
closed = 1;
nodes = (
(429,-4,o),
(505,157,o),
(505,300,c),
(504,443,o),
(449,507,o),
(380,507,cs),
(287,507,o),
(170,379,o),
(130,154,c),
(177,148,l),
(203,312,o),
(259,406,o),
(296,406,cs),
(328,406,o),
(343,345,o),
(343,281,cs),
(343,194,o),
(307,97,o),
(241,97,cs),
(205,97,o),
(173,133,o),
(171,201,c),
(140,172,l),
(139,57,o),
(210,-4,o),
(289,-4,cs)
);
},
{
closed = 1;
nodes = (
(159,14,o),
(167,48,o),
(167,77,cs),
(167,104,o),
(167,135,o),
(173,135,c),
(208,317,l),
(228,398,o),
(247,527,o),
(247,600,cs),
(247,712,o),
(142,733,o),
(69,651,c),
(69,645,l),
(118,567,o),
(25,197,o),
(25,61,cs),
(25,46,o),
(49,14,o),
(99,14,cs)
);
}
);
width = 529;
},
{
layerId = "935688F5-83D3-4ABE-8A3A-DDCBCDDAE821";
shapes = (
{
closed = 1;
nodes = (
(429,-4,o),
(505,157,o),
(504,312,c),
(504,443,o),
(449,507,o),
(381,507,cs),
(330,507,o),
(274,470,o),
(226,402,c),
(238,471,o),
(247,549,o),
(247,588,cs),
(247,666,o),
(210,701,o),
(165,701,cs),
(134,701,o),
(99,684,o),
(69,651,c),
(69,645,l),
(79,629,o),
(83,600,o),
(83,563,cs),
(83,423,o),
(25,169,o),
(25,94,cs),
(25,46,o),
(49,14,o),
(103,14,cs),
(151,14,o),
(164,39,o),
(166,65,c),
(194,20,o),
(240,-4,o),
(293,-4,cs)
);
},
{
closed = 1;
nodes = (
(214,97,o),
(190,117,o),
(178,155,c),
(205,315,o),
(260,406,o),
(297,406,cs),
(328,406,o),
(343,345,o),
(343,286,cs),
(343,194,o),
(307,97,o),
(243,97,cs)
);
}
);
width = 529;
}
);
unicode = 98;
}
{
glyphname = c;
layers = (
{
associatedMasterId = "935688F5-83D3-4ABE-8A3A-DDCBCDDAE821";
layerId = "13082CD9-7D55-4598-B20F-B5BE2F168FDC";
name = "May 24, 23, 19:45";
shapes = (
{
closed = 1;
nodes = (
(534,314,o),
(546,507,o),
(346,507,cs),
(-12,507,o),
(-87,-5,o),
(258,-5,cs),
(337,-5,o),
(423,31,o),
(488,109,c),
(465,142,l),
(446,121,o),
(386,93,o),
(330,93,cs),
(270,93,o),
(214,125,o),
(214,235,cs),
(214,357,o),
(273,424,o),
(315,424,cs),
(367,424,o),
(360,364,o),
(347,314,c)
);
}
);
width = 512;
},
{
anchors = (
{
name = bottom;
pos = (223,0);
},
{
name = top;
pos = (267,500);
}
);
associatedMasterId = "935688F5-83D3-4ABE-8A3A-DDCBCDDAE821";
layerId = "B460D0DA-A8FA-4BE2-BA6E-ECCA1BF1457C";
name = "Aug 29, 23, 12:38";
shapes = (
{
closed = 1;
nodes = (
(322,-7,o),
(465,49,o),
(465,187,c),
(455,191,l),
(432,140,o),
(375,110,o),
(321,110,cs),
(258,110,o),
(199,151,o),
(199,258,cs),
(199,365,o),
(258,424,o),
(300,424,cs),
(331,424,o),
(341,402,o),
(341,374,cs),
(341,355,o),
(337,334,o),
(332,314,c),
(427,314,o),
(477,364,o),
(477,413,cs),
(477,460,o),
(429,507,o),
(331,507,cs),
(132,507,o),
(20,347,o),
(20,206,cs),
(20,94,o),
(90,-7,o),
(223,-7,cs)
);
}
);
width = 489;
},
{
layerId = "935688F5-83D3-4ABE-8A3A-DDCBCDDAE821";
shapes = (
{
closed = 1;
nodes = (
(322,-7,o),
(465,49,o),
(465,187,c),
(455,191,l),
(432,140,o),
(375,110,o),
(321,110,cs),
(258,110,o),
(199,151,o),
(199,258,cs),
(199,365,o),
(258,424,o),
(300,424,cs),
(331,424,o),
(341,402,o),
(341,374,cs),
(341,355,o),
(337,334,o),
(332,314,c),
(427,314,o),
(477,364,o),
(477,413,cs),
(477,460,o),
(429,507,o),
(331,507,cs),
(132,507,o),
(20,347,o),
(20,206,cs),
(20,94,o),
(90,-7,o),
(223,-7,cs)
);
}
);
width = 489;
}
);
unicode = 99;
}
{
glyphname = e;
layers = (
{
anchors = (
{
name = bottom;
pos = (239,0);
},
{
name = ogonek;
pos = (383,10);
},
{
name = top;
pos = (313,500);
}
);
associatedMasterId = "935688F5-83D3-4ABE-8A3A-DDCBCDDAE821";
layerId = "2975AE8F-6A60-407B-9A87-31C6D18C2C69";
name = "Oct 1, 23, 18:26";
shapes = (
{
closed = 1;
nodes = (
(353,-7,o),
(482,47,o),
(482,185,c),
(475,190,l),
(447,147,o),
(379,109,o),
(319,109,cs),
(263,109,o),
(216,144,o),
(210,227,c),
(245,204,o),
(281,194,o),
(316,194,cs),
(415,194,o),
(501,276,o),
(501,376,cs),
(501,446,o),
(449,507,o),
(342,507,cs),
(142,507,o),
(28,347,o),
(28,206,cs),
(28,93,o),
(99,-7,o),
(256,-7,cs)
);
},
{
closed = 1;
nodes = (
(251,263,o),
(232,268,o),
(211,278,c),
(221,390,o),
(275,423,o),
(317,423,cs),
(342,423,o),
(360,399,o),
(360,369,cs),
(360,330,o),
(331,263,o),
(267,263,cs)
);
}
);
width = 521;
},
{
associatedMasterId = "935688F5-83D3-4ABE-8A3A-DDCBCDDAE821";
layerId = "694FCAF0-0388-41A6-A569-CBDD6206F60F";
name = "May 25, 23, 11:30";
shapes = (
{
closed = 1;
nodes = (
(166,223,l),
(316,237,o),
(367,312,o),
(367,366,cs),
(367,399,o),
(349,423,o),
(324,423,cs),
(278,423,o),
(217,383,o),
(217,243,cs),
(217,148,o),
(267,113,o),
(326,113,cs),
(386,113,o),
(454,151,o),
(482,194,c),
(489,189,l),
(489,51,o),
(360,-3,o),
(263,-3,cs),
(-91,-3,o),
(-10,507,o),
(349,507,cs),
(456,507,o),
(508,446,o),
(508,376,cs),
(508,283,o),
(415,175,o),
(237,175,cs),
(216,175,o),
(192,176,o),
(168,180,c)
);
}
);
width = 543;
},
{
associatedMasterId = "935688F5-83D3-4ABE-8A3A-DDCBCDDAE821";
layerId = "A6AF11D9-CD13-456A-81D1-D0542A7C7F7F";
name = "May 24, 23, 19:40";
shapes = (
{
closed = 1;
nodes = (
(166,223,l),
(316,237,o),
(367,312,o),
(367,366,cs),
(367,399,o),
(349,423,o),
(324,423,cs),
(278,423,o),
(217,376,o),
(217,235,cs),
(217,126,o),
(274,93,o),
(335,93,cs),
(397,93,o),
(464,126,o),
(483,146,c),
(506,113,l),
(441,35,o),
(349,-3,o),
(263,-3,cs),
(-91,-3,o),
(-10,507,o),
(349,507,cs),
(456,507,o),
(508,446,o),
(508,376,cs),
(508,283,o),
(415,175,o),
(237,175,cs),
(216,175,o),
(192,176,o),
(168,180,c)
);
}
);
width = 543;
},
{
anchors = (
{
name = bottom;
pos = (239,0);
},
{
name = ogonek;
pos = (383,10);
},
{
name = top;
pos = (313,500);
}
);
associatedMasterId = "935688F5-83D3-4ABE-8A3A-DDCBCDDAE821";
layerId = "B460D0DA-A8FA-4BE2-BA6E-ECCA1BF1457C";
name = "Aug 29, 23, 12:38";
shapes = (
{
closed = 1;
nodes = (
(353,-7,o),
(482,47,o),
(482,185,c),
(475,190,l),
(447,147,o),
(379,109,o),
(319,109,cs),
(260,109,o),
(210,148,o),
(210,243,cs),
(210,383,o),
(271,423,o),
(317,423,cs),
(342,423,o),
(360,399,o),
(360,369,cs),
(360,330,o),
(331,263,o),
(268,263,cs),
(239,263,o),
(203,277,o),
(159,313,c),
(161,270,l),
(209,217,o),
(264,194,o),
(316,194,cs),
(415,194,o),
(501,276,o),
(501,376,cs),
(501,446,o),
(449,507,o),
(342,507,cs),
(142,507,o),
(28,347,o),
(28,206,cs),
(28,93,o),
(99,-7,o),
(256,-7,cs)
);
}
);
width = 521;
},
{
background = {
shapes = (
{
closed = 1;
nodes = (
(133,507,o),
(29,349,o),
(29,209,cs),
(29,64,o),
(127,-5,o),
(238,-5,cs),
(321,-5,o),
(411,33,o),
(471,106,c),
(448,139,l),
(445,130,o),
(377,88,o),
(314,88,cs),
(259,89,o),
(207,121,o),
(207,235,cs),
(207,348,o),
(255,415,o),
(292,415,cs),
(359,415,o),
(375,166,o),
(124,279,c),
(124,230,l),
(462,24,o),
(619,507,o),
(319,507,cs)
);
}
);
};
layerId = "935688F5-83D3-4ABE-8A3A-DDCBCDDAE821";
shapes = (
{
closed = 1;
nodes = (
(353,-7,o),
(482,47,o),
(482,185,c),
(475,190,l),
(447,147,o),
(379,109,o),
(320,109,cs),
(263,109,o),
(216,144,o),
(210,227,c),
(245,204,o),
(281,194,o),
(316,194,cs),
(415,194,o),
(501,276,o),
(501,372,cs),
(501,446,o),
(449,507,o),
(332,507,cs),
(142,507,o),
(28,347,o),
(28,205,cs),
(28,93,o),
(99,-7,o),
(245,-7,cs)
);
},
{
closed = 1;
nodes = (
(251,263,o),
(232,268,o),
(211,278,c),
(221,390,o),
(275,423,o),
(311,423,cs),
(342,423,o),
(360,399,o),
(360,369,cs),
(360,330,o),
(331,263,o),
(268,263,cs)
);
}
);
width = 521;
}
);
unicode = 101;
}
{
glyphname = f;
layers = (
{
anchors = (
{
name = bottom;
pos = (177,0);
},
{
name = top;
pos = (327,729);
}
);
associatedMasterId = "935688F5-83D3-4ABE-8A3A-DDCBCDDAE821";
layerId = "2975AE8F-6A60-407B-9A87-31C6D18C2C69";
name = "Oct 1, 23, 18:26";
shapes = (
{
closed = 1;
nodes = (
(165,-203,o),
(195,-195,o),
(215,-181,c),
(264,93,o),
(273,243,o),
(273,341,cs),
(273,353,o),
(273,364,o),
(273,375,c),
(308,373,o),
(339,371,o),
(363,368,c),
(372,389,o),
(378,409,o),
(378,430,cs),
(378,440,o),
(376,450,o),
(374,460,c),
(343,463,o),
(307,466,o),
(269,465,c),
(269,484,ls),
(269,586,o),
(297,656,o),
(319,656,cs),
(335,656,o),
(342,641,o),
(342,619,cs),
(342,589,o),
(330,547,o),
(309,509,c),
(420,509,o),
(476,572,o),
(476,632,cs),
(476,687,o),
(430,739,o),
(338,739,cs),
(233,739,o),
(127,671,o),
(127,518,cs),
(127,442,l),
(85,426,o),
(43,401,o),
(5,362,c),
(7,355,l),
(38,366,o),
(80,371,o),
(126,374,c),
(123,247,o),
(109,111,o),
(44,-161,c),
(57,-189,o),
(96,-203,o),
(136,-203,cs)
);
}
);
width = 398;
},
{
associatedMasterId = "935688F5-83D3-4ABE-8A3A-DDCBCDDAE821";
layerId = "37FA8DA2-07CD-43CB-B700-69E3DC369AE3";
name = "May 24, 23, 19:31";
shapes = (
{
closed = 1;
nodes = (
(40,437,o),
(40,455,o),
(45,482,c),
(138,498,o),
(223,503,o),
(337,500,c),
(346,473,o),
(346,445,o),
(335,418,c),
(221,426,o),
(136,416,o),
(44,410,c)
);
},
{
closed = 1;
nodes = (
(505,733,o),
(522,523,o),
(306,523,c),
(336,586,o),
(336,637,o),
(316,637,cs),
(230,637,o),
(258,172,o),
(131,-181,c),
(81,-216,o),
(-17,-210,o),
(-40,-161,c),
(133,379,o),
(34,733,o),
(341,733,cs)
);
}
);
width = 364;
},
{
associatedMasterId = "935688F5-83D3-4ABE-8A3A-DDCBCDDAE821";
layerId = "0D40A40A-BD44-4A7D-A719-CA435B1A7108";
name = "Jun 9, 23, 18:49";
shapes = (
{
closed = 1;
nodes = (
(129,-203,o),
(159,-196,o),
(180,-181,c),
(260,264,o),
(274,397,o),
(274,557,cs),
(274,602,o),
(291,650,o),
(313,650,cs),
(342,650,o),
(333,588,o),
(305,529,c),
(471,529,o),
(518,733,o),
(336,733,cs),
(55,733,o),
(133,311,o),
(10,-161,c),
(23,-189,o),
(66,-203,o),
(106,-203,cs)
);
},
{
closed = 1;
nodes = (
(12,395,l),
(100,425,o),
(284,417,o),
(368,408,c),
(376,427,o),
(383,452,o),
(383,474,cs),
(383,483,o),
(381,492,o),
(379,500,c),
(277,509,o),
(127,542,o),
(10,402,c)
);
}
);
width = 393;
},
{
associatedMasterId = "935688F5-83D3-4ABE-8A3A-DDCBCDDAE821";
layerId = "8FA4897D-98E1-436D-AE0C-AC8D8E346673";
name = "Jun 7, 23, 11:18";
shapes = (
{
closed = 1;
nodes = (
(135,-203,o),
(165,-196,o),
(186,-181,c),
(266,264,o),
(280,397,o),
(280,557,cs),
(280,602,o),
(291,650,o),
(313,650,cs),
(342,650,o),
(333,588,o),
(305,529,c),
(471,529,o),
(518,733,o),
(336,733,cs),
(55,733,o),
(133,311,o),
(10,-161,c),
(23,-189,o),
(66,-203,o),
(106,-203,cs)
);
},
{
closed = 1;
nodes = (
(12,395,l),
(100,425,o),
(284,417,o),
(368,408,c),
(376,427,o),
(383,452,o),
(383,474,cs),
(383,483,o),
(381,492,o),
(379,500,c),
(277,509,o),
(127,542,o),
(10,402,c)
);
}
);
width = 393;
},
{
associatedMasterId = "935688F5-83D3-4ABE-8A3A-DDCBCDDAE821";
layerId = "9D66FA9B-8881-4F97-ABA8-F54412C01FD4";
name = "Jun 6, 23, 10:06";
shapes = (
{
closed = 1;
nodes = (
(160,-13,o),
(190,-6,o),
(211,9,c),
(243,107,o),
(250,228,o),
(250,330,cs),
(250,416,o),
(245,496,o),
(245,557,cs),
(245,602,o),
(256,650,o),
(278,650,cs),
(307,650,o),
(298,588,o),
(270,529,c),
(436,529,o),
(483,733,o),
(301,733,cs),
(105,733,o),
(98,577,o),
(89,378,cs),
(84,268,o),
(78,145,o),
(40,29,c),
(53,1,o),
(91,-13,o),
(131,-13,cs)
);
},
{
closed = 1;
nodes = (
(32,404,l),
(77,413,o),
(112,419,o),
(166,419,cs),
(205,419,o),
(264,415,o),
(333,408,c),
(341,427,o),
(348,452,o),
(348,474,cs),
(348,483,o),
(346,492,o),
(344,500,c),
(307,503,o),
(265,505,o),
(237,505,cs),
(141,505,o),
(90,483,o),
(30,411,c)
);
}
);
width = 368;
},
{
associatedMasterId = "935688F5-83D3-4ABE-8A3A-DDCBCDDAE821";
layerId = "7C3FF14C-8EF5-409B-8DEB-DF4AD3644EE8";
name = "Jun 6, 23, 09:55";
shapes = (
{
closed = 1;
nodes = (
(459,732,o),
(470,525,o),
(270,525,c),
(299,587,o),
(300,649,o),
(278,649,cs),
(207,649,o),
(279,245,o),
(181,-178,c),
(131,-213,o),
(33,-207,o),
(10,-158,c),
(128,319,o),
(61,732,o),
(305,732,cs)
);
},
{
closed = 1;
nodes = (
(30,411,l),
(108,504,o),
(170,513,o),
(334,500,c),
(343,473,o),
(334,435,o),
(323,408,c),
(159,426,o),
(109,419,o),
(32,404,c)
);
}
);
width = 339;
},
{
associatedMasterId = "935688F5-83D3-4ABE-8A3A-DDCBCDDAE821";
layerId = "4A038F61-4751-4671-9298-E466675D3640";
name = "Jul 12, 23, 15:49";
shapes = (
{
closed = 1;
nodes = (
(129,-203,o),
(159,-196,o),
(180,-181,c),
(260,264,o),
(274,381,o),
(274,484,cs),
(274,586,o),
(302,645,o),
(324,645,cs),
(361,645,o),
(350,575,o),
(314,509,c),
(527,509,o),
(536,739,o),
(354,739,cs),
(73,739,o),
(133,311,o),
(10,-161,c),
(23,-189,o),
(66,-203,o),
(106,-203,cs)
);
},
{
closed = 1;
nodes = (
(12,355,l),
(100,385,o),
(284,377,o),
(368,368,c),
(376,387,o),
(383,412,o),
(383,434,cs),
(383,443,o),
(381,452,o),
(379,460,c),
(277,469,o),
(127,482,o),
(10,362,c)
);
}
);
width = 393;
},
{
anchors = (
{
name = bottom;
pos = (177,0);
},
{
name = top;
pos = (247,800);
}
);
associatedMasterId = "935688F5-83D3-4ABE-8A3A-DDCBCDDAE821";
layerId = "B460D0DA-A8FA-4BE2-BA6E-ECCA1BF1457C";
name = "Aug 29, 23, 12:38";
shapes = (
{
closed = 1;
nodes = (
(295,264,o),
(269,381,o),
(269,484,cs),
(269,586,o),
(297,656,o),
(319,656,cs),
(356,656,o),
(345,575,o),
(309,509,c),
(522,509,o),
(531,739,o),
(338,739,cs),
(233,739,o),
(127,671,o),
(127,518,cs),
(127,329,o),
(133,212,o),
(44,-161,c),
(67,-210,o),
(168,-215,o),
(215,-181,c)
);
},
{
closed = 1;
nodes = (
(7,355,l),
(95,385,o),
(279,377,o),
(363,368,c),
(376,398,o),
(382,427,o),
(374,460,c),
(272,469,o),
(122,482,o),
(5,362,c)
);
}
);
width = 398;
},
{
layerId = "935688F5-83D3-4ABE-8A3A-DDCBCDDAE821";
shapes = (
{
closed = 1;
nodes = (
(165,-203,o),
(195,-195,o),
(215,-181,c),
(248,4,o),
(273,187,o),
(273,375,c),
(308,373,o),
(339,371,o),
(363,368,c),
(372,389,o),
(378,409,o),
(378,429,cs),
(378,440,o),
(376,450,o),
(374,460,c),
(343,463,o),
(307,466,o),
(269,465,c),
(269,484,ls),
(269,586,o),
(297,656,o),
(323,656,cs),
(335,656,o),
(342,641,o),
(342,618,cs),
(342,589,o),
(330,547,o),
(309,509,c),
(420,509,o),
(476,572,o),
(476,632,cs),
(476,687,o),
(430,739,o),
(338,739,cs),
(233,739,o),
(127,671,o),
(127,518,cs),
(127,442,l),
(85,426,o),
(43,401,o),
(5,362,c),
(7,355,l),
(38,366,o),
(80,371,o),
(126,374,c),
(123,247,o),
(109,111,o),
(44,-161,c),
(57,-189,o),
(96,-203,o),
(135,-203,cs)
);
}
);
width = 398;
}
);
unicode = 102;
}
{
glyphname = g;
layers = (
{
associatedMasterId = "935688F5-83D3-4ABE-8A3A-DDCBCDDAE821";
layerId = "788F9452-6AFD-477D-BFA8-3BD8EB7203EE";
name = "May 26, 23, 14:40";
shapes = (
{
closed = 1;
nodes = (
(514,447,l),
(502,436,o),
(495,377,o),
(486,299,cs),
(464,108,o),
(428,-200,o),
(266,-200,cs),
(80,-200,o),
(71,-1,o),
(380,303,c),
(399,269,l),
(181,-6,o),
(186,-85,o),
(222,-85,cs),
(270,-85,o),
(307,13,o),
(324,186,cs),
(335,302,o),
(341,414,o),
(341,462,cs),
(341,503,o),
(487,528,o),
(512,453,c)
);
},
{
closed = 1;
nodes = (
(339,332,l),
(268,504,o),
(186,361,o),
(186,256,cs),
(186,91,o),
(290,138,o),
(337,346,c),
(347,316,l),
(321,124,o),
(239,41,o),
(167,41,cs),
(89,41,o),
(30,112,o),
(30,232,cs),
(30,394,o),
(138,507,o),
(232,507,cs),
(296,507,o),
(353,455,o),
(365,330,c)
);
}
);
width = 535;
},
{
associatedMasterId = "935688F5-83D3-4ABE-8A3A-DDCBCDDAE821";
layerId = "437E5566-6F4C-4A91-BE2A-067E4E51762A";
name = "May 24, 23, 14:15";
shapes = (
{
closed = 1;
nodes = (
(355,335,l),
(287,497,o),
(189,348,o),
(189,234,cs),
(189,53,o),
(303,105,o),
(355,332,c),
(368,227,l),
(335,76,o),
(247,0,o),
(169,0,cs),
(95,0,o),
(30,69,o),
(30,207,cs),
(30,348,o),
(107,507,o),
(251,507,cs),
(307,507,o),
(369,471,o),
(386,384,c)
);
},
{
closed = 1;
nodes = (
(533,447,l),
(490,407,o),
(513,-284,o),
(284,-284,cs),
(98,-284,o),
(27,-83,o),
(337,135,c),
(355,101,l),
(137,-88,o),
(202,-171,o),
(227,-171,cs),
(274,-171,o),
(325,13,o),
(342,186,cs),
(354,302,o),
(359,414,o),
(359,462,cs),
(359,503,o),
(505,528,o),
(531,453,c)
);
}
);
width = 553;
},
{
associatedMasterId = "935688F5-83D3-4ABE-8A3A-DDCBCDDAE821";
layerId = "05CCD135-7653-4FA4-B783-7643DC08F2DC";
name = "May 24, 23, 13:55";
shapes = (
{
closed = 1;
nodes = (
(514,447,l),
(502,436,o),
(495,377,o),
(486,299,cs),
(464,108,o),
(428,-200,o),
(266,-200,cs),
(80,-200,o),
(71,-1,o),
(380,303,c),
(399,269,l),
(181,-6,o),
(186,-85,o),
(222,-85,cs),
(270,-85,o),
(307,13,o),
(324,186,cs),
(335,302,o),
(341,414,o),
(341,462,cs),
(341,503,o),
(487,528,o),
(512,453,c)
);
},
{
closed = 1;
nodes = (
(339,332,l),
(268,504,o),
(186,361,o),
(186,256,cs),
(186,91,o),
(290,138,o),
(337,346,c),
(347,316,l),
(321,124,o),
(239,41,o),
(167,41,cs),
(89,41,o),
(30,112,o),
(30,232,cs),
(30,394,o),
(138,507,o),
(232,507,cs),
(296,507,o),
(353,455,o),
(365,330,c)
);
}
);
width = 534;
},
{
anchors = (
{
name = bottom;
pos = (218,-450);
},
{
name = top;
pos = (331,500);
}
);
associatedMasterId = "935688F5-83D3-4ABE-8A3A-DDCBCDDAE821";
layerId = "B460D0DA-A8FA-4BE2-BA6E-ECCA1BF1457C";
name = "Aug 29, 23, 12:38";
shapes = (
{
closed = 1;
nodes = (
(453,-200,o),
(489,108,o),
(511,299,cs),
(520,377,o),
(527,436,o),
(539,447,c),
(537,453,l),
(526,488,o),
(488,501,o),
(450,501,cs),
(407,501,o),
(366,484,o),
(366,462,cs),
(366,414,o),
(360,302,o),
(349,186,cs),
(332,13,o),
(275,-85,o),
(227,-85,cs),
(218,-85,o),
(212,-80,o),
(212,-68,cs),
(212,-32,o),
(262,65,o),
(424,269,c),
(405,303,l),
(234,135,o),
(160,-1,o),
(160,-89,cs),
(160,-160,o),
(208,-200,o),
(272,-200,cs)
);
},
{
closed = 1;
nodes = (
(244,41,o),
(346,124,o),
(372,316,c),
(362,346,l),
(335,223,o),
(280,156,o),
(240,156,cs),
(212,156,o),
(191,188,o),
(191,244,cs),
(191,326,o),
(236,412,o),
(287,412,cs),
(313,412,o),
(340,390,o),
(364,332,c),
(390,330,l),
(378,455,o),
(321,507,o),
(249,507,cs),
(143,507,o),
(35,394,o),
(35,232,cs),
(35,112,o),
(94,41,o),
(172,41,cs)
);
}
);
width = 557;
},
{
layerId = "935688F5-83D3-4ABE-8A3A-DDCBCDDAE821";
shapes = (
{
closed = 1;
nodes = (
(453,-200,o),
(489,108,o),
(508,273,cs),
(520,377,o),
(527,436,o),
(539,447,c),
(537,453,ls),
(526,488,o),
(488,501,o),
(450,501,cs),
(407,501,o),
(366,484,o),
(366,462,c),
(366,453,o),
(366,442,o),
(365,429,c),
(340,483,o),
(298,507,o),
(249,507,cs),
(143,507,o),
(35,394,o),
(35,232,cs),
(35,112,o),
(94,41,o),
(172,41,cs),
(181,41,o),
(191,42,o),
(200,45,c),
(173,-7,o),
(160,-52,o),
(160,-89,cs),
(160,-160,o),
(208,-200,o),
(273,-200,cs)
);
},
{
closed = 1;
nodes = (
(218,-85,o),
(212,-80,o),
(212,-68,cs),
(212,-38,o),
(246,32,o),
(347,169,c),
(328,7,o),
(273,-85,o),
(228,-85,cs)
);
},
{
closed = 1;
nodes = (
(212,156,o),
(191,188,o),
(191,244,cs),
(191,326,o),
(236,412,o),
(287,412,cs),
(312,412,o),
(337,392,o),
(361,340,c),
(333,221,o),
(279,156,o),
(240,156,cs)
);
}
);
width = 557;
}
);
unicode = 103;
}
{
glyphname = i;
layers = (
{
anchors = (
{
name = bottom;
pos = (142,0);
}
);
associatedMasterId = "935688F5-83D3-4ABE-8A3A-DDCBCDDAE821";
layerId = "0D520AE7-4B6F-4D06-BFF4-3B7802C1F5A9";
name = "Oct 1, 23, 18:29";
shapes = (
{
closed = 1;
nodes = (
(276,535,o),
(322,579,o),
(322,633,cs),
(322,681,o),
(284,719,o),
(231,719,cs),
(174,719,o),
(128,674,o),
(128,620,cs),
(128,572,o),
(166,535,o),
(219,535,cs)
);
}
);
width = 328;
},
{
associatedMasterId = "935688F5-83D3-4ABE-8A3A-DDCBCDDAE821";
layerId = "89D20301-74ED-4834-B721-75D583E2F3C9";
name = "May 26, 23, 14:37";
shapes = (
{
closed = 1;
nodes = (
(22,371,l),
(29,450,o),
(100,500,o),
(161,500,cs),
(213,500,o),
(257,469,o),
(257,391,cs),
(257,309,o),
(213,201,o),
(213,143,cs),
(213,89,o),
(258,106,o),
(267,124,c),
(274,122,l),
(274,48,o),
(207,-1,o),
(146,-1,cs),
(94,-1,o),
(45,34,o),
(45,120,cs),
(45,207,o),
(89,271,o),
(89,346,cs),
(89,400,o),
(51,400,o),
(29,367,c)
);
},
{
closed = 1;
nodes = (
(231,522,o),
(274,561,o),
(278,610,cs),
(281,659,o),
(244,699,o),
(194,699,cs),
(144,699,o),
(101,659,o),
(98,610,cs),
(95,561,o),
(132,522,o),
(182,522,cs)
);
}
);
width = 303;
},
{
associatedMasterId = "935688F5-83D3-4ABE-8A3A-DDCBCDDAE821";
layerId = "FEB15BF8-C6A1-4540-A0FD-F1096BB2A9DF";
name = "Jun 7, 23, 11:06";
shapes = (
{
closed = 1;
nodes = (
(220,-11,o),
(287,38,o),
(287,112,c),
(280,114,l),
(275,105,o),
(262,96,o),
(250,96,cs),
(238,96,o),
(226,106,o),
(226,132,cs),
(226,189,o),
(279,308,o),
(279,391,cs),
(279,469,o),
(235,500,o),
(183,500,cs),
(122,500,o),
(51,450,o),
(44,371,c),
(51,367,l),
(61,381,o),
(73,389,o),
(85,389,cs),
(99,389,o),
(111,376,o),
(111,346,cs),
(111,271,o),
(58,197,o),
(58,110,cs),
(58,24,o),
(107,-11,o),
(159,-11,cs)
);
},
{
closed = 1;
nodes = (
(276,535,o),
(322,579,o),
(322,633,cs),
(322,681,o),
(284,719,o),
(231,719,cs),
(174,719,o),
(128,674,o),
(128,620,cs),
(128,572,o),
(166,535,o),
(219,535,cs)
);
}
);
width = 328;
},
{
anchors = (
{
name = bottom;
pos = (142,0);
}
);
associatedMasterId = "935688F5-83D3-4ABE-8A3A-DDCBCDDAE821";
layerId = "B460D0DA-A8FA-4BE2-BA6E-ECCA1BF1457C";
name = "Aug 29, 23, 12:38";
shapes = (
{
closed = 1;
nodes = (
(276,535,o),
(322,579,o),
(322,633,cs),
(322,681,o),
(284,719,o),
(231,719,cs),
(174,719,o),
(128,674,o),
(128,620,cs),
(128,572,o),
(166,535,o),
(219,535,cs)
);
}
);
width = 328;
},
{
layerId = "935688F5-83D3-4ABE-8A3A-DDCBCDDAE821";
shapes = (
{
closed = 1;
nodes = (
(209,-4,o),
(276,45,o),
(276,119,c),
(269,121,l),
(264,112,o),
(251,103,o),
(239,103,cs),
(227,103,o),
(215,113,o),
(215,138,cs),
(215,196,o),
(278,312,o),
(278,400,cs),
(278,473,o),
(234,504,o),
(184,504,cs),
(121,504,o),
(50,454,o),
(43,375,c),
(50,371,l),
(60,385,o),
(72,393,o),
(83,393,cs),
(98,393,o),
(110,380,o),
(110,348,cs),
(110,275,o),
(47,204,o),
(47,112,cs),
(47,31,o),
(96,-4,o),
(148,-4,cs)
);
},
{
closed = 1;
nodes = (
(275,535,o),
(321,579,o),
(321,632,cs),
(321,681,o),
(283,719,o),
(230,719,cs),
(173,719,o),
(127,674,o),
(127,621,cs),
(127,572,o),
(165,535,o),
(218,535,cs)
);
}
);
width = 325;
}
);
unicode = 105;
}
{
glyphname = k;
layers = (
{
anchors = (
{
name = bottom;
pos = (256,0);
},
{
name = top;
pos = (186,700);
}
);
associatedMasterId = "935688F5-83D3-4ABE-8A3A-DDCBCDDAE821";
layerId = "F6E5B39A-54AA-47DC-BF59-4758D6CBEB18";
name = "Oct 1, 23, 18:30";
shapes = (
{
closed = 1;
nodes = (
(459,-5,o),
(523,32,o),
(556,110,c),
(550,116,l),
(543,113,o),
(536,112,o),
(527,112,cs),
(481,112,o),
(416,153,o),
(391,212,c),
(492,258,o),
(532,334,o),
(532,394,cs),
(532,454,o),
(491,504,o),
(423,504,cs),
(335,504,o),
(275,420,o),
(231,357,c),
(252,436,o),
(278,537,o),
(278,593,cs),
(278,664,o),
(236,700,o),
(186,700,cs),
(153,700,o),
(116,684,o),
(87,651,c),
(87,645,l),
(97,630,o),
(100,604,o),
(100,572,cs),
(100,438,o),
(35,192,o),
(35,95,cs),
(35,37,o),
(73,-4,o),
(130,-4,cs),
(192,-4,o),
(225,43,o),
(225,90,cs),
(225,141,o),
(212,168,o),
(212,205,cs),
(212,275,o),
(268,372,o),
(336,372,cs),
(366,372,o),
(388,356,o),
(388,331,cs),
(388,288,o),
(326,241,o),
(294,225,c),
(280,189,o),
(273,157,o),
(273,129,cs),
(273,43,o),
(333,-5,o),
(400,-5,cs)
);
}
);
width = 556;
},
{
associatedMasterId = "935688F5-83D3-4ABE-8A3A-DDCBCDDAE821";
layerId = "720282B4-36AC-497E-986A-0E93DA1CD402";
name = "May 25, 23, 14:31";
shapes = (
{
closed = 1;
nodes = (
(187,0,o),
(220,47,o),
(220,94,cs),
(220,157,o),
(200,183,o),
(207,225,cs),
(220,301,o),
(271,368,o),
(331,368,cs),
(361,368,o),
(383,352,o),
(383,327,cs),
(383,284,o),
(321,245,o),
(289,229,c),
(190,-13,o),
(467,-83,o),
(551,114,c),
(545,120,l),
(495,99,o),
(389,160,o),
(377,248,c),
(345,200,l),
(476,242,o),
(527,323,o),
(527,390,cs),
(527,450,o),
(486,500,o),
(423,500,cs),
(317,500,o),
(254,388,o),
(210,325,c),
(216,317,l),
(237,398,o),
(273,527,o),
(273,600,cs),
(273,712,o),
(155,733,o),
(82,651,c),
(82,645,l),
(131,567,o),
(30,219,o),
(30,99,cs),
(30,41,o),
(68,0,o),
(124,0,cs)
);
}
);
width = 551;
},
{
anchors = (
{
name = bottom;
pos = (256,0);
},
{
name = top;
pos = (326,700);
}
);
associatedMasterId = "935688F5-83D3-4ABE-8A3A-DDCBCDDAE821";
layerId = "B460D0DA-A8FA-4BE2-BA6E-ECCA1BF1457C";
name = "Aug 29, 23, 12:38";
shapes = (
{
closed = 1;
nodes = (
(459,-5,o),
(523,32,o),
(556,110,c),
(550,116,l),
(500,95,o),
(394,156,o),
(382,244,c),
(350,196,l),
(481,238,o),
(532,327,o),
(532,394,cs),
(532,454,o),
(491,504,o),
(423,504,cs),
(322,504,o),
(257,393,o),
(213,330,c),
(221,317,l),
(242,398,o),
(278,527,o),
(278,593,cs),
(278,712,o),
(160,733,o),
(87,651,c),
(87,645,l),
(136,567,o),
(35,215,o),
(35,95,cs),
(35,37,o),
(73,-4,o),
(130,-4,cs),
(192,-4,o),
(225,43,o),
(225,90,cs),
(225,153,o),
(205,179,o),
(214,231,cs),
(225,297,o),
(276,372,o),
(336,372,cs),
(366,372,o),
(388,356,o),
(388,331,cs),
(388,288,o),
(326,241,o),
(294,225,c),
(280,189,o),
(273,157,o),
(273,129,cs),
(273,43,o),
(333,-5,o),
(400,-5,cs)
);
}
);
width = 556;
},
{
layerId = "935688F5-83D3-4ABE-8A3A-DDCBCDDAE821";
shapes = (
{
closed = 1;
nodes = (
(459,-5,o),
(523,32,o),
(556,110,c),
(550,116,l),
(543,113,o),
(536,112,o),
(529,112,cs),
(481,112,o),
(416,153,o),
(391,212,c),
(492,258,o),
(532,334,o),
(532,394,cs),
(532,454,o),
(491,504,o),
(423,504,cs),
(335,504,o),
(275,420,o),
(231,357,c),
(252,436,o),
(278,537,o),
(278,593,cs),
(278,664,o),
(236,700,o),
(187,700,cs),
(153,700,o),
(116,684,o),
(87,651,c),
(87,645,l),
(97,630,o),
(100,604,o),
(100,575,cs),
(100,438,o),
(35,192,o),
(35,104,cs),
(35,37,o),
(73,-4,o),
(130,-4,cs),
(193,-4,o),
(225,43,o),
(225,103,cs),
(225,141,o),
(213,168,o),
(213,203,cs),
(213,275,o),
(268,372,o),
(338,372,cs),
(366,372,o),
(388,356,o),
(388,331,cs),
(388,288,o),
(326,241,o),
(294,225,c),
(280,189,o),
(273,157,o),
(273,128,cs),
(273,43,o),
(333,-5,o),
(400,-5,cs)
);
}
);
width = 556;
}
);
unicode = 107;
}
{
glyphname = l;
layers = (
{
anchors = (
{
name = bottom;
pos = (135,0);
},
{
name = center;
pos = (277,369);
},
{
name = top;
pos = (202,700);
},
{
name = topright;
pos = (326,700);
}
);
associatedMasterId = "935688F5-83D3-4ABE-8A3A-DDCBCDDAE821";
layerId = "F6E5B39A-54AA-47DC-BF59-4758D6CBEB18";
name = "Oct 1, 23, 18:30";
shapes = (
{
closed = 1;
nodes = (
(207,-4,o),
(273,48,o),
(275,120,c),
(267,122,l),
(263,112,o),
(248,98,o),
(233,98,cs),
(220,98,o),
(207,110,o),
(207,147,cs),
(207,236,o),
(284,476,o),
(284,589,cs),
(284,668,o),
(240,700,o),
(194,700,cs),
(153,700,o),
(111,675,o),
(96,632,c),
(97,629,l),
(103,618,o),
(107,594,o),
(107,559,cs),
(109,448,o),
(34,242,o),
(34,139,cs),
(34,35,o),
(89,-4,o),
(144,-4,cs)
);
}
);
width = 306;
},
{
anchors = (
{
name = bottom;
pos = (134,0);
},
{
name = center;
pos = (162,350);
},
{
name = top;
pos = (192,700);
},
{
name = topright;
pos = (326,700);
}
);
associatedMasterId = "935688F5-83D3-4ABE-8A3A-DDCBCDDAE821";
layerId = "B460D0DA-A8FA-4BE2-BA6E-ECCA1BF1457C";
name = "Aug 29, 23, 12:38";
shapes = (
{
closed = 1;
nodes = (
(207,-4,o),
(273,48,o),
(275,120,c),
(267,122,l),
(263,112,o),
(248,98,o),
(233,98,cs),
(220,98,o),
(207,110,o),
(207,147,cs),
(207,236,o),
(284,476,o),
(284,589,cs),
(284,668,o),
(240,700,o),
(194,700,cs),
(153,700,o),
(111,675,o),
(96,632,c),
(97,629,l),
(103,618,o),
(107,594,o),
(107,559,cs),
(109,448,o),
(34,242,o),
(34,139,cs),
(34,35,o),
(89,-4,o),
(144,-4,cs)
);
}
);
width = 306;
},
{
background = {
shapes = (
{
closed = 1;
nodes = (
(76,355,o),
(108,479,o),
(72,540,c),
(72,546,l),
(145,628,o),
(266,607,o),
(266,495,cs),
(266,374,o),
(164,99,o),
(244,99,cs),
(255,99,o),
(268,108,o),
(281,126,c),
(296,98,l),
(277,42,o),
(211,0,o),
(152,0,cs),
(42,0,o),
(37,124,o),
(51,205,cs)
);
}
);
};
layerId = "935688F5-83D3-4ABE-8A3A-DDCBCDDAE821";
shapes = (
{
closed = 1;
nodes = (
(207,-4,o),
(273,48,o),
(275,120,c),
(267,122,l),
(263,112,o),
(248,98,o),
(233,98,cs),
(220,98,o),
(207,110,o),
(207,147,cs),
(207,236,o),
(284,476,o),
(284,585,cs),
(284,668,o),
(240,700,o),
(194,700,cs),
(153,700,o),
(111,675,o),
(96,632,c),
(97,629,l),
(103,618,o),
(107,594,o),
(107,568,cs),
(109,448,o),
(34,242,o),
(34,130,cs),
(34,35,o),
(89,-4,o),
(144,-4,cs)
);
}
);
width = 306;
}
);
unicode = 108;
}
{
glyphname = n;
layers = (
{
anchors = (
{
name = bottom;
pos = (273,0);
},
{
name = top;
pos = (317,500);
}
);
associatedMasterId = "935688F5-83D3-4ABE-8A3A-DDCBCDDAE821";
layerId = "8B174F87-52DA-46E2-86D7-38551DB44049";
name = "Oct 1, 23, 18:31";
shapes = (
{
closed = 1;
nodes = (
(196,-3,o),
(240,35,o),
(240,107,cs),
(240,146,o),
(227,177,o),
(227,213,cs),
(227,297,o),
(297,367,o),
(344,367,cs),
(363,367,o),
(369,355,o),
(369,335,cs),
(369,284,o),
(332,184,o),
(332,112,cs),
(332,30,o),
(379,-3,o),
(431,-3,cs),
(495,-3,o),
(566,46,o),
(566,121,c),
(559,124,l),
(555,115,o),
(542,102,o),
(526,102,cs),
(509,102,o),
(503,117,o),
(503,142,cs),
(503,202,o),
(539,315,o),
(539,399,cs),
(539,459,o),
(521,504,o),
(458,504,cs),
(377,504,o),
(302,430,o),
(260,368,c),
(262,378,o),
(263,389,o),
(263,399,cs),
(263,457,o),
(230,504,o),
(159,504,cs),
(64,504,o),
(21,418,o),
(23,375,c),
(29,371,l),
(43,385,o),
(55,391,o),
(66,391,cs),
(83,391,o),
(95,375,o),
(95,348,cs),
(95,297,o),
(50,178,o),
(50,109,cs),
(50,38,o),
(97,-3,o),
(146,-3,cs)
);
}
);
width = 589;
},
{
anchors = (
{
name = bottom;
pos = (273,0);
},
{
name = top;
pos = (317,500);
}
);
associatedMasterId = "935688F5-83D3-4ABE-8A3A-DDCBCDDAE821";
layerId = "B460D0DA-A8FA-4BE2-BA6E-ECCA1BF1457C";
name = "Aug 29, 23, 12:38";
shapes = (
{
closed = 1;
nodes = (
(198,-3,o),
(245,35,o),
(245,91,cs),
(245,155,o),
(221,187,o),
(229,239,cs),
(239,309,o),
(301,367,o),
(347,367,cs),
(403,367,o),
(332,214,o),
(332,107,cs),
(332,30,o),
(379,-3,o),
(431,-3,cs),
(495,-3,o),
(566,46,o),
(566,121,c),
(559,124,l),
(555,115,o),
(542,102,o),
(527,102,cs),
(436,102,o),
(645,504,o),
(458,504,cs),
(356,504,o),
(265,388,o),
(234,325,c),
(242,314,l),
(285,405,o),
(262,504,o),
(159,504,cs),
(64,504,o),
(21,418,o),
(23,375,c),
(29,371,l),
(65,409,o),
(95,388,o),
(95,353,cs),
(95,297,o),
(55,178,o),
(55,96,cs),
(55,38,o),
(99,-3,o),
(149,-3,cs)
);
}
);
width = 589;
},
{
background = {
shapes = (
{
closed = 1;
nodes = (
(5,381,l),
(12,419,o),
(69,500,o),
(177,500,cs),
(285,500,o),
(302,394,o),
(245,298,cs),
(228,270,o),
(235,237,o),
(232,205,c),
(228,156,o),
(250,121,o),
(250,85,cs),
(250,42,o),
(203,0,o),
(150,0,cs),
(104,0,o),
(60,35,o),
(60,86,c),
(60,198,o),
(91,266,o),
(101,314,cs),
(123,415,o),
(61,418,o),
(29,367,c)
);
},
{
closed = 1;
nodes = (
(233,318,l),
(277,380,o),
(341,500,o),
(451,500,cs),
(650,500,o),
(441,103,o),
(532,103,c),
(547,103,o),
(558,111,o),
(565,126,c),
(580,98,l),
(563,46,o),
(517,0,o),
(441,0,cs),
(215,0,o),
(440,363,o),
(352,363,cs),
(301,363,o),
(245,283,o),
(233,219,c)
);
}
);
};
layerId = "935688F5-83D3-4ABE-8A3A-DDCBCDDAE821";
shapes = (
{
closed = 1;
nodes = (
(196,-3,o),
(240,35,o),
(240,107,cs),
(240,146,o),
(227,177,o),
(227,213,cs),
(227,297,o),
(297,367,o),
(344,367,cs),
(362,367,o),
(368,355,o),
(368,335,cs),
(368,284,o),
(332,184,o),
(332,112,cs),
(332,30,o),
(378,-3,o),
(430,-3,cs),
(495,-3,o),
(566,46,o),
(566,121,c),
(559,124,l),
(555,115,o),
(542,102,o),
(526,102,cs),
(509,102,o),
(503,117,o),
(503,142,cs),
(503,202,o),
(539,315,o),
(539,399,cs),
(539,459,o),
(521,504,o),
(458,504,cs),
(376,504,o),
(302,430,o),
(260,368,c),
(262,378,o),
(263,389,o),
(263,399,cs),
(263,457,o),
(230,504,o),
(159,504,cs),
(64,504,o),
(21,418,o),
(23,375,c),
(29,371,l),
(43,385,o),
(55,391,o),
(66,391,cs),
(83,391,o),
(95,375,o),
(95,348,cs),
(95,297,o),
(50,178,o),
(50,109,cs),
(50,38,o),
(97,-3,o),
(147,-3,cs)
);
}
);
width = 589;
}
);
unicode = 110;
}
{
glyphname = o;
layers = (
{
anchors = (
{
name = bottom;
pos = (262,0);
},
{
name = center;
pos = (284,250);
},
{
name = ogonek;
pos = (379,10);
},
{
name = top;
pos = (306,500);
},
{
name = topright;
pos = (444,440);
}
);
associatedMasterId = "935688F5-83D3-4ABE-8A3A-DDCBCDDAE821";
layerId = "8B174F87-52DA-46E2-86D7-38551DB44049";
name = "Oct 1, 23, 18:31";
shapes = (
{
closed = 1;
nodes = (
(435,-7,o),
(539,149,o),
(539,289,cs),
(539,403,o),
(470,507,o),
(322,507,cs),
(134,507,o),
(28,349,o),
(28,208,cs),
(28,95,o),
(97,-7,o),
(246,-7,cs)
);
},
{
closed = 1;
nodes = (
(228,78,o),
(206,154,o),
(206,234,cs),
(206,325,o),
(234,422,o),
(289,422,cs),
(334,422,o),
(356,346,o),
(356,266,cs),
(356,175,o),
(328,78,o),
(273,78,cs)
);
}
);
width = 567;
},
{
anchors = (
{
name = bottom;
pos = (262,0);
},
{
name = center;
pos = (284,250);
},
{
name = ogonek;
pos = (379,10);
},
{
name = top;
pos = (306,500);
},
{
name = topright;
pos = (569,500);
}
);
associatedMasterId = "935688F5-83D3-4ABE-8A3A-DDCBCDDAE821";
layerId = "B460D0DA-A8FA-4BE2-BA6E-ECCA1BF1457C";
name = "Aug 29, 23, 12:38";
shapes = (
{
closed = 1;
nodes = (
(589,-7,o),
(652,507,o),
(322,507,cs),
(-17,507,o),
(-89,-7,o),
(246,-7,cs)
);
},
{
closed = 1;
nodes = (
(178,78,o),
(186,422,o),
(289,422,cs),
(384,422,o),
(376,78,o),
(273,78,cs)
);
}
);
width = 567;
},
{
background = {
shapes = (
{
closed = 1;
nodes = (
(589,-6,o),
(652,507,o),
(322,507,cs),
(-17,507,o),
(-89,-6,o),
(246,-6,cs)
);
},
{
closed = 1;
nodes = (
(181,86,o),
(189,416,o),
(289,416,cs),
(381,416,o),
(373,86,o),
(273,86,cs)
);
}
);
};
layerId = "935688F5-83D3-4ABE-8A3A-DDCBCDDAE821";
shapes = (
{
closed = 1;
nodes = (
(435,-7,o),
(539,149,o),
(539,289,cs),
(539,403,o),
(470,507,o),
(320,507,cs),
(134,507,o),
(28,349,o),
(28,208,cs),
(28,95,o),
(97,-7,o),
(248,-7,cs)
);
},
{
closed = 1;
nodes = (
(228,78,o),
(206,154,o),
(206,234,cs),
(206,325,o),
(234,422,o),
(287,422,cs),
(334,422,o),
(356,346,o),
(356,266,cs),
(356,175,o),
(328,78,o),
(275,78,cs)
);
}
);
width = 567;
}
);
unicode = 111;
}
{
glyphname = p;
layers = (
{
anchors = (
{
name = bottom;
pos = (267,0);
},
{
name = top;
pos = (311,500);
}
);
layerId = "935688F5-83D3-4ABE-8A3A-DDCBCDDAE821";
shapes = (
{
closed = 1;
nodes = (
(144,-200,o),
(178,-183,o),
(196,-150,c),
(196,-144,l),
(188,-118,o),
(185,-91,o),
(185,-63,cs),
(185,-12,o),
(195,41,o),
(207,96,c),
(234,30,o),
(286,-4,o),
(343,-4,cs),
(442,-4,o),
(554,97,o),
(554,298,cs),
(554,441,o),
(497,507,o),
(425,507,cs),
(371,507,o),
(308,469,o),
(257,389,c),
(252,449,o),
(227,504,o),
(161,504,cs),
(92,504,o),
(22,443,o),
(22,374,c),
(29,370,l),
(38,381,o),
(53,390,o),
(66,390,cs),
(81,390,o),
(93,379,o),
(93,340,cs),
(93,237,o),
(11,59,o),
(11,-67,cs),
(11,-165,o),
(60,-200,o),
(110,-200,cs)
);
},
{
closed = 1;
nodes = (
(264,93,o),
(239,118,o),
(227,160,c),
(254,319,o),
(309,396,o),
(348,396,cs),
(378,396,o),
(393,351,o),
(393,295,cs),
(393,208,o),
(357,93,o),
(294,93,cs)
);
}
);
width = 580;
},
{
anchors = (
{
name = bottom;
pos = (267,0);
},
{
name = top;
pos = (311,500);
}
);
associatedMasterId = "935688F5-83D3-4ABE-8A3A-DDCBCDDAE821";
layerId = "E1565A1D-69A8-4446-98B7-844D85863EFD";
name = "Aug 29, 23, 12:38";
shapes = (
{
closed = 1;
nodes = (
(442,-4,o),
(554,97,o),
(554,306,cs),
(554,441,o),
(497,507,o),
(426,507,cs),
(335,507,o),
(222,403,o),
(179,178,c),
(226,152,l),
(252,316,o),
(308,396,o),
(346,396,cs),
(378,396,o),
(393,351,o),
(393,296,cs),
(393,208,o),
(357,93,o),
(291,93,cs),
(255,93,o),
(223,137,o),
(221,205,c),
(190,198,l),
(189,67,o),
(261,-4,o),
(342,-4,cs)
);
},
{
closed = 1;
nodes = (
(144,-200,o),
(178,-183,o),
(196,-150,c),
(196,-144,l),
(159,-17,o),
(228,146,o),
(253,296,cs),
(266,377,o),
(262,504,o),
(160,504,cs),
(92,504,o),
(22,443,o),
(22,374,c),
(29,370,l),
(48,393,o),
(93,408,o),
(93,348,cs),
(93,237,o),
(11,59,o),
(11,-99,cs),
(11,-165,o),
(60,-200,o),
(110,-200,cs)
);
}
);
width = 578;
},
{
anchors = (
{
name = bottom;
pos = (267,0);
},
{
name = top;
pos = (311,500);
}
);
associatedMasterId = "935688F5-83D3-4ABE-8A3A-DDCBCDDAE821";
layerId = "B8762262-665D-4862-8699-AA43E099E4EE";
name = "Aug 29, 23, 12:38";
shapes = (
{
closed = 1;
nodes = (
(442,-4,o),
(554,97,o),
(554,306,cs),
(554,441,o),
(497,507,o),
(426,507,cs),
(335,507,o),
(222,403,o),
(179,178,c),
(226,152,l),
(252,316,o),
(308,396,o),
(346,396,cs),
(378,396,o),
(393,351,o),
(393,296,cs),
(393,208,o),
(357,93,o),
(291,93,cs),
(255,93,o),
(223,137,o),
(221,205,c),
(190,198,l),
(189,67,o),
(261,-4,o),
(342,-4,cs)
);
},
{
closed = 1;
nodes = (
(144,-200,o),
(178,-183,o),
(196,-150,c),
(196,-144,l),
(159,-17,o),
(228,146,o),
(253,296,cs),
(266,377,o),
(262,504,o),
(160,504,cs),
(92,504,o),
(22,443,o),
(22,374,c),
(29,370,l),
(48,393,o),
(93,408,o),
(93,348,cs),
(93,237,o),
(11,59,o),
(11,-99,cs),
(11,-165,o),
(60,-200,o),
(110,-200,cs)
);
}
);
width = 578;
},
{
anchors = (
{
name = bottom;
pos = (267,0);
},
{
name = top;
pos = (311,500);
}
);
associatedMasterId = "935688F5-83D3-4ABE-8A3A-DDCBCDDAE821";
layerId = "4C233507-A8AE-4B32-9417-CD838B66C0AE";
name = "Oct 1, 23, 18:31";
shapes = (
{
closed = 1;
nodes = (
(144,-200,o),
(178,-183,o),
(196,-150,c),
(196,-144,l),
(175,-73,o),
(188,10,o),
(207,96,c),
(234,30,o),
(286,-4,o),
(342,-4,cs),
(442,-4,o),
(554,97,o),
(554,306,cs),
(554,441,o),
(497,507,o),
(426,507,cs),
(371,507,o),
(308,469,o),
(257,389,c),
(252,449,o),
(227,504,o),
(160,504,cs),
(92,504,o),
(22,443,o),
(22,374,c),
(29,370,l),
(48,393,o),
(93,408,o),
(93,348,cs),
(93,237,o),
(11,59,o),
(11,-99,cs),
(11,-165,o),
(60,-200,o),
(110,-200,cs)
);
},
{
closed = 1;
nodes = (
(264,93,o),
(239,118,o),
(227,160,c),
(254,319,o),
(309,396,o),
(346,396,cs),
(378,396,o),
(393,351,o),
(393,296,cs),
(393,208,o),
(357,93,o),
(291,93,cs)
);
}
);
width = 578;
}
);
metricLeft = n;
metricRight = b;
unicode = 112;
userData = {
KernOnName = p;
};
}
{
glyphname = q;
layers = (
{
anchors = (
{
name = bottom;
pos = (256,0);
},
{
name = top;
pos = (300,500);
}
);
associatedMasterId = "935688F5-83D3-4ABE-8A3A-DDCBCDDAE821";
layerId = "6073C1EF-D4F5-4353-8A33-B911B22412B8";
name = "Oct 1, 23, 18:32";
shapes = (
{
closed = 1;
nodes = (
(463,-200,o),
(540,-139,o),
(540,-70,c),
(532,-66,l),
(523,-77,o),
(508,-86,o),
(495,-86,cs),
(481,-86,o),
(469,-75,o),
(469,-44,cs),
(469,50,o),
(513,381,o),
(545,454,c),
(543,460,ls),
(531,495,o),
(493,508,o),
(456,508,cs),
(413,508,o),
(371,491,o),
(371,469,cs),
(371,461,o),
(370,452,o),
(370,444,c),
(342,486,o),
(298,507,o),
(251,507,cs),
(110,507,o),
(34,339,o),
(34,196,cs),
(34,89,o),
(76,-4,o),
(164,-4,cs),
(214,-4,o),
(270,29,o),
(317,92,c),
(312,65,o),
(307,36,o),
(302,5,cs),
(299,-14,o),
(297,-36,o),
(297,-57,cs),
(297,-128,o),
(319,-200,o),
(404,-200,cs)
);
},
{
closed = 1;
nodes = (
(211,104,o),
(196,151,o),
(196,207,cs),
(196,295,o),
(233,406,o),
(299,406,cs),
(325,406,o),
(349,387,o),
(361,352,c),
(359,341,o),
(358,329,o),
(356,318,cs),
(328,178,o),
(278,104,o),
(244,104,cs)
);
}
);
width = 555;
},
{
associatedMasterId = "935688F5-83D3-4ABE-8A3A-DDCBCDDAE821";
layerId = "0BCB78B2-7553-477C-A751-E93AC9954AF3";
name = "May 24, 23, 13:33";
shapes = (
{
closed = 1;
nodes = (
(403,326,l),
(383,391,o),
(348,421,o),
(313,421,cs),
(243,421,o),
(205,310,o),
(205,224,cs),
(205,171,o),
(220,128,o),
(251,128,cs),
(284,128,o),
(334,206,o),
(371,342,c),
(375,242,l),
(341,91,o),
(261,0,o),
(183,0,cs),
(85,0,o),
(40,86,o),
(40,187,cs),
(40,331,o),
(132,505,o),
(297,505,cs),
(364,505,o),
(424,469,o),
(447,395,c)
);
},
{
closed = 1;
nodes = (
(382,503,o),
(529,528,o),
(554,453,c),
(556,447,l),
(524,374,o),
(480,50,o),
(480,-44,cs),
(480,-104,o),
(524,-89,o),
(543,-66,c),
(551,-70,l),
(551,-139,o),
(474,-200,o),
(415,-200,cs),
(304,-200,o),
(300,-76,o),
(313,5,cs),
(347,205,o),
(374,307,o),
(382,462,c)
);
}
);
width = 600;
},
{
associatedMasterId = "935688F5-83D3-4ABE-8A3A-DDCBCDDAE821";
layerId = "3F262358-CDDF-4319-9C20-80F79D5B0FFB";
name = "May 23, 23, 09:44";
shapes = (
{
closed = 1;
nodes = (
(347,205,o),
(374,307,o),
(382,462,c),
(382,503,o),
(529,528,o),
(554,453,c),
(556,447,l),
(524,374,o),
(480,50,o),
(480,-44,cs),
(480,-104,o),
(524,-89,o),
(543,-66,c),
(551,-70,l),
(551,-139,o),
(474,-200,o),
(415,-200,cs),
(304,-200,o),
(300,-76,o),
(313,5,cs)
);
},
{
closed = 1;
nodes = (
(372,331,l),
(302,497,o),
(204,348,o),
(204,234,cs),
(204,53,o),
(319,104,o),
(370,332,c),
(383,227,l),
(350,76,o),
(262,0,o),
(184,0,cs),
(110,0,o),
(45,69,o),
(45,207,cs),
(45,348,o),
(122,507,o),
(266,507,cs),
(322,507,o),
(384,471,o),
(401,384,c)
);
}
);
width = 600;
},
{
anchors = (
{
name = bottom;
pos = (256,0);
},
{
name = top;
pos = (300,500);
}
);
associatedMasterId = "935688F5-83D3-4ABE-8A3A-DDCBCDDAE821";
layerId = "B460D0DA-A8FA-4BE2-BA6E-ECCA1BF1457C";
name = "Aug 29, 23, 12:38";
shapes = (
{
closed = 1;
nodes = (
(257,-4,o),
(371,111,o),
(410,319,c),
(363,356,l),
(337,191,o),
(281,104,o),
(244,104,cs),
(211,104,o),
(196,151,o),
(196,207,cs),
(196,295,o),
(233,406,o),
(299,406,cs),
(335,406,o),
(367,370,o),
(369,302,c),
(400,331,l),
(401,446,o),
(330,507,o),
(251,507,cs),
(110,507,o),
(34,339,o),
(34,196,cs),
(34,89,o),
(76,-4,o),
(164,-4,cs)
);
},
{
closed = 1;
nodes = (
(463,-200,o),
(540,-139,o),
(540,-70,c),
(532,-66,l),
(513,-89,o),
(469,-104,o),
(469,-44,cs),
(469,50,o),
(513,381,o),
(545,454,c),
(543,460,l),
(518,535,o),
(371,510,o),
(371,469,c),
(363,314,o),
(336,205,o),
(302,5,cs),
(289,-76,o),
(293,-200,o),
(404,-200,cs)
);
}
);
width = 555;
},
{
layerId = "935688F5-83D3-4ABE-8A3A-DDCBCDDAE821";
shapes = (
{
closed = 1;
nodes = (
(464,-200,o),
(541,-139,o),
(541,-70,c),
(533,-66,l),
(524,-77,o),
(509,-86,o),
(496,-86,cs),
(482,-86,o),
(470,-75,o),
(470,-32,cs),
(470,50,o),
(514,381,o),
(546,454,c),
(544,460,ls),
(532,495,o),
(494,508,o),
(457,508,cs),
(414,508,o),
(373,491,o),
(372,465,cs),
(371,444,l),
(343,486,o),
(299,507,o),
(250,507,cs),
(111,507,o),
(35,339,o),
(35,196,cs),
(35,89,o),
(77,-4,o),
(163,-4,cs),
(215,-4,o),
(271,29,o),
(318,92,c),
(313,65,o),
(308,36,o),
(305,20,cs),
(300,-14,o),
(298,-36,o),
(298,-57,cs),
(298,-128,o),
(320,-200,o),
(395,-200,cs)
);
},
{
closed = 1;
nodes = (
(212,104,o),
(197,151,o),
(197,207,cs),
(197,295,o),
(234,406,o),
(299,406,cs),
(326,406,o),
(350,387,o),
(362,352,c),
(351,293,o),
(314,104,o),
(242,104,cs)
);
}
);
width = 556;
}
);
unicode = 113;
}
{
glyphname = s;
layers = (
{
anchors = (
{
name = bottom;
pos = (221,0);
},
{
name = top;
pos = (285,500);
}
);
associatedMasterId = "935688F5-83D3-4ABE-8A3A-DDCBCDDAE821";
layerId = "6073C1EF-D4F5-4353-8A33-B911B22412B8";
name = "Oct 1, 23, 18:32";
shapes = (
{
closed = 1;
nodes = (
(346,-9,o),
(469,70,o),
(469,160,cs),
(469,285,o),
(234,288,o),
(234,389,cs),
(234,417,o),
(252,432,o),
(276,432,cs),
(309,432,o),
(345,402,o),
(344,334,c),
(427,334,o),
(466,372,o),
(466,412,cs),
(466,459,o),
(414,509,o),
(311,509,cs),
(202,509,o),
(65,453,o),
(65,348,cs),
(65,216,o),
(283,194,o),
(284,111,cs),
(284,84,o),
(260,64,o),
(230,64,cs),
(191,64,o),
(143,99,o),
(144,202,c),
(66,202,o),
(18,155,o),
(18,105,cs),
(18,50,o),
(78,-9,o),
(202,-9,cs)
);
}
);
width = 497;
},
{
anchors = (
{
name = bottom;
pos = (221,0);
},
{
name = top;
pos = (285,500);
}
);
associatedMasterId = "935688F5-83D3-4ABE-8A3A-DDCBCDDAE821";
layerId = "B460D0DA-A8FA-4BE2-BA6E-ECCA1BF1457C";
name = "Aug 29, 23, 12:38";
shapes = (
{
closed = 1;
nodes = (
(346,-9,o),
(469,70,o),
(469,160,cs),
(469,285,o),
(234,288,o),
(234,389,cs),
(234,417,o),
(252,432,o),
(276,432,cs),
(309,432,o),
(345,402,o),
(344,334,c),
(427,334,o),
(466,372,o),
(466,412,cs),
(466,459,o),
(414,509,o),
(311,509,cs),
(202,509,o),
(65,453,o),
(65,348,cs),
(65,216,o),
(283,194,o),
(284,111,cs),
(284,84,o),
(260,64,o),
(230,64,cs),
(191,64,o),
(143,99,o),
(144,202,c),
(66,202,o),
(18,155,o),
(18,105,cs),
(18,50,o),
(78,-9,o),
(202,-9,cs)
);
}
);
width = 497;
},
{
anchors = (
{
name = bottom;
pos = (223,0);
},
{
name = top;
pos = (287,500);
}
);
associatedMasterId = "935688F5-83D3-4ABE-8A3A-DDCBCDDAE821";
layerId = "5653CE4F-0A6E-406C-8F7E-00D160B8D12B";
name = "Aug 23, 23, 16:26";
shapes = (
{
closed = 1;
nodes = (
(348,-9,o),
(471,70,o),
(471,154,cs),
(471,285,o),
(231,288,o),
(231,389,cs),
(231,417,o),
(249,432,o),
(281,432,cs),
(311,432,o),
(347,402,o),
(346,334,c),
(406,334,o),
(466,350,o),
(466,422,cs),
(466,481,o),
(397,509,o),
(318,509,cs),
(204,509,o),
(67,453,o),
(67,353,cs),
(67,223,o),
(305,194,o),
(306,112,cs),
(306,84,o),
(278,64,o),
(234,64,cs),
(193,64,o),
(145,99,o),
(146,202,c),
(68,202,o),
(20,155,o),
(20,105,cs),
(20,50,o),
(80,-9,o),
(222,-9,cs)
);
}
);
width = 490;
},
{
background = {
shapes = (
{
closed = 1;
nodes = (
(-59,-6,o),
(-29,205,o),
(139,205,c),
(139,24,o),
(292,51,o),
(291,115,cs),
(291,197,o),
(59,210,o),
(59,350,cs),
(59,520,o),
(466,563,o),
(466,419,cs),
(466,347,o),
(405,314,o),
(344,314,c),
(344,447,o),
(237,453,o),
(237,386,cs),
(237,285,o),
(481,286,o),
(481,157,cs),
(481,73,o),
(348,-6,o),
(218,-6,cs)
);
}
);
};
layerId = "935688F5-83D3-4ABE-8A3A-DDCBCDDAE821";
shapes = (
{
closed = 1;
nodes = (
(344,-9,o),
(467,70,o),
(467,160,cs),
(467,226,o),
(402,258,o),
(335,291,cs),
(285,315,o),
(232,341,o),
(232,389,cs),
(232,417,o),
(250,432,o),
(274,432,cs),
(307,432,o),
(343,402,o),
(342,334,c),
(425,334,o),
(464,372,o),
(464,412,cs),
(464,459,o),
(412,509,o),
(309,509,cs),
(200,509,o),
(63,453,o),
(63,348,cs),
(63,274,o),
(131,235,o),
(178,207,cs),
(239,172,o),
(282,148,o),
(282,111,cs),
(282,84,o),
(258,64,o),
(228,64,cs),
(189,64,o),
(141,99,o),
(142,202,c),
(64,202,o),
(16,155,o),
(16,105,cs),
(16,50,o),
(76,-9,o),
(200,-9,cs)
);
}
);
width = 495;
}
);
unicode = 115;
}
